<svg id="Layer_1" data-name="Layer 1" xmlns="http://www.w3.org/2000/svg" viewBox="0 0 400 560"><defs><style>.cls-1{fill:#ea4fe7;}.cls-2{fill:#01a4cf;}</style></defs><path class="cls-1" d="M278,252.94l-14.68,86.55,77.31-40.57a19.89,19.89,0,0,1,18.69,0L436.6,340,422,253a20.54,20.54,0,0,1,5.79-18l62.09-61.19-86.07-13.38a20.16,20.16,0,0,1-15.14-11.14L350.06,70.12,350,70l-38.66,79.18a20.12,20.12,0,0,1-15.13,11.14L210.15,173l62.08,61.93a20.53,20.53,0,0,1,5.77,18Zm124.91-40,20-20a10,10,0,0,1,14.14,14.14l-20,20a10,10,0,0,1-14.14-14.14ZM361,265.54a10,10,0,0,1,13.42-4.48l20,10a10,10,0,0,1-8.94,17.9l-20-10a10,10,0,0,1-4.46-13.43ZM340,140a10,10,0,0,1,20,0v20a10,10,0,0,1-20,0ZM325.53,261.05a10,10,0,1,1,8.94,17.9l-20,10a10,10,0,0,1-8.94-17.9Zm-52.6-68.12a10,10,0,0,1,14.14,0l20,20a10,10,0,1,1-14.14,14.14l-20-20a10,10,0,0,1,0-14.14Z" transform="translate(-150 -70)"/><path class="cls-2" d="M290,500v40H410V500Z" transform="translate(-150 -70)"/><path class="cls-2" d="M470,600H150v30H550V600Z" transform="translate(-150 -70)"/><path class="cls-2" d="M350,316.58l-10,5.3V480h20V321.91Z" transform="translate(-150 -70)"/><path class="cls-2" d="M240,560v20H460V560Z" transform="translate(-150 -70)"/></svg>