<svg xmlns="http://www.w3.org/2000/svg" width="57.234" height="57.233" viewBox="0 0 57.234 57.233">
  <g id="cost_control" transform="translate(1037.671 -1888.813)">
    <path id="Path_5" data-name="Path 5" d="M92.269,230.655h20.985a4.775,4.775,0,0,0,4.769-4.769V197.269a4.775,4.775,0,0,0-4.769-4.769H92.269a4.775,4.775,0,0,0-4.769,4.769v28.616a4.775,4.775,0,0,0,4.769,4.769Zm-2.862-33.386a2.861,2.861,0,0,1,2.862-2.862h20.985a2.861,2.861,0,0,1,2.862,2.862v28.616a2.861,2.861,0,0,1-2.862,2.862H92.269a2.861,2.861,0,0,1-2.862-2.862Z" transform="translate(-1125.171 1715.391)" fill="#aae0ff"/>
    <path id="Path_6" data-name="Path 6" d="M132.2,241.973h15.262a.954.954,0,0,0,.954-.954V237.2a.954.954,0,0,0-.954-.954H132.2a.954.954,0,0,0-.954.954v3.816a.954.954,0,0,0,.954.954Zm.954-3.816h13.354v1.908H133.158Z" transform="translate(-1164.152 1676.41)" fill="#aae0ff"/>
    <path id="Path_7" data-name="Path 7" d="M134.112,311.974a2.861,2.861,0,1,0-2.024-.838A2.862,2.862,0,0,0,134.112,311.974Zm0-3.816a.954.954,0,1,1-.954.954A.953.953,0,0,1,134.112,308.159Z" transform="translate(-1164.152 1614.04)" fill="#aae0ff"/>
    <path id="Path_8" data-name="Path 8" d="M204.112,306.25a2.861,2.861,0,1,0,2.024.838A2.862,2.862,0,0,0,204.112,306.25Zm0,3.816a.954.954,0,1,1,.675-.279A.953.953,0,0,1,204.112,310.066Z" transform="translate(-1226.521 1614.041)" fill="#aae0ff"/>
    <path id="Path_9" data-name="Path 9" d="M271.25,309.112a2.861,2.861,0,1,0,.838-2.024A2.862,2.862,0,0,0,271.25,309.112Zm2.862-.954a.954.954,0,1,1-.954.954A.953.953,0,0,1,274.112,308.158Z" transform="translate(-1288.889 1614.041)" fill="#aae0ff"/>
    <path id="Path_10" data-name="Path 10" d="M134.112,381.974a2.861,2.861,0,1,0-2.024-.838A2.862,2.862,0,0,0,134.112,381.974Zm0-3.815a.954.954,0,1,1-.954.954A.953.953,0,0,1,134.112,378.159Z" transform="translate(-1164.152 1551.671)" fill="#aae0ff"/>
    <path id="Path_11" data-name="Path 11" d="M204.112,376.25a2.861,2.861,0,1,0,2.024.838A2.862,2.862,0,0,0,204.112,376.25Zm0,3.816a.954.954,0,1,1,.675-.279A.953.953,0,0,1,204.112,380.066Z" transform="translate(-1226.521 1551.672)" fill="#aae0ff"/>
    <path id="Path_12" data-name="Path 12" d="M134.112,451.974a2.861,2.861,0,1,0-2.024-.838A2.862,2.862,0,0,0,134.112,451.974Zm0-3.815a.954.954,0,1,1-.954.954A.953.953,0,0,1,134.112,448.159Z" transform="translate(-1164.152 1489.302)" fill="#aae0ff"/>
    <path id="Path_13" data-name="Path 13" d="M204.112,446.25a2.861,2.861,0,1,0,2.024.838A2.862,2.862,0,0,0,204.112,446.25Zm0,3.815a.954.954,0,1,1,.675-.279A.953.953,0,0,1,204.112,450.065Z" transform="translate(-1226.521 1489.303)" fill="#aae0ff"/>
    <path id="Path_14" data-name="Path 14" d="M274.112,376.25a2.861,2.861,0,0,0-2.862,2.862v7.631a2.862,2.862,0,1,0,5.723,0v-7.631a2.861,2.861,0,0,0-2.862-2.862Zm.954,10.493a.954.954,0,0,1-1.908,0v-7.631a.954.954,0,1,1,1.908,0Z" transform="translate(-1288.89 1551.672)" fill="#aae0ff"/>
    <path id="Path_15" data-name="Path 15" d="M393.75,165.131v.139a2.718,2.718,0,0,0,1.908,2.584v1.092h1.908v-1.092a2.713,2.713,0,0,0,.4-5.019l-1.859-.93h0a.814.814,0,0,1,.363-1.543h.279a.815.815,0,0,1,.815.815v.139h1.908v-.139a2.718,2.718,0,0,0-1.908-2.584V157.5h-1.908v1.092a2.713,2.713,0,0,0-.4,5.019l1.859.93h0a.814.814,0,0,1-.363,1.543h-.279a.815.815,0,0,1-.815-.815v-.139Z" transform="translate(-1398.035 1746.575)" fill="#aae0ff"/>
    <path id="Path_16" data-name="Path 16" d="M328.664,127.126a11.446,11.446,0,1,0-6.5-14.828l1.778.692h0a9.539,9.539,0,1,1,5.42,12.357Z" transform="translate(-1334.249 1793.339)" fill="#aae0ff"/>
    <path id="Path_17" data-name="Path 17" d="M463.75,201.25h1.908v1.908H463.75Z" transform="translate(-1460.404 1707.594)" fill="#aae0ff"/>
    <path id="Path_18" data-name="Path 18" d="M131.25,157.5H144.6v1.908H131.25Z" transform="translate(-1164.152 1746.575)" fill="#aae0ff"/>
    <path id="Path_19" data-name="Path 19" d="M306.25,271.25h1.908v1.908H306.25Z" transform="translate(-1320.074 1645.225)" fill="#aae0ff"/>
    <path id="Path_20" data-name="Path 20" d="M306.25,236.25h1.908v1.908H306.25Z" transform="translate(-1320.074 1676.41)" fill="#aae0ff"/>
    <path id="Path_21" data-name="Path 21" d="M283.225,59.472h-5.533a.954.954,0,0,1-.926-.723l-1.158-4.633,1.851-.462.981,3.911h4.037l.978-3.911a.954.954,0,0,1,.691-.693,14.823,14.823,0,0,0,3.937-1.634.956.956,0,0,1,.98,0l3.459,2.076,2.854-2.855L293.3,47.09a.954.954,0,0,1,0-.98,14.819,14.819,0,0,0,1.634-3.937.954.954,0,0,1,.693-.69l3.909-.979V36.468l-3.911-.979a.953.953,0,0,1-.693-.69,14.823,14.823,0,0,0-1.634-3.937.956.956,0,0,1,0-.98l2.076-3.459-2.852-2.855-3.459,2.076a.954.954,0,0,1-.979,0,15.043,15.043,0,0,0-1.783-.905,14.618,14.618,0,0,0-2.156-.729.955.955,0,0,1-.691-.693l-.978-3.909h-4.037l-.978,3.911a.954.954,0,0,1-.691.693,14.809,14.809,0,0,0-3.937,1.634.956.956,0,0,1-.98,0L268.4,23.569l-2.854,2.855,2.076,3.459a.954.954,0,0,1,0,.98,14.821,14.821,0,0,0-1.634,3.937l-1.849-.469a16.76,16.76,0,0,1,1.558-3.945l-2.171-3.618h0a.953.953,0,0,1,.144-1.165l3.911-3.911a.954.954,0,0,1,1.165-.144l3.619,2.171h0a16.667,16.667,0,0,1,3.39-1.406l1.022-4.091a.954.954,0,0,1,.921-.719h5.533a.954.954,0,0,1,.926.723l1.022,4.091a16.765,16.765,0,0,1,1.88.668c.511.218,1.018.465,1.51.735l3.619-2.171a.954.954,0,0,1,1.165.144l3.911,3.911a.953.953,0,0,1,.144,1.165l-2.171,3.618h0a16.8,16.8,0,0,1,1.406,3.39L300.73,34.8h0a.954.954,0,0,1,.715.922v5.533a.954.954,0,0,1-.722.925L296.63,43.2h0a16.815,16.815,0,0,1-1.406,3.39l2.171,3.618h0a.953.953,0,0,1-.144,1.165l-3.911,3.911a.954.954,0,0,1-1.165.144l-3.619-2.171a16.658,16.658,0,0,1-3.39,1.406l-1.022,4.091a.953.953,0,0,1-.919.715Z" transform="translate(-1281.882 1871.312)" fill="#aae0ff"/>
  </g>
</svg>
