<svg xmlns="http://www.w3.org/2000/svg" width="41.567" height="35.135" viewBox="0 0 41.567 35.135">
  <g id="powerful_dashboard" transform="translate(717.53 -2230.83)">
    <path id="Path_22" data-name="Path 22" d="M122.855,54.877H86.714A2.726,2.726,0,0,0,84,57.59V87.3a2.726,2.726,0,0,0,2.713,2.713h36.142a2.726,2.726,0,0,0,2.713-2.713V57.634a2.736,2.736,0,0,0-2.713-2.757Zm-25.9,2.8A1.313,1.313,0,1,1,95.64,58.99,1.346,1.346,0,0,1,96.952,57.677Zm-4.069,0a1.313,1.313,0,1,1,0,2.625A1.346,1.346,0,0,1,91.57,58.99,1.289,1.289,0,0,1,92.883,57.677Zm-4.113,0a1.313,1.313,0,1,1-1.313,1.313A1.289,1.289,0,0,1,88.77,57.677ZM122.2,86.687H87.37V63.234H122.2Z" transform="translate(-801.531 2175.953)" fill="#aae0ff"/>
    <path id="Path_23" data-name="Path 23" d="M384.71,236.155a5.379,5.379,0,0,0-2.057-.394,5.818,5.818,0,0,0-5.776,5.076h5.338Z" transform="translate(-1071.525 2009.202)" fill="#aae0ff"/>
    <path id="Path_24" data-name="Path 24" d="M382.654,260.35a5.856,5.856,0,0,0,3.457-10.589l-2.757,5.119a.742.742,0,0,1-.7.394h-5.776a5.782,5.782,0,0,0,5.776,5.076Z" transform="translate(-1071.525 1996.296)" fill="#aae0ff"/>
    <path id="Path_25" data-name="Path 25" d="M174.686,316.912h2.056a.532.532,0,0,0,.525-.525v-3.938a.532.532,0,0,0-.525-.525h-2.056a.532.532,0,0,0-.525.525v3.938A.506.506,0,0,0,174.686,316.912Z" transform="translate(-884.647 1938.99)" fill="#aae0ff"/>
    <path id="Path_26" data-name="Path 26" d="M233.486,286.451h2.056a.532.532,0,0,0,.525-.525v-6.52a.532.532,0,0,0-.525-.525h-2.056a.532.532,0,0,0-.525.525v6.563A.559.559,0,0,0,233.486,286.451Z" transform="translate(-938.853 1969.451)" fill="#aae0ff"/>
    <path id="Path_27" data-name="Path 27" d="M292.846,255.477H294.9a.532.532,0,0,0,.525-.525v-9.145a.532.532,0,0,0-.525-.525h-2.056a.532.532,0,0,0-.525.525v9.145a.506.506,0,0,0,.525.525Z" transform="translate(-993.575 2000.425)" fill="#aae0ff"/>
  </g>
</svg>
