<svg xmlns="http://www.w3.org/2000/svg" width="39.681" height="52.907" viewBox="0 0 39.681 52.907">
  <g id="smart_notification" transform="translate(528.373 -2573.313)">
    <path id="Path_33" data-name="Path 33" d="M267.955,124.23c5.253,0,7.1,1.852,7.1,7.1v23.545c0,5.291-1.852,7.143-7.1,7.143H246.3c-5.253,0-7.143-1.852-7.143-7.143V131.335c0-5.253,1.89-7.1,7.143-7.1Zm6.538,10.468h4.346v7.558h-4.346Zm-28.721,31.1h22.675l-.492,1.946a2.318,2.318,0,0,1-2.343,1.833H248.607a2.318,2.318,0,0,1-2.343-1.833Zm2.834-49.128h17.006a2.318,2.318,0,0,1,2.343,1.833l.492,1.946H245.772l.492-1.946a2.318,2.318,0,0,1,2.343-1.833Zm12.377,34.882h-7.747a3.874,3.874,0,0,0,7.748,0Zm-3.949-20.71c-4.309,0-7.71,3.42-7.71,8.484v3.514a3.409,3.409,0,0,1-1.606,2.891l-1,.642v3.288H267.5v-3.288l-1-.624a3.491,3.491,0,0,1-1.587-2.91v-3.514c0-5.064-3.458-8.484-7.879-8.484Z" transform="translate(-767.531 2456.64)" fill="#aae0ff"/>
  </g>
</svg>
