<svg xmlns="http://www.w3.org/2000/svg" width="43.047" height="47.83" viewBox="0 0 43.047 47.83">
  <path id="support" d="M161.525,50.256a13.158,13.158,0,0,0-13.153,13.153v.043a4.194,4.194,0,0,1,3.587,4.142v8.37a4.192,4.192,0,0,1-4.185,4.185h-1.2A6.591,6.591,0,0,1,140,73.573V69.985a6.6,6.6,0,0,1,4.783-6.327v-.249a16.74,16.74,0,0,1,33.48,0v.249a6.6,6.6,0,0,1,4.783,6.327v3.587a6.6,6.6,0,0,1-4.783,6.327v1.087a9.652,9.652,0,0,1-9.662,9.662h-.125a5.376,5.376,0,0,1-5.161,3.85h-3.587a5.381,5.381,0,0,1,0-10.762h3.587a5.377,5.377,0,0,1,4.975,3.324h.31a6.065,6.065,0,0,0,6.074-6.074v-.88a4.2,4.2,0,0,1-3.587-4.143v-8.37a4.194,4.194,0,0,1,3.587-4.142v-.043a13.158,13.158,0,0,0-13.153-13.153Zm14.947,26.306a3,3,0,0,0,2.99-2.989V69.985a3,3,0,0,0-2.99-2.99h-1.2a.6.6,0,0,0-.6.6v8.37a.6.6,0,0,0,.6.6Zm-32.883-6.576a3,3,0,0,1,2.99-2.99h1.2a.605.605,0,0,1,.6.6v8.37a.605.605,0,0,1-.6.6h-1.2a3,3,0,0,1-2.99-2.989Zm16.143,17.338a1.794,1.794,0,1,0,0,3.587h3.587a1.794,1.794,0,1,0,0-3.587Z" transform="translate(-140.002 -46.668)" fill="#aae0ff" fill-rule="evenodd"/>
</svg>
