<svg xmlns="http://www.w3.org/2000/svg" width="85.312" height="41.99" viewBox="0 0 85.312 41.99">
  <g id="unique_feature" transform="translate(628 -2364)">
    <path id="Path_28" data-name="Path 28" d="M280.525,155.311l-3.46-4.458a6.219,6.219,0,0,0-4.032-2.086c-.069,0-.132-.02-.2-.02H259.011a5.78,5.78,0,0,0-4.2,2.18l-3.108,4.416a3.85,3.85,0,0,0,.1,4.289l12.624,16.331a1.973,1.973,0,0,0,3.27.007L280.52,159.52a3.615,3.615,0,0,0,0-4.208Zm-2.779.768H273.2l1.259-4.025a2.218,2.218,0,0,1,.5.434Zm-11.408-2.524,1.617,2.524h-3.366Zm3.237,5.19-3.294,10.535-3.41-10.535Zm-9.506,0,4.026,12.437-9.614-12.437Zm12.3,0h5.374l-8.972,11.507Zm-.5-7.331-1.226,3.919-2.51-3.919Zm-7.291,0-2.781,4.014-1.3-4.014Zm-7.587,1.049a2.574,2.574,0,0,1,.831-.661l1.384,4.277h-4.761Z" transform="translate(-851.508 2215.252)" fill="#aae0ff"/>
    <path id="Path_29" data-name="Path 29" d="M85.535,324.75l-4.294-.627-1.92-3.909c-.273-.555-.631-.832-.988-.832s-.715.277-.987.832l-1.921,3.909-4.295.627c-1.221.178-1.494,1.023-.611,1.887l3.108,3.043-.734,4.3c-.151.883.182,1.4.791,1.4a1.762,1.762,0,0,0,.806-.234l3.841-2.028,3.841,2.028a1.764,1.764,0,0,0,.806.234c.61,0,.943-.518.792-1.4l-.734-4.3,3.107-3.043c.884-.863.611-1.709-.61-1.887Zm-5.361,4,.436,2.551-2.277-1.2-2.277,1.2.436-2.55-1.858-1.819,2.565-.375,1.134-2.308,1.134,2.308,2.566.375Z" transform="translate(-698.001 2070.613)" fill="#aae0ff"/>
    <path id="Path_30" data-name="Path 30" d="M186.155,245.99l-4.294-.627-1.92-3.909c-.273-.555-.631-.833-.988-.833s-.715.277-.987.833l-1.921,3.909-4.295.627c-1.221.178-1.494,1.023-.611,1.888l3.108,3.042-.734,4.3c-.151.884.182,1.4.791,1.4a1.762,1.762,0,0,0,.806-.234l3.841-2.029,3.841,2.029a1.764,1.764,0,0,0,.806.234c.61,0,.943-.518.792-1.4l-.734-4.3,3.107-3.042c.884-.864.611-1.71-.61-1.888Zm-5.361,4,.436,2.55-2.277-1.2-2.277,1.2.436-2.55-1.858-1.819,2.566-.374,1.134-2.309,1.134,2.309,2.566.374Z" transform="translate(-783.293 2137.375)" fill="#aae0ff"/>
    <path id="Path_31" data-name="Path 31" d="M536.16,324.75l-4.295-.627-1.92-3.909c-.272-.555-.63-.832-.987-.832s-.715.277-.988.832l-1.92,3.909-4.295.627c-1.221.178-1.493,1.023-.61,1.887l3.107,3.043-.734,4.3c-.151.883.183,1.4.793,1.4a1.76,1.76,0,0,0,.806-.234l3.841-2.028,3.841,2.028a1.766,1.766,0,0,0,.806.234c.61,0,.943-.518.791-1.4l-.734-4.3,3.108-3.043c.884-.863.61-1.709-.611-1.887Zm-5.361,4,.436,2.55-2.277-1.2-2.277,1.2.436-2.55-1.858-1.819,2.566-.375,1.134-2.308,1.134,2.308,2.565.375Z" transform="translate(-1079.978 2070.613)" fill="#aae0ff"/>
    <path id="Path_32" data-name="Path 32" d="M433.036,250.92l3.108-3.042c.884-.865.61-1.71-.611-1.888l-4.295-.627-1.921-3.909c-.272-.555-.63-.833-.987-.833s-.715.277-.988.833l-1.92,3.909-4.294.627c-1.22.178-1.493,1.023-.61,1.888l3.107,3.042-.734,4.3c-.151.884.182,1.4.792,1.4a1.761,1.761,0,0,0,.806-.234l3.841-2.029,3.841,2.029a1.767,1.767,0,0,0,.806.234c.61,0,.943-.518.791-1.4Zm-2.864-.928.436,2.55-2.277-1.2-2.277,1.2.436-2.55-1.858-1.819,2.566-.374,1.134-2.309,1.134,2.309,2.566.374Z" transform="translate(-994.68 2137.374)" fill="#aae0ff"/>
  </g>
</svg>
