<svg xmlns="http://www.w3.org/2000/svg" width="46.289" height="45.467" viewBox="0 0 46.289 45.467">
  <path id="user_friendly" d="M107.41,42.007a.123.123,0,0,1-.09-.118v-.841a3.214,3.214,0,0,1-1.252-1.007,3.152,3.152,0,0,1-.614-2.211l-.156.227a9.1,9.1,0,0,1-4.253,3.369,6.4,6.4,0,0,1-4.29,0,8.845,8.845,0,0,1-4.29-3.378,9.82,9.82,0,0,1-1.635-3.969.3.3,0,0,0-.279-.255c-.165,0-.756-.255-1.479-2.835-.567-2-.326-2.731-.137-2.986a.653.653,0,0,1,.562-.246h.137a.3.3,0,0,0,.321-.279c0-.043.354-4.361,2.915-5.916,1.28-.779,2.92-.746,4.876.085a19.956,19.956,0,0,0,2.419.86,10.341,10.341,0,0,1,9.2-5.613h1.12a8.851,8.851,0,0,0-3.189-3.78A3.176,3.176,0,0,0,108.2,10.8a.3.3,0,0,0-.108-.213.322.322,0,0,0-.213-.052c-.066,0-6.506.732-9.61.09-3.194-.657-6.7,1.762-7.4,4.238a4.674,4.674,0,0,0-3.052,1.725c-1.418,1.734-1.838,4.493-1.28,8.2.038.473.095.945.18,1.418l-.057.071c-1.233,1.635-.784,3.922-.336,5.5a8.954,8.954,0,0,0,1.937,3.912h0a12.569,12.569,0,0,0,.922,2.362,13.885,13.885,0,0,0,1.318,2.112v1.72a.118.118,0,0,1-.09.118c-4.408,1.016-14.647,4.252-14.647,12.388h0a1.6,1.6,0,0,0,1.6,1.6h43.11a1.6,1.6,0,0,0,1.583-1.6c0-8.122-10.233-11.367-14.647-12.384Zm-8.5,6.218a8.449,8.449,0,0,1-6.927-3.444,3.31,3.31,0,0,0,1.507-1.791,10.738,10.738,0,0,0,2.31,1.134,9.318,9.318,0,0,0,6.218,0,10.965,10.965,0,0,0,2.306-1.162,3.308,3.308,0,0,0,1.512,1.814,8.452,8.452,0,0,1-6.927,3.449Zm15.4-28.76h-4.942a7.763,7.763,0,0,0-1.148,15.441,6.976,6.976,0,0,1-.175,3.076.624.624,0,0,0,.879.732,9.384,9.384,0,0,0,4.1-3.709h1.29a7.77,7.77,0,0,0,0-15.54ZM109.3,24.058a1.559,1.559,0,1,1-1.1.456A1.559,1.559,0,0,1,109.3,24.058Zm2.532,7.281c-2.773,0-4.252-2.655-3.813-2.773s1.271.633,3.813.633,3.35-.751,3.813-.633-1.035,2.773-3.808,2.773Zm2.533-4.167h0a1.549,1.549,0,1,1,.01,0Z" transform="translate(-75.768 -10.52)" fill="#aae0ff"/>
</svg>
