<svg width="320" height="320" viewBox="0 0 320 320" fill="none" xmlns="http://www.w3.org/2000/svg">
<g filter="url(#filter0_d_0_1)">
<rect x="25" y="25" width="250" height="250" rx="15" fill="white"/>
</g>
<path d="M150.431 145.347L156.683 130.761H175.437V87H123.341V130.761H144.18L150.431 145.347ZM157.725 124.509C156.002 124.509 154.599 123.106 154.599 121.383C154.599 119.66 156.002 118.258 157.725 118.258C159.447 118.258 160.85 119.66 160.85 121.383C160.85 123.106 159.447 124.509 157.725 124.509ZM129.594 97.4192V93.2515H137.929C138.827 93.2515 139.622 93.8245 139.907 94.6767L145.683 112.006H159.28L162.258 101.587H146.265V97.4193H165.019C165.673 97.4193 166.288 97.7253 166.683 98.2491C167.076 98.7719 167.204 99.4473 167.022 100.076L162.855 114.663C162.6 115.557 161.781 116.174 160.852 116.174H144.181C143.283 116.174 142.489 115.601 142.203 114.749L136.427 97.4192L129.594 97.4192ZM142.097 121.382C142.097 119.659 143.5 118.256 145.223 118.256C146.946 118.256 148.349 119.659 148.349 121.382C148.349 123.105 146.946 124.508 145.223 124.508C143.5 124.508 142.097 123.105 142.097 121.382Z" fill="#753AFF"/>
<path d="M127.509 162.018L121.258 143.263H135.844V134.928H123.341C121.041 134.928 119.174 133.061 119.174 130.76V95.3353H90V143.263H108.755L127.509 162.018ZM110.838 109.922H115.006V114.09H110.838V109.922ZM94.1677 109.922H106.671V114.09H94.1677V109.922ZM94.1677 120.341H115.006V124.509H94.1677V120.341Z" fill="#753AFF"/>
<path d="M165.018 134.928V143.264H179.605L173.353 159.934L192.108 143.264H210.862V97.4192H179.605V130.761C179.605 133.061 177.738 134.928 175.437 134.928H165.018ZM190.972 114.698L194.192 107.838L197.412 114.698L204.611 115.799L199.401 121.138L200.631 128.677L194.192 125.118L187.752 128.677L188.982 121.138L183.773 115.799L190.972 114.698Z" fill="#753AFF"/>
<path d="M179.605 205.779C179.605 198.873 174.007 193.276 167.102 193.276H161.713L151.904 203.085C151.498 203.49 150.964 203.695 150.431 203.695C149.898 203.695 149.364 203.49 148.958 203.085L139.149 193.276H133.76C126.855 193.276 121.257 198.873 121.257 205.779V212.03H179.605L179.605 205.779Z" fill="#753AFF"/>
<path d="M150.431 198.665L158.766 190.33V184.776C163.744 181.892 167.102 176.52 167.102 170.354C167.102 161.148 159.637 153.683 150.431 153.683C141.225 153.683 133.76 161.148 133.76 170.354C133.76 176.52 137.118 181.892 142.096 184.776V190.33L150.431 198.665Z" fill="#753AFF"/>
<defs>
<filter id="filter0_d_0_1" x="0" y="0" width="320" height="320" filterUnits="userSpaceOnUse" color-interpolation-filters="sRGB">
<feFlood flood-opacity="0" result="BackgroundImageFix"/>
<feColorMatrix in="SourceAlpha" type="matrix" values="0 0 0 0 0 0 0 0 0 0 0 0 0 0 0 0 0 0 127 0" result="hardAlpha"/>
<feOffset dx="10" dy="10"/>
<feGaussianBlur stdDeviation="17.5"/>
<feComposite in2="hardAlpha" operator="out"/>
<feColorMatrix type="matrix" values="0 0 0 0 0 0 0 0 0 0 0 0 0 0 0 0 0 0 0.1 0"/>
<feBlend mode="normal" in2="BackgroundImageFix" result="effect1_dropShadow_0_1"/>
<feBlend mode="normal" in="SourceGraphic" in2="effect1_dropShadow_0_1" result="shape"/>
</filter>
</defs>
</svg>
