<svg width="320" height="320" viewBox="0 0 320 320" fill="none" xmlns="http://www.w3.org/2000/svg">
<g filter="url(#filter0_d_0_1)">
<rect x="25" y="25" width="250" height="250" rx="15" fill="white"/>
</g>
<path d="M228.469 181.533V87H71V181.533H141.653C142.965 181.533 144.067 182.583 144.067 183.948V198.12C144.067 199.432 143.017 200.535 141.653 200.535H119.817V212.03H179.657V200.535H157.978C156.666 200.535 155.564 199.485 155.564 198.12V183.948C155.564 182.635 156.614 181.533 157.978 181.533H228.469ZM139.656 135.289C139.604 135.237 139.551 135.237 139.499 135.237C138.764 139.069 135.405 141.956 131.363 141.956C129.368 141.956 127.531 141.273 126.114 140.118L111.784 154.448C112.676 155.76 113.201 157.335 113.201 159.067C113.201 163.634 109.527 167.308 104.908 167.308C100.289 167.308 96.6144 163.634 96.6144 159.067C96.6144 154.501 100.289 150.826 104.908 150.826C106.64 150.826 108.215 151.351 109.527 152.243L124.067 137.704C123.384 136.496 123.017 135.184 123.017 133.662C123.017 129.095 126.691 125.421 131.31 125.421C135.352 125.421 138.712 128.308 139.446 132.139H139.604V132.087H159.34C159.813 128.045 163.329 124.843 167.528 124.843C170.205 124.843 172.568 126.103 174.09 128.098L188.262 114.817C186.95 113.348 186.163 111.458 186.163 109.306C186.163 104.739 189.837 101.065 194.456 101.065C199.075 101.065 202.749 104.739 202.749 109.306C202.749 113.925 199.075 117.599 194.456 117.599C193.144 117.599 191.884 117.285 190.782 116.76L175.559 131.089C175.717 131.772 175.822 132.454 175.822 133.189C175.822 137.756 172.147 141.43 167.528 141.43C163.697 141.43 160.442 138.805 159.55 135.236L139.656 135.289Z" fill="#4A46EB"/>
<defs>
<filter id="filter0_d_0_1" x="0" y="0" width="320" height="320" filterUnits="userSpaceOnUse" color-interpolation-filters="sRGB">
<feFlood flood-opacity="0" result="BackgroundImageFix"/>
<feColorMatrix in="SourceAlpha" type="matrix" values="0 0 0 0 0 0 0 0 0 0 0 0 0 0 0 0 0 0 127 0" result="hardAlpha"/>
<feOffset dx="10" dy="10"/>
<feGaussianBlur stdDeviation="17.5"/>
<feComposite in2="hardAlpha" operator="out"/>
<feColorMatrix type="matrix" values="0 0 0 0 0 0 0 0 0 0 0 0 0 0 0 0 0 0 0.1 0"/>
<feBlend mode="normal" in2="BackgroundImageFix" result="effect1_dropShadow_0_1"/>
<feBlend mode="normal" in="SourceGraphic" in2="effect1_dropShadow_0_1" result="shape"/>
</filter>
</defs>
</svg>
