<svg width="431" height="300" viewBox="0 0 431 300" fill="none" xmlns="http://www.w3.org/2000/svg">
<path d="M421 0H10C4.47715 0 0 4.47716 0 10V290C0 295.523 4.47716 300 10 300H421C426.523 300 431 295.523 431 290V10C431 4.47715 426.523 0 421 0Z" fill="url(#paint0_linear_0_1)"/>
<path d="M38.9245 244.367C38.9245 244.743 38.8835 245.069 38.8015 245.345C38.7215 245.619 38.6115 245.846 38.4715 246.026C38.3315 246.206 38.1655 246.34 37.9735 246.428C37.7835 246.516 37.5795 246.56 37.3615 246.56C37.1415 246.56 36.9365 246.516 36.7465 246.428C36.5585 246.34 36.3945 246.206 36.2545 246.026C36.1145 245.846 36.0045 245.619 35.9245 245.345C35.8445 245.069 35.8045 244.743 35.8045 244.367C35.8045 243.991 35.8445 243.665 35.9245 243.389C36.0045 243.113 36.1145 242.885 36.2545 242.705C36.3945 242.523 36.5585 242.388 36.7465 242.3C36.9365 242.212 37.1415 242.168 37.3615 242.168C37.5795 242.168 37.7835 242.212 37.9735 242.3C38.1655 242.388 38.3315 242.523 38.4715 242.705C38.6115 242.885 38.7215 243.113 38.8015 243.389C38.8835 243.665 38.9245 243.991 38.9245 244.367ZM38.3695 244.367C38.3695 244.039 38.3415 243.764 38.2855 243.542C38.2315 243.318 38.1575 243.138 38.0635 243.002C37.9715 242.866 37.8645 242.769 37.7425 242.711C37.6205 242.651 37.4935 242.621 37.3615 242.621C37.2295 242.621 37.1025 242.651 36.9805 242.711C36.8585 242.769 36.7515 242.866 36.6595 243.002C36.5675 243.138 36.4935 243.318 36.4375 243.542C36.3835 243.764 36.3565 244.039 36.3565 244.367C36.3565 244.695 36.3835 244.97 36.4375 245.192C36.4935 245.414 36.5675 245.593 36.6595 245.729C36.7515 245.865 36.8585 245.963 36.9805 246.023C37.1025 246.081 37.2295 246.11 37.3615 246.11C37.4935 246.11 37.6205 246.081 37.7425 246.023C37.8645 245.963 37.9715 245.865 38.0635 245.729C38.1575 245.593 38.2315 245.414 38.2855 245.192C38.3415 244.97 38.3695 244.695 38.3695 244.367Z" fill="white"/>
<path d="M101.791 274.961V275.369H99.4868V274.961H100.408V272.03C100.408 271.942 100.411 271.853 100.417 271.763L99.6518 272.42C99.6258 272.442 99.5998 272.456 99.5738 272.462C99.5478 272.466 99.5238 272.466 99.5018 272.462C99.4798 272.458 99.4588 272.45 99.4388 272.438C99.4208 272.426 99.4068 272.413 99.3968 272.399L99.2288 272.168L100.51 271.061H100.945V274.961H101.791Z" fill="white"/>
<path d="M150.793 274.862C150.851 274.862 150.897 274.879 150.931 274.913C150.965 274.947 150.982 274.991 150.982 275.045V275.369H148.114V275.186C148.114 275.148 148.122 275.109 148.138 275.069C148.154 275.029 148.179 274.992 148.213 274.958L149.59 273.575C149.704 273.459 149.808 273.348 149.902 273.242C149.996 273.134 150.076 273.026 150.142 272.918C150.208 272.81 150.259 272.701 150.295 272.591C150.331 272.479 150.349 272.36 150.349 272.234C150.349 272.108 150.329 271.998 150.289 271.904C150.249 271.808 150.194 271.729 150.124 271.667C150.056 271.605 149.975 271.559 149.881 271.529C149.787 271.497 149.686 271.481 149.578 271.481C149.468 271.481 149.367 271.497 149.275 271.529C149.183 271.561 149.101 271.606 149.029 271.664C148.959 271.72 148.9 271.787 148.852 271.865C148.804 271.943 148.77 272.029 148.75 272.123C148.726 272.193 148.693 272.24 148.651 272.264C148.611 272.286 148.554 272.292 148.48 272.282L148.201 272.234C148.229 272.038 148.283 271.865 148.363 271.715C148.445 271.563 148.547 271.436 148.669 271.334C148.793 271.232 148.934 271.155 149.092 271.103C149.25 271.049 149.421 271.022 149.605 271.022C149.787 271.022 149.957 271.049 150.115 271.103C150.273 271.157 150.41 271.236 150.526 271.34C150.642 271.442 150.733 271.567 150.799 271.715C150.865 271.863 150.898 272.031 150.898 272.219C150.898 272.379 150.874 272.528 150.826 272.666C150.778 272.802 150.713 272.932 150.631 273.056C150.549 273.18 150.454 273.301 150.346 273.419C150.24 273.537 150.127 273.656 150.007 273.776L148.873 274.934C148.953 274.912 149.034 274.895 149.116 274.883C149.198 274.869 149.277 274.862 149.353 274.862H150.793Z" fill="white"/>
<path d="M197.299 272.234C197.327 272.038 197.381 271.865 197.461 271.715C197.541 271.563 197.642 271.436 197.764 271.334C197.888 271.232 198.029 271.155 198.187 271.103C198.347 271.049 198.519 271.022 198.703 271.022C198.885 271.022 199.053 271.048 199.207 271.1C199.361 271.152 199.493 271.226 199.603 271.322C199.715 271.418 199.802 271.534 199.864 271.67C199.926 271.806 199.957 271.957 199.957 272.123C199.957 272.259 199.939 272.381 199.903 272.489C199.869 272.595 199.819 272.688 199.753 272.768C199.689 272.848 199.611 272.916 199.519 272.972C199.427 273.028 199.324 273.074 199.21 273.11C199.49 273.182 199.7 273.306 199.84 273.482C199.982 273.656 200.053 273.874 200.053 274.136C200.053 274.334 200.015 274.512 199.939 274.67C199.865 274.828 199.763 274.963 199.633 275.075C199.503 275.185 199.351 275.27 199.177 275.33C199.005 275.388 198.82 275.417 198.622 275.417C198.394 275.417 198.199 275.389 198.037 275.333C197.875 275.275 197.738 275.196 197.626 275.096C197.514 274.996 197.422 274.878 197.35 274.742C197.278 274.604 197.217 274.455 197.167 274.295L197.398 274.199C197.458 274.173 197.516 274.166 197.572 274.178C197.63 274.19 197.672 274.223 197.698 274.277C197.724 274.333 197.756 274.4 197.794 274.478C197.834 274.556 197.888 274.631 197.956 274.703C198.024 274.775 198.11 274.836 198.214 274.886C198.32 274.936 198.454 274.961 198.616 274.961C198.766 274.961 198.897 274.937 199.009 274.889C199.123 274.839 199.217 274.775 199.291 274.697C199.367 274.619 199.424 274.532 199.462 274.436C199.5 274.34 199.519 274.245 199.519 274.151C199.519 274.035 199.504 273.929 199.474 273.833C199.444 273.737 199.388 273.654 199.306 273.584C199.224 273.514 199.111 273.459 198.967 273.419C198.825 273.379 198.642 273.359 198.418 273.359V272.972C198.602 272.97 198.758 272.95 198.886 272.912C199.016 272.874 199.121 272.822 199.201 272.756C199.283 272.69 199.342 272.611 199.378 272.519C199.416 272.427 199.435 272.325 199.435 272.213C199.435 272.089 199.415 271.981 199.375 271.889C199.337 271.797 199.284 271.721 199.216 271.661C199.148 271.601 199.067 271.556 198.973 271.526C198.881 271.496 198.781 271.481 198.673 271.481C198.565 271.481 198.464 271.497 198.37 271.529C198.278 271.561 198.196 271.606 198.124 271.664C198.054 271.72 197.995 271.787 197.947 271.865C197.899 271.943 197.865 272.029 197.845 272.123C197.819 272.193 197.786 272.24 197.746 272.264C197.708 272.286 197.652 272.292 197.578 272.282L197.299 272.234Z" fill="white"/>
<path d="M248.175 273.818V272.045C248.175 271.993 248.177 271.936 248.181 271.874C248.185 271.812 248.191 271.749 248.199 271.685L246.633 273.818H248.175ZM249.294 273.818V274.124C249.294 274.156 249.284 274.183 249.264 274.205C249.246 274.227 249.217 274.238 249.177 274.238H248.643V275.369H248.175V274.238H246.267C246.227 274.238 246.192 274.227 246.162 274.205C246.134 274.181 246.116 274.152 246.108 274.118L246.054 273.845L248.145 271.07H248.643V273.818H249.294Z" fill="white"/>
<path d="M296.167 272.693C296.391 272.645 296.597 272.621 296.785 272.621C297.009 272.621 297.207 272.654 297.379 272.72C297.551 272.786 297.694 272.877 297.808 272.993C297.924 273.109 298.011 273.246 298.069 273.404C298.129 273.562 298.159 273.734 298.159 273.92C298.159 274.148 298.119 274.354 298.039 274.538C297.961 274.722 297.852 274.88 297.712 275.012C297.574 275.142 297.411 275.242 297.223 275.312C297.035 275.382 296.832 275.417 296.614 275.417C296.488 275.417 296.367 275.404 296.251 275.378C296.135 275.354 296.026 275.321 295.924 275.279C295.824 275.237 295.731 275.189 295.645 275.135C295.559 275.081 295.483 275.024 295.417 274.964L295.582 274.736C295.618 274.684 295.665 274.658 295.723 274.658C295.763 274.658 295.808 274.674 295.858 274.706C295.908 274.736 295.969 274.77 296.041 274.808C296.113 274.846 296.197 274.881 296.293 274.913C296.391 274.943 296.507 274.958 296.641 274.958C296.791 274.958 296.926 274.934 297.046 274.886C297.166 274.838 297.269 274.77 297.355 274.682C297.441 274.592 297.507 274.485 297.553 274.361C297.599 274.237 297.622 274.098 297.622 273.944C297.622 273.81 297.602 273.689 297.562 273.581C297.524 273.473 297.465 273.381 297.385 273.305C297.307 273.229 297.209 273.17 297.091 273.128C296.973 273.086 296.835 273.065 296.677 273.065C296.569 273.065 296.456 273.074 296.338 273.092C296.222 273.11 296.103 273.139 295.981 273.179L295.645 273.08L295.99 271.07H298.027V271.304C298.027 271.38 298.003 271.443 297.955 271.493C297.909 271.541 297.829 271.565 297.715 271.565H296.365L296.167 272.693Z" fill="white"/>
<path d="M345.89 274.973C346.034 274.973 346.164 274.95 346.28 274.904C346.398 274.858 346.498 274.794 346.58 274.712C346.664 274.63 346.728 274.533 346.772 274.421C346.818 274.309 346.841 274.187 346.841 274.055C346.841 273.915 346.819 273.789 346.775 273.677C346.731 273.563 346.668 273.467 346.586 273.389C346.506 273.309 346.41 273.248 346.298 273.206C346.186 273.164 346.063 273.143 345.929 273.143C345.785 273.143 345.655 273.168 345.539 273.218C345.423 273.266 345.324 273.332 345.242 273.416C345.162 273.498 345.1 273.594 345.056 273.704C345.014 273.812 344.993 273.925 344.993 274.043C344.993 274.181 345.013 274.307 345.053 274.421C345.093 274.535 345.151 274.633 345.227 274.715C345.305 274.797 345.399 274.861 345.509 274.907C345.621 274.951 345.748 274.973 345.89 274.973ZM345.578 272.681C345.54 272.729 345.503 272.776 345.467 272.822C345.433 272.866 345.4 272.91 345.368 272.954C345.47 272.884 345.582 272.83 345.704 272.792C345.826 272.754 345.959 272.735 346.103 272.735C346.277 272.735 346.441 272.764 346.595 272.822C346.749 272.878 346.883 272.961 346.997 273.071C347.113 273.179 347.205 273.313 347.273 273.473C347.341 273.631 347.375 273.812 347.375 274.016C347.375 274.214 347.339 274.398 347.267 274.568C347.195 274.738 347.094 274.886 346.964 275.012C346.836 275.138 346.681 275.237 346.499 275.309C346.319 275.381 346.12 275.417 345.902 275.417C345.686 275.417 345.49 275.383 345.314 275.315C345.138 275.245 344.988 275.147 344.864 275.021C344.742 274.893 344.647 274.739 344.579 274.559C344.513 274.377 344.48 274.174 344.48 273.95C344.48 273.762 344.521 273.562 344.603 273.35C344.687 273.136 344.82 272.908 345.002 272.666L346.094 271.199C346.122 271.163 346.16 271.133 346.208 271.109C346.258 271.083 346.315 271.07 346.379 271.07H346.853L345.578 272.681Z" fill="white"/>
<path d="M396.495 271.07V271.31C396.495 271.378 396.487 271.434 396.471 271.478C396.457 271.522 396.443 271.559 396.429 271.589L394.647 275.18C394.621 275.232 394.585 275.277 394.539 275.315C394.493 275.351 394.432 275.369 394.356 275.369H393.972L395.778 271.823C395.804 271.773 395.831 271.727 395.859 271.685C395.887 271.643 395.917 271.603 395.949 271.565H393.705C393.671 271.565 393.641 271.552 393.615 271.526C393.589 271.498 393.576 271.467 393.576 271.433V271.07H396.495Z" fill="white"/>
<path d="M31.8665 223.81V224.218H29.5625V223.81H30.4835V220.879C30.4835 220.791 30.4865 220.702 30.4925 220.612L29.7275 221.269C29.7015 221.291 29.6755 221.305 29.6495 221.311C29.6235 221.315 29.5995 221.315 29.5775 221.311C29.5555 221.307 29.5345 221.299 29.5145 221.287C29.4965 221.275 29.4825 221.262 29.4725 221.248L29.3045 221.017L30.5855 219.91H31.0205V223.81H31.8665ZM35.593 222.07C35.593 222.446 35.552 222.772 35.47 223.048C35.39 223.322 35.28 223.549 35.14 223.729C35 223.909 34.834 224.043 34.642 224.131C34.452 224.219 34.248 224.263 34.03 224.263C33.81 224.263 33.605 224.219 33.415 224.131C33.227 224.043 33.063 223.909 32.923 223.729C32.783 223.549 32.673 223.322 32.593 223.048C32.513 222.772 32.473 222.446 32.473 222.07C32.473 221.694 32.513 221.368 32.593 221.092C32.673 220.816 32.783 220.588 32.923 220.408C33.063 220.226 33.227 220.091 33.415 220.003C33.605 219.915 33.81 219.871 34.03 219.871C34.248 219.871 34.452 219.915 34.642 220.003C34.834 220.091 35 220.226 35.14 220.408C35.28 220.588 35.39 220.816 35.47 221.092C35.552 221.368 35.593 221.694 35.593 222.07ZM35.038 222.07C35.038 221.742 35.01 221.467 34.954 221.245C34.9 221.021 34.826 220.841 34.732 220.705C34.64 220.569 34.533 220.472 34.411 220.414C34.289 220.354 34.162 220.324 34.03 220.324C33.898 220.324 33.771 220.354 33.649 220.414C33.527 220.472 33.42 220.569 33.328 220.705C33.236 220.841 33.162 221.021 33.106 221.245C33.052 221.467 33.025 221.742 33.025 222.07C33.025 222.398 33.052 222.673 33.106 222.895C33.162 223.117 33.236 223.296 33.328 223.432C33.42 223.568 33.527 223.666 33.649 223.726C33.771 223.784 33.898 223.813 34.03 223.813C34.162 223.813 34.289 223.784 34.411 223.726C34.533 223.666 34.64 223.568 34.732 223.432C34.826 223.296 34.9 223.117 34.954 222.895C35.01 222.673 35.038 222.398 35.038 222.07Z" fill="white"/>
<path d="M31.7735 201.415C31.8315 201.415 31.8775 201.432 31.9115 201.466C31.9455 201.5 31.9625 201.544 31.9625 201.598V201.922H29.0945V201.739C29.0945 201.701 29.1025 201.662 29.1185 201.622C29.1345 201.582 29.1595 201.545 29.1935 201.511L30.5705 200.128C30.6845 200.012 30.7885 199.901 30.8825 199.795C30.9765 199.687 31.0565 199.579 31.1225 199.471C31.1885 199.363 31.2395 199.254 31.2755 199.144C31.3115 199.032 31.3295 198.913 31.3295 198.787C31.3295 198.661 31.3095 198.551 31.2695 198.457C31.2295 198.361 31.1745 198.282 31.1045 198.22C31.0365 198.158 30.9555 198.112 30.8615 198.082C30.7675 198.05 30.6665 198.034 30.5585 198.034C30.4485 198.034 30.3475 198.05 30.2555 198.082C30.1635 198.114 30.0815 198.159 30.0095 198.217C29.9395 198.273 29.8805 198.34 29.8325 198.418C29.7845 198.496 29.7505 198.582 29.7305 198.676C29.7065 198.746 29.6735 198.793 29.6315 198.817C29.5915 198.839 29.5345 198.845 29.4605 198.835L29.1815 198.787C29.2095 198.591 29.2635 198.418 29.3435 198.268C29.4255 198.116 29.5275 197.989 29.6495 197.887C29.7735 197.785 29.9145 197.708 30.0725 197.656C30.2305 197.602 30.4015 197.575 30.5855 197.575C30.7675 197.575 30.9375 197.602 31.0955 197.656C31.2535 197.71 31.3905 197.789 31.5065 197.893C31.6225 197.995 31.7135 198.12 31.7795 198.268C31.8455 198.416 31.8785 198.584 31.8785 198.772C31.8785 198.932 31.8545 199.081 31.8065 199.219C31.7585 199.355 31.6935 199.485 31.6115 199.609C31.5295 199.733 31.4345 199.854 31.3265 199.972C31.2205 200.09 31.1075 200.209 30.9875 200.329L29.8535 201.487C29.9335 201.465 30.0145 201.448 30.0965 201.436C30.1785 201.422 30.2575 201.415 30.3335 201.415H31.7735ZM35.593 199.774C35.593 200.15 35.552 200.476 35.47 200.752C35.39 201.026 35.28 201.253 35.14 201.433C35 201.613 34.834 201.747 34.642 201.835C34.452 201.923 34.248 201.967 34.03 201.967C33.81 201.967 33.605 201.923 33.415 201.835C33.227 201.747 33.063 201.613 32.923 201.433C32.783 201.253 32.673 201.026 32.593 200.752C32.513 200.476 32.473 200.15 32.473 199.774C32.473 199.398 32.513 199.072 32.593 198.796C32.673 198.52 32.783 198.292 32.923 198.112C33.063 197.93 33.227 197.795 33.415 197.707C33.605 197.619 33.81 197.575 34.03 197.575C34.248 197.575 34.452 197.619 34.642 197.707C34.834 197.795 35 197.93 35.14 198.112C35.28 198.292 35.39 198.52 35.47 198.796C35.552 199.072 35.593 199.398 35.593 199.774ZM35.038 199.774C35.038 199.446 35.01 199.171 34.954 198.949C34.9 198.725 34.826 198.545 34.732 198.409C34.64 198.273 34.533 198.176 34.411 198.118C34.289 198.058 34.162 198.028 34.03 198.028C33.898 198.028 33.771 198.058 33.649 198.118C33.527 198.176 33.42 198.273 33.328 198.409C33.236 198.545 33.162 198.725 33.106 198.949C33.052 199.171 33.025 199.446 33.025 199.774C33.025 200.102 33.052 200.377 33.106 200.599C33.162 200.821 33.236 201 33.328 201.136C33.42 201.272 33.527 201.37 33.649 201.43C33.771 201.488 33.898 201.517 34.03 201.517C34.162 201.517 34.289 201.488 34.411 201.43C34.533 201.37 34.64 201.272 34.732 201.136C34.826 201 34.9 200.821 34.954 200.599C35.01 200.377 35.038 200.102 35.038 199.774Z" fill="white"/>
<path d="M29.2025 176.49C29.2305 176.294 29.2845 176.121 29.3645 175.971C29.4445 175.819 29.5455 175.692 29.6675 175.59C29.7915 175.488 29.9325 175.411 30.0905 175.359C30.2505 175.305 30.4225 175.278 30.6065 175.278C30.7885 175.278 30.9565 175.304 31.1105 175.356C31.2645 175.408 31.3965 175.482 31.5065 175.578C31.6185 175.674 31.7055 175.79 31.7675 175.926C31.8295 176.062 31.8605 176.213 31.8605 176.379C31.8605 176.515 31.8425 176.637 31.8065 176.745C31.7725 176.851 31.7225 176.944 31.6565 177.024C31.5925 177.104 31.5145 177.172 31.4225 177.228C31.3305 177.284 31.2275 177.33 31.1135 177.366C31.3935 177.438 31.6035 177.562 31.7435 177.738C31.8855 177.912 31.9565 178.13 31.9565 178.392C31.9565 178.59 31.9185 178.768 31.8425 178.926C31.7685 179.084 31.6665 179.219 31.5365 179.331C31.4065 179.441 31.2545 179.526 31.0805 179.586C30.9085 179.644 30.7235 179.673 30.5255 179.673C30.2975 179.673 30.1025 179.645 29.9405 179.589C29.7785 179.531 29.6415 179.452 29.5295 179.352C29.4175 179.252 29.3255 179.134 29.2535 178.998C29.1815 178.86 29.1205 178.711 29.0705 178.551L29.3015 178.455C29.3615 178.429 29.4195 178.422 29.4755 178.434C29.5335 178.446 29.5755 178.479 29.6015 178.533C29.6275 178.589 29.6595 178.656 29.6975 178.734C29.7375 178.812 29.7915 178.887 29.8595 178.959C29.9275 179.031 30.0135 179.092 30.1175 179.142C30.2235 179.192 30.3575 179.217 30.5195 179.217C30.6695 179.217 30.8005 179.193 30.9125 179.145C31.0265 179.095 31.1205 179.031 31.1945 178.953C31.2705 178.875 31.3275 178.788 31.3655 178.692C31.4035 178.596 31.4225 178.501 31.4225 178.407C31.4225 178.291 31.4075 178.185 31.3775 178.089C31.3475 177.993 31.2915 177.91 31.2095 177.84C31.1275 177.77 31.0145 177.715 30.8705 177.675C30.7285 177.635 30.5455 177.615 30.3215 177.615V177.228C30.5055 177.226 30.6615 177.206 30.7895 177.168C30.9195 177.13 31.0245 177.078 31.1045 177.012C31.1865 176.946 31.2455 176.867 31.2815 176.775C31.3195 176.683 31.3385 176.581 31.3385 176.469C31.3385 176.345 31.3185 176.237 31.2785 176.145C31.2405 176.053 31.1875 175.977 31.1195 175.917C31.0515 175.857 30.9705 175.812 30.8765 175.782C30.7845 175.752 30.6845 175.737 30.5765 175.737C30.4685 175.737 30.3675 175.753 30.2735 175.785C30.1815 175.817 30.0995 175.862 30.0275 175.92C29.9575 175.976 29.8985 176.043 29.8505 176.121C29.8025 176.199 29.7685 176.285 29.7485 176.379C29.7225 176.449 29.6895 176.496 29.6495 176.52C29.6115 176.542 29.5555 176.548 29.4815 176.538L29.2025 176.49ZM35.593 177.477C35.593 177.853 35.552 178.179 35.47 178.455C35.39 178.729 35.28 178.956 35.14 179.136C35 179.316 34.834 179.45 34.642 179.538C34.452 179.626 34.248 179.67 34.03 179.67C33.81 179.67 33.605 179.626 33.415 179.538C33.227 179.45 33.063 179.316 32.923 179.136C32.783 178.956 32.673 178.729 32.593 178.455C32.513 178.179 32.473 177.853 32.473 177.477C32.473 177.101 32.513 176.775 32.593 176.499C32.673 176.223 32.783 175.995 32.923 175.815C33.063 175.633 33.227 175.498 33.415 175.41C33.605 175.322 33.81 175.278 34.03 175.278C34.248 175.278 34.452 175.322 34.642 175.41C34.834 175.498 35 175.633 35.14 175.815C35.28 175.995 35.39 176.223 35.47 176.499C35.552 176.775 35.593 177.101 35.593 177.477ZM35.038 177.477C35.038 177.149 35.01 176.874 34.954 176.652C34.9 176.428 34.826 176.248 34.732 176.112C34.64 175.976 34.533 175.879 34.411 175.821C34.289 175.761 34.162 175.731 34.03 175.731C33.898 175.731 33.771 175.761 33.649 175.821C33.527 175.879 33.42 175.976 33.328 176.112C33.236 176.248 33.162 176.428 33.106 176.652C33.052 176.874 33.025 177.149 33.025 177.477C33.025 177.805 33.052 178.08 33.106 178.302C33.162 178.524 33.236 178.703 33.328 178.839C33.42 178.975 33.527 179.073 33.649 179.133C33.771 179.191 33.898 179.22 34.03 179.22C34.162 179.22 34.289 179.191 34.411 179.133C34.533 179.073 34.64 178.975 34.732 178.839C34.826 178.703 34.9 178.524 34.954 178.302C35.01 178.08 35.038 177.805 35.038 177.477Z" fill="white"/>
<path d="M31.0025 155.757V153.984C31.0025 153.932 31.0045 153.875 31.0085 153.813C31.0125 153.751 31.0185 153.688 31.0265 153.624L29.4605 155.757H31.0025ZM32.1215 155.757V156.063C32.1215 156.095 32.1115 156.122 32.0915 156.144C32.0735 156.166 32.0445 156.177 32.0045 156.177H31.4705V157.308H31.0025V156.177H29.0945C29.0545 156.177 29.0195 156.166 28.9895 156.144C28.9615 156.12 28.9435 156.091 28.9355 156.057L28.8815 155.784L30.9725 153.009H31.4705V155.757H32.1215ZM35.593 155.16C35.593 155.536 35.552 155.862 35.47 156.138C35.39 156.412 35.28 156.639 35.14 156.819C35 156.999 34.834 157.133 34.642 157.221C34.452 157.309 34.248 157.353 34.03 157.353C33.81 157.353 33.605 157.309 33.415 157.221C33.227 157.133 33.063 156.999 32.923 156.819C32.783 156.639 32.673 156.412 32.593 156.138C32.513 155.862 32.473 155.536 32.473 155.16C32.473 154.784 32.513 154.458 32.593 154.182C32.673 153.906 32.783 153.678 32.923 153.498C33.063 153.316 33.227 153.181 33.415 153.093C33.605 153.005 33.81 152.961 34.03 152.961C34.248 152.961 34.452 153.005 34.642 153.093C34.834 153.181 35 153.316 35.14 153.498C35.28 153.678 35.39 153.906 35.47 154.182C35.552 154.458 35.593 154.784 35.593 155.16ZM35.038 155.16C35.038 154.832 35.01 154.557 34.954 154.335C34.9 154.111 34.826 153.931 34.732 153.795C34.64 153.659 34.533 153.562 34.411 153.504C34.289 153.444 34.162 153.414 34.03 153.414C33.898 153.414 33.771 153.444 33.649 153.504C33.527 153.562 33.42 153.659 33.328 153.795C33.236 153.931 33.162 154.111 33.106 154.335C33.052 154.557 33.025 154.832 33.025 155.16C33.025 155.488 33.052 155.763 33.106 155.985C33.162 156.207 33.236 156.386 33.328 156.522C33.42 156.658 33.527 156.756 33.649 156.816C33.771 156.874 33.898 156.903 34.03 156.903C34.162 156.903 34.289 156.874 34.411 156.816C34.533 156.756 34.64 156.658 34.732 156.522C34.826 156.386 34.9 156.207 34.954 155.985C35.01 155.763 35.038 155.488 35.038 155.16Z" fill="white"/>
<path d="M29.8985 132.336C30.1225 132.288 30.3285 132.264 30.5165 132.264C30.7405 132.264 30.9385 132.297 31.1105 132.363C31.2825 132.429 31.4255 132.52 31.5395 132.636C31.6555 132.752 31.7425 132.889 31.8005 133.047C31.8605 133.205 31.8905 133.377 31.8905 133.563C31.8905 133.791 31.8505 133.997 31.7705 134.181C31.6925 134.365 31.5835 134.523 31.4435 134.655C31.3055 134.785 31.1425 134.885 30.9545 134.955C30.7665 135.025 30.5635 135.06 30.3455 135.06C30.2195 135.06 30.0985 135.047 29.9825 135.021C29.8665 134.997 29.7575 134.964 29.6555 134.922C29.5555 134.88 29.4625 134.832 29.3765 134.778C29.2905 134.724 29.2145 134.667 29.1485 134.607L29.3135 134.379C29.3495 134.327 29.3965 134.301 29.4545 134.301C29.4945 134.301 29.5395 134.317 29.5895 134.349C29.6395 134.379 29.7005 134.413 29.7725 134.451C29.8445 134.489 29.9285 134.524 30.0245 134.556C30.1225 134.586 30.2385 134.601 30.3725 134.601C30.5225 134.601 30.6575 134.577 30.7775 134.529C30.8975 134.481 31.0005 134.413 31.0865 134.325C31.1725 134.235 31.2385 134.128 31.2845 134.004C31.3305 133.88 31.3535 133.741 31.3535 133.587C31.3535 133.453 31.3335 133.332 31.2935 133.224C31.2555 133.116 31.1965 133.024 31.1165 132.948C31.0385 132.872 30.9405 132.813 30.8225 132.771C30.7045 132.729 30.5665 132.708 30.4085 132.708C30.3005 132.708 30.1875 132.717 30.0695 132.735C29.9535 132.753 29.8345 132.782 29.7125 132.822L29.3765 132.723L29.7215 130.713H31.7585V130.947C31.7585 131.023 31.7345 131.086 31.6865 131.136C31.6405 131.184 31.5605 131.208 31.4465 131.208H30.0965L29.8985 132.336ZM35.593 132.864C35.593 133.24 35.552 133.566 35.47 133.842C35.39 134.116 35.28 134.343 35.14 134.523C35 134.703 34.834 134.837 34.642 134.925C34.452 135.013 34.248 135.057 34.03 135.057C33.81 135.057 33.605 135.013 33.415 134.925C33.227 134.837 33.063 134.703 32.923 134.523C32.783 134.343 32.673 134.116 32.593 133.842C32.513 133.566 32.473 133.24 32.473 132.864C32.473 132.488 32.513 132.162 32.593 131.886C32.673 131.61 32.783 131.382 32.923 131.202C33.063 131.02 33.227 130.885 33.415 130.797C33.605 130.709 33.81 130.665 34.03 130.665C34.248 130.665 34.452 130.709 34.642 130.797C34.834 130.885 35 131.02 35.14 131.202C35.28 131.382 35.39 131.61 35.47 131.886C35.552 132.162 35.593 132.488 35.593 132.864ZM35.038 132.864C35.038 132.536 35.01 132.261 34.954 132.039C34.9 131.815 34.826 131.635 34.732 131.499C34.64 131.363 34.533 131.266 34.411 131.208C34.289 131.148 34.162 131.118 34.03 131.118C33.898 131.118 33.771 131.148 33.649 131.208C33.527 131.266 33.42 131.363 33.328 131.499C33.236 131.635 33.162 131.815 33.106 132.039C33.052 132.261 33.025 132.536 33.025 132.864C33.025 133.192 33.052 133.467 33.106 133.689C33.162 133.911 33.236 134.09 33.328 134.226C33.42 134.362 33.527 134.46 33.649 134.52C33.771 134.578 33.898 134.607 34.03 134.607C34.162 134.607 34.289 134.578 34.411 134.52C34.533 134.46 34.64 134.362 34.732 134.226C34.826 134.09 34.9 133.911 34.954 133.689C35.01 133.467 35.038 133.192 35.038 132.864Z" fill="white"/>
<path d="M30.5465 112.319C30.6905 112.319 30.8205 112.296 30.9365 112.25C31.0545 112.204 31.1545 112.14 31.2365 112.058C31.3205 111.976 31.3845 111.879 31.4285 111.767C31.4745 111.655 31.4975 111.533 31.4975 111.401C31.4975 111.261 31.4755 111.135 31.4315 111.023C31.3875 110.909 31.3245 110.813 31.2425 110.735C31.1625 110.655 31.0665 110.594 30.9545 110.552C30.8425 110.51 30.7195 110.489 30.5855 110.489C30.4415 110.489 30.3115 110.514 30.1955 110.564C30.0795 110.612 29.9805 110.678 29.8985 110.762C29.8185 110.844 29.7565 110.94 29.7125 111.05C29.6705 111.158 29.6495 111.271 29.6495 111.389C29.6495 111.527 29.6695 111.653 29.7095 111.767C29.7495 111.881 29.8075 111.979 29.8835 112.061C29.9615 112.143 30.0555 112.207 30.1655 112.253C30.2775 112.297 30.4045 112.319 30.5465 112.319ZM30.2345 110.027C30.1965 110.075 30.1595 110.122 30.1235 110.168C30.0895 110.212 30.0565 110.256 30.0245 110.3C30.1265 110.23 30.2385 110.176 30.3605 110.138C30.4825 110.1 30.6155 110.081 30.7595 110.081C30.9335 110.081 31.0975 110.11 31.2515 110.168C31.4055 110.224 31.5395 110.307 31.6535 110.417C31.7695 110.525 31.8615 110.659 31.9295 110.819C31.9975 110.977 32.0315 111.158 32.0315 111.362C32.0315 111.56 31.9955 111.744 31.9235 111.914C31.8515 112.084 31.7505 112.232 31.6205 112.358C31.4925 112.484 31.3375 112.583 31.1555 112.655C30.9755 112.727 30.7765 112.763 30.5585 112.763C30.3425 112.763 30.1465 112.729 29.9705 112.661C29.7945 112.591 29.6445 112.493 29.5205 112.367C29.3985 112.239 29.3035 112.085 29.2355 111.905C29.1695 111.723 29.1365 111.52 29.1365 111.296C29.1365 111.108 29.1775 110.908 29.2595 110.696C29.3435 110.482 29.4765 110.254 29.6585 110.012L30.7505 108.545C30.7785 108.509 30.8165 108.479 30.8645 108.455C30.9145 108.429 30.9715 108.416 31.0355 108.416H31.5095L30.2345 110.027ZM35.593 110.567C35.593 110.943 35.552 111.269 35.47 111.545C35.39 111.819 35.28 112.046 35.14 112.226C35 112.406 34.834 112.54 34.642 112.628C34.452 112.716 34.248 112.76 34.03 112.76C33.81 112.76 33.605 112.716 33.415 112.628C33.227 112.54 33.063 112.406 32.923 112.226C32.783 112.046 32.673 111.819 32.593 111.545C32.513 111.269 32.473 110.943 32.473 110.567C32.473 110.191 32.513 109.865 32.593 109.589C32.673 109.313 32.783 109.085 32.923 108.905C33.063 108.723 33.227 108.588 33.415 108.5C33.605 108.412 33.81 108.368 34.03 108.368C34.248 108.368 34.452 108.412 34.642 108.5C34.834 108.588 35 108.723 35.14 108.905C35.28 109.085 35.39 109.313 35.47 109.589C35.552 109.865 35.593 110.191 35.593 110.567ZM35.038 110.567C35.038 110.239 35.01 109.964 34.954 109.742C34.9 109.518 34.826 109.338 34.732 109.202C34.64 109.066 34.533 108.969 34.411 108.911C34.289 108.851 34.162 108.821 34.03 108.821C33.898 108.821 33.771 108.851 33.649 108.911C33.527 108.969 33.42 109.066 33.328 109.202C33.236 109.338 33.162 109.518 33.106 109.742C33.052 109.964 33.025 110.239 33.025 110.567C33.025 110.895 33.052 111.17 33.106 111.392C33.162 111.614 33.236 111.793 33.328 111.929C33.42 112.065 33.527 112.163 33.649 112.223C33.771 112.281 33.898 112.31 34.03 112.31C34.162 112.31 34.289 112.281 34.411 112.223C34.533 112.163 34.64 112.065 34.732 111.929C34.826 111.793 34.9 111.614 34.954 111.392C35.01 111.17 35.038 110.895 35.038 110.567Z" fill="white"/>
<path d="M32.0555 86.1196V86.3596C32.0555 86.4276 32.0475 86.4836 32.0315 86.5276C32.0175 86.5716 32.0035 86.6086 31.9895 86.6386L30.2075 90.2296C30.1815 90.2816 30.1455 90.3266 30.0995 90.3646C30.0535 90.4006 29.9925 90.4186 29.9165 90.4186H29.5325L31.3385 86.8726C31.3645 86.8226 31.3915 86.7766 31.4195 86.7346C31.4475 86.6926 31.4775 86.6526 31.5095 86.6146H29.2655C29.2315 86.6146 29.2015 86.6016 29.1755 86.5756C29.1495 86.5476 29.1365 86.5166 29.1365 86.4826V86.1196H32.0555ZM35.593 88.2706C35.593 88.6466 35.552 88.9726 35.47 89.2486C35.39 89.5226 35.28 89.7496 35.14 89.9296C35 90.1096 34.834 90.2436 34.642 90.3316C34.452 90.4196 34.248 90.4636 34.03 90.4636C33.81 90.4636 33.605 90.4196 33.415 90.3316C33.227 90.2436 33.063 90.1096 32.923 89.9296C32.783 89.7496 32.673 89.5226 32.593 89.2486C32.513 88.9726 32.473 88.6466 32.473 88.2706C32.473 87.8946 32.513 87.5686 32.593 87.2926C32.673 87.0166 32.783 86.7886 32.923 86.6086C33.063 86.4266 33.227 86.2916 33.415 86.2036C33.605 86.1156 33.81 86.0716 34.03 86.0716C34.248 86.0716 34.452 86.1156 34.642 86.2036C34.834 86.2916 35 86.4266 35.14 86.6086C35.28 86.7886 35.39 87.0166 35.47 87.2926C35.552 87.5686 35.593 87.8946 35.593 88.2706ZM35.038 88.2706C35.038 87.9426 35.01 87.6676 34.954 87.4456C34.9 87.2216 34.826 87.0416 34.732 86.9056C34.64 86.7696 34.533 86.6726 34.411 86.6146C34.289 86.5546 34.162 86.5246 34.03 86.5246C33.898 86.5246 33.771 86.5546 33.649 86.6146C33.527 86.6726 33.42 86.7696 33.328 86.9056C33.236 87.0416 33.162 87.2216 33.106 87.4456C33.052 87.6676 33.025 87.9426 33.025 88.2706C33.025 88.5986 33.052 88.8736 33.106 89.0956C33.162 89.3176 33.236 89.4966 33.328 89.6326C33.42 89.7686 33.527 89.8666 33.649 89.9266C33.771 89.9846 33.898 90.0136 34.03 90.0136C34.162 90.0136 34.289 89.9846 34.411 89.9266C34.533 89.8666 34.64 89.7686 34.732 89.6326C34.826 89.4966 34.9 89.3176 34.954 89.0956C35.01 88.8736 35.038 88.5986 35.038 88.2706Z" fill="white"/>
<path d="M30.5525 67.7439C30.6925 67.7439 30.8175 67.7249 30.9275 67.6869C31.0395 67.6469 31.1335 67.5919 31.2095 67.5219C31.2875 67.4499 31.3465 67.3649 31.3865 67.2669C31.4285 67.1669 31.4495 67.0569 31.4495 66.9369C31.4495 66.7889 31.4245 66.6629 31.3745 66.5589C31.3265 66.4529 31.2605 66.3669 31.1765 66.3009C31.0945 66.2349 30.9995 66.1869 30.8915 66.1569C30.7835 66.1249 30.6705 66.1089 30.5525 66.1089C30.4345 66.1089 30.3215 66.1249 30.2135 66.1569C30.1055 66.1869 30.0095 66.2349 29.9255 66.3009C29.8435 66.3669 29.7775 66.4529 29.7275 66.5589C29.6795 66.6629 29.6555 66.7889 29.6555 66.9369C29.6555 67.0569 29.6755 67.1669 29.7155 67.2669C29.7575 67.3649 29.8165 67.4499 29.8925 67.5219C29.9705 67.5919 30.0645 67.6469 30.1745 67.6869C30.2865 67.7249 30.4125 67.7439 30.5525 67.7439ZM30.5525 64.1889C30.4245 64.1889 30.3115 64.2079 30.2135 64.2459C30.1175 64.2839 30.0365 64.3359 29.9705 64.4019C29.9065 64.4679 29.8575 64.5449 29.8235 64.6329C29.7915 64.7209 29.7755 64.8149 29.7755 64.9149C29.7755 65.0129 29.7895 65.1079 29.8175 65.1999C29.8455 65.2919 29.8905 65.3739 29.9525 65.4459C30.0145 65.5159 30.0945 65.5729 30.1925 65.6169C30.2925 65.6589 30.4125 65.6799 30.5525 65.6799C30.6925 65.6799 30.8115 65.6589 30.9095 65.6169C31.0095 65.5729 31.0905 65.5159 31.1525 65.4459C31.2145 65.3739 31.2595 65.2919 31.2875 65.1999C31.3155 65.1079 31.3295 65.0129 31.3295 64.9149C31.3295 64.8149 31.3125 64.7209 31.2785 64.6329C31.2465 64.5449 31.1975 64.4679 31.1315 64.4019C31.0675 64.3359 30.9865 64.2839 30.8885 64.2459C30.7925 64.2079 30.6805 64.1889 30.5525 64.1889ZM31.1675 65.8809C31.4355 65.9569 31.6415 66.0839 31.7855 66.2619C31.9295 66.4399 32.0015 66.6679 32.0015 66.9459C32.0015 67.1339 31.9655 67.3039 31.8935 67.4559C31.8235 67.6059 31.7245 67.7339 31.5965 67.8399C31.4705 67.9459 31.3185 68.0279 31.1405 68.0859C30.9625 68.1419 30.7665 68.1699 30.5525 68.1699C30.3385 68.1699 30.1425 68.1419 29.9645 68.0859C29.7865 68.0279 29.6335 67.9459 29.5055 67.8399C29.3775 67.7339 29.2785 67.6059 29.2085 67.4559C29.1385 67.3039 29.1035 67.1339 29.1035 66.9459C29.1035 66.6679 29.1755 66.4399 29.3195 66.2619C29.4635 66.0839 29.6695 65.9569 29.9375 65.8809C29.7115 65.7969 29.5405 65.6719 29.4245 65.5059C29.3105 65.3379 29.2535 65.1379 29.2535 64.9059C29.2535 64.7479 29.2845 64.5999 29.3465 64.4619C29.4085 64.3239 29.4965 64.2039 29.6105 64.1019C29.7245 63.9999 29.8605 63.9199 30.0185 63.8619C30.1785 63.8039 30.3565 63.7749 30.5525 63.7749C30.7465 63.7749 30.9235 63.8039 31.0835 63.8619C31.2435 63.9199 31.3805 63.9999 31.4945 64.1019C31.6085 64.2039 31.6965 64.3239 31.7585 64.4619C31.8205 64.5999 31.8515 64.7479 31.8515 64.9059C31.8515 65.1379 31.7935 65.3379 31.6775 65.5059C31.5635 65.6719 31.3935 65.7969 31.1675 65.8809ZM35.593 65.9739C35.593 66.3499 35.552 66.6759 35.47 66.9519C35.39 67.2259 35.28 67.4529 35.14 67.6329C35 67.8129 34.834 67.9469 34.642 68.0349C34.452 68.1229 34.248 68.1669 34.03 68.1669C33.81 68.1669 33.605 68.1229 33.415 68.0349C33.227 67.9469 33.063 67.8129 32.923 67.6329C32.783 67.4529 32.673 67.2259 32.593 66.9519C32.513 66.6759 32.473 66.3499 32.473 65.9739C32.473 65.5979 32.513 65.2719 32.593 64.9959C32.673 64.7199 32.783 64.4919 32.923 64.3119C33.063 64.1299 33.227 63.9949 33.415 63.9069C33.605 63.8189 33.81 63.7749 34.03 63.7749C34.248 63.7749 34.452 63.8189 34.642 63.9069C34.834 63.9949 35 64.1299 35.14 64.3119C35.28 64.4919 35.39 64.7199 35.47 64.9959C35.552 65.2719 35.593 65.5979 35.593 65.9739ZM35.038 65.9739C35.038 65.6459 35.01 65.3709 34.954 65.1489C34.9 64.9249 34.826 64.7449 34.732 64.6089C34.64 64.4729 34.533 64.3759 34.411 64.3179C34.289 64.2579 34.162 64.2279 34.03 64.2279C33.898 64.2279 33.771 64.2579 33.649 64.3179C33.527 64.3759 33.42 64.4729 33.328 64.6089C33.236 64.7449 33.162 64.9249 33.106 65.1489C33.052 65.3709 33.025 65.6459 33.025 65.9739C33.025 66.3019 33.052 66.5769 33.106 66.7989C33.162 67.0209 33.236 67.1999 33.328 67.3359C33.42 67.4719 33.527 67.5699 33.649 67.6299C33.771 67.6879 33.898 67.7169 34.03 67.7169C34.162 67.7169 34.289 67.6879 34.411 67.6299C34.533 67.5699 34.64 67.4719 34.732 67.3359C34.826 67.1999 34.9 67.0209 34.954 66.7989C35.01 66.5769 35.038 66.3019 35.038 65.9739Z" fill="white"/>
<path d="M29.6615 42.7892C29.6615 42.9252 29.6805 43.0472 29.7185 43.1552C29.7585 43.2612 29.8145 43.3512 29.8865 43.4252C29.9605 43.4992 30.0495 43.5552 30.1535 43.5932C30.2595 43.6312 30.3775 43.6502 30.5075 43.6502C30.6515 43.6502 30.7785 43.6272 30.8885 43.5812C31.0005 43.5332 31.0945 43.4702 31.1705 43.3922C31.2465 43.3142 31.3045 43.2242 31.3445 43.1222C31.3845 43.0202 31.4045 42.9142 31.4045 42.8042C31.4045 42.6702 31.3825 42.5492 31.3385 42.4412C31.2965 42.3312 31.2375 42.2382 31.1615 42.1622C31.0855 42.0862 30.9945 42.0282 30.8885 41.9882C30.7845 41.9462 30.6695 41.9252 30.5435 41.9252C30.4115 41.9252 30.2915 41.9472 30.1835 41.9912C30.0755 42.0332 29.9825 42.0922 29.9045 42.1682C29.8265 42.2442 29.7665 42.3352 29.7245 42.4412C29.6825 42.5472 29.6615 42.6632 29.6615 42.7892ZM30.9095 44.1122C30.9535 44.0542 30.9945 43.9992 31.0325 43.9472C31.0705 43.8952 31.1065 43.8432 31.1405 43.7912C31.0305 43.8792 30.9065 43.9462 30.7685 43.9922C30.6305 44.0382 30.4845 44.0612 30.3305 44.0612C30.1685 44.0612 30.0145 44.0342 29.8685 43.9802C29.7245 43.9262 29.5975 43.8472 29.4875 43.7432C29.3775 43.6372 29.2895 43.5082 29.2235 43.3562C29.1595 43.2022 29.1275 43.0262 29.1275 42.8282C29.1275 42.6402 29.1625 42.4642 29.2325 42.3002C29.3025 42.1362 29.4005 41.9932 29.5265 41.8712C29.6525 41.7492 29.8025 41.6532 29.9765 41.5832C30.1505 41.5132 30.3415 41.4782 30.5495 41.4782C30.7555 41.4782 30.9425 41.5122 31.1105 41.5802C31.2785 41.6482 31.4225 41.7432 31.5425 41.8652C31.6625 41.9872 31.7545 42.1332 31.8185 42.3032C31.8845 42.4732 31.9175 42.6612 31.9175 42.8672C31.9175 42.9912 31.9055 43.1092 31.8815 43.2212C31.8595 43.3312 31.8265 43.4402 31.7825 43.5482C31.7405 43.6542 31.6885 43.7602 31.6265 43.8662C31.5645 43.9702 31.4945 44.0772 31.4165 44.1872L30.3695 45.6992C30.3435 45.7372 30.3065 45.7682 30.2585 45.7922C30.2105 45.8142 30.1555 45.8252 30.0935 45.8252H29.6015L30.9095 44.1122ZM35.593 43.6772C35.593 44.0532 35.552 44.3792 35.47 44.6552C35.39 44.9292 35.28 45.1562 35.14 45.3362C35 45.5162 34.834 45.6502 34.642 45.7382C34.452 45.8262 34.248 45.8702 34.03 45.8702C33.81 45.8702 33.605 45.8262 33.415 45.7382C33.227 45.6502 33.063 45.5162 32.923 45.3362C32.783 45.1562 32.673 44.9292 32.593 44.6552C32.513 44.3792 32.473 44.0532 32.473 43.6772C32.473 43.3012 32.513 42.9752 32.593 42.6992C32.673 42.4232 32.783 42.1952 32.923 42.0152C33.063 41.8332 33.227 41.6982 33.415 41.6102C33.605 41.5222 33.81 41.4782 34.03 41.4782C34.248 41.4782 34.452 41.5222 34.642 41.6102C34.834 41.6982 35 41.8332 35.14 42.0152C35.28 42.1952 35.39 42.4232 35.47 42.6992C35.552 42.9752 35.593 43.3012 35.593 43.6772ZM35.038 43.6772C35.038 43.3492 35.01 43.0742 34.954 42.8522C34.9 42.6282 34.826 42.4482 34.732 42.3122C34.64 42.1762 34.533 42.0792 34.411 42.0212C34.289 41.9612 34.162 41.9312 34.03 41.9312C33.898 41.9312 33.771 41.9612 33.649 42.0212C33.527 42.0792 33.42 42.1762 33.328 42.3122C33.236 42.4482 33.162 42.6282 33.106 42.8522C33.052 43.0742 33.025 43.3492 33.025 43.6772C33.025 44.0052 33.052 44.2802 33.106 44.5022C33.162 44.7242 33.236 44.9032 33.328 45.0392C33.42 45.1752 33.527 45.2732 33.649 45.3332C33.771 45.3912 33.898 45.4202 34.03 45.4202C34.162 45.4202 34.289 45.3912 34.411 45.3332C34.533 45.2732 34.64 45.1752 34.732 45.0392C34.826 44.9032 34.9 44.7242 34.954 44.5022C35.01 44.2802 35.038 44.0052 35.038 43.6772Z" fill="white"/>
<path d="M25.054 23.101V23.509H22.75V23.101H23.671V20.17C23.671 20.082 23.674 19.993 23.68 19.903L22.915 20.56C22.889 20.582 22.863 20.596 22.837 20.602C22.811 20.606 22.787 20.606 22.765 20.602C22.743 20.598 22.722 20.59 22.702 20.578C22.684 20.566 22.67 20.553 22.66 20.539L22.492 20.308L23.773 19.201H24.208V23.101H25.054ZM28.7805 21.361C28.7805 21.737 28.7395 22.063 28.6575 22.339C28.5775 22.613 28.4675 22.84 28.3275 23.02C28.1875 23.2 28.0215 23.334 27.8295 23.422C27.6395 23.51 27.4355 23.554 27.2175 23.554C26.9975 23.554 26.7925 23.51 26.6025 23.422C26.4145 23.334 26.2505 23.2 26.1105 23.02C25.9705 22.84 25.8605 22.613 25.7805 22.339C25.7005 22.063 25.6605 21.737 25.6605 21.361C25.6605 20.985 25.7005 20.659 25.7805 20.383C25.8605 20.107 25.9705 19.879 26.1105 19.699C26.2505 19.517 26.4145 19.382 26.6025 19.294C26.7925 19.206 26.9975 19.162 27.2175 19.162C27.4355 19.162 27.6395 19.206 27.8295 19.294C28.0215 19.382 28.1875 19.517 28.3275 19.699C28.4675 19.879 28.5775 20.107 28.6575 20.383C28.7395 20.659 28.7805 20.985 28.7805 21.361ZM28.2255 21.361C28.2255 21.033 28.1975 20.758 28.1415 20.536C28.0875 20.312 28.0135 20.132 27.9195 19.996C27.8275 19.86 27.7205 19.763 27.5985 19.705C27.4765 19.645 27.3495 19.615 27.2175 19.615C27.0855 19.615 26.9585 19.645 26.8365 19.705C26.7145 19.763 26.6075 19.86 26.5155 19.996C26.4235 20.132 26.3495 20.312 26.2935 20.536C26.2395 20.758 26.2125 21.033 26.2125 21.361C26.2125 21.689 26.2395 21.964 26.2935 22.186C26.3495 22.408 26.4235 22.587 26.5155 22.723C26.6075 22.859 26.7145 22.957 26.8365 23.017C26.9585 23.075 27.0855 23.104 27.2175 23.104C27.3495 23.104 27.4765 23.075 27.5985 23.017C27.7205 22.957 27.8275 22.859 27.9195 22.723C28.0135 22.587 28.0875 22.408 28.1415 22.186C28.1975 21.964 28.2255 21.689 28.2255 21.361ZM32.2609 21.361C32.2609 21.737 32.2199 22.063 32.1379 22.339C32.0579 22.613 31.9479 22.84 31.8079 23.02C31.6679 23.2 31.5019 23.334 31.3099 23.422C31.1199 23.51 30.9159 23.554 30.6979 23.554C30.4779 23.554 30.2729 23.51 30.0829 23.422C29.8949 23.334 29.7309 23.2 29.5909 23.02C29.4509 22.84 29.3409 22.613 29.2609 22.339C29.1809 22.063 29.1409 21.737 29.1409 21.361C29.1409 20.985 29.1809 20.659 29.2609 20.383C29.3409 20.107 29.4509 19.879 29.5909 19.699C29.7309 19.517 29.8949 19.382 30.0829 19.294C30.2729 19.206 30.4779 19.162 30.6979 19.162C30.9159 19.162 31.1199 19.206 31.3099 19.294C31.5019 19.382 31.6679 19.517 31.8079 19.699C31.9479 19.879 32.0579 20.107 32.1379 20.383C32.2199 20.659 32.2609 20.985 32.2609 21.361ZM31.7059 21.361C31.7059 21.033 31.6779 20.758 31.6219 20.536C31.5679 20.312 31.4939 20.132 31.3999 19.996C31.3079 19.86 31.2009 19.763 31.0789 19.705C30.9569 19.645 30.8299 19.615 30.6979 19.615C30.5659 19.615 30.4389 19.645 30.3169 19.705C30.1949 19.763 30.0879 19.86 29.9959 19.996C29.9039 20.132 29.8299 20.312 29.7739 20.536C29.7199 20.758 29.6929 21.033 29.6929 21.361C29.6929 21.689 29.7199 21.964 29.7739 22.186C29.8299 22.408 29.9039 22.587 29.9959 22.723C30.0879 22.859 30.1949 22.957 30.3169 23.017C30.4389 23.075 30.5659 23.104 30.6979 23.104C30.8299 23.104 30.9569 23.075 31.0789 23.017C31.2009 22.957 31.3079 22.859 31.3999 22.723C31.4939 22.587 31.5679 22.408 31.6219 22.186C31.6779 21.964 31.7059 21.689 31.7059 21.361Z" fill="white"/>
<path d="M53.6143 17V254.022H410.42" stroke="#8C88A2" stroke-width="0.25" stroke-miterlimit="10"/>
<path d="M102.671 261.461V34.8138" stroke="#3C3561" stroke-width="0.25" stroke-miterlimit="10"/>
<path d="M151.728 34.8138V261.461" stroke="#3C3561" stroke-width="0.25" stroke-miterlimit="10"/>
<path d="M200.804 34.8138V261.461" stroke="#3C3561" stroke-width="0.25" stroke-miterlimit="10"/>
<path d="M249.86 34.8138V261.461" stroke="#3C3561" stroke-width="0.25" stroke-miterlimit="10"/>
<path d="M298.917 34.8138V261.461" stroke="#3C3561" stroke-width="0.25" stroke-miterlimit="10"/>
<path d="M347.974 34.8138V261.461" stroke="#3C3561" stroke-width="0.25" stroke-miterlimit="10"/>
<path d="M397.03 34.8138V261.461" stroke="#3C3561" stroke-width="0.25" stroke-miterlimit="10"/>
<path style="mix-blend-mode:screen" d="M397.03 241.063H102.671V118.735L151.747 171.393L200.804 132.32L249.86 147.609L298.917 103.446L347.973 157.808L398.948 187.543L397.03 241.063Z" fill="url(#paint1_linear_0_1)"/>
<path d="M102.671 118.735L151.747 171.393L200.804 132.32L249.86 147.609L298.917 103.446L347.973 157.808L398.948 187.543" stroke="#CDAFFF" stroke-width="2" stroke-linecap="round" stroke-linejoin="round"/>
<path style="mix-blend-mode:color-dodge" d="M339.256 123.61C348.824 100.881 338.155 74.6994 315.426 65.1311C292.698 55.5629 266.516 66.2315 256.947 88.9602C247.379 111.689 258.048 137.871 280.777 147.439C303.505 157.007 329.687 146.339 339.256 123.61Z" fill="url(#paint2_radial_0_1)"/>
<path style="mix-blend-mode:color-dodge" d="M201.039 179.615C225.699 179.615 245.691 159.623 245.691 134.963C245.691 110.302 225.699 90.3108 201.039 90.3108C176.378 90.3108 156.387 110.302 156.387 134.963C156.387 159.623 176.378 179.615 201.039 179.615Z" fill="url(#paint3_radial_0_1)"/>
<path style="mix-blend-mode:color-dodge" d="M152.041 195.471C167.512 195.471 180.054 182.929 180.054 167.458C180.054 151.987 167.512 139.446 152.041 139.446C136.57 139.446 124.028 151.987 124.028 167.458C124.028 182.929 136.57 195.471 152.041 195.471Z" fill="url(#paint4_radial_0_1)"/>
<path style="mix-blend-mode:color-dodge" d="M348.952 183.295C362.888 183.295 374.185 171.998 374.185 158.062C374.185 144.126 362.888 132.829 348.952 132.829C335.016 132.829 323.719 144.126 323.719 158.062C323.719 171.998 335.016 183.295 348.952 183.295Z" fill="url(#paint5_radial_0_1)"/>
<defs>
<linearGradient id="paint0_linear_0_1" x1="427.552" y1="300" x2="-11.4456" y2="14.6057" gradientUnits="userSpaceOnUse">
<stop stop-color="#161680"/>
<stop offset="1" stop-color="#262642"/>
</linearGradient>
<linearGradient id="paint1_linear_0_1" x1="250.819" y1="241.063" x2="250.819" y2="103.446" gradientUnits="userSpaceOnUse">
<stop offset="0.08"/>
<stop offset="0.25" stop-color="#010104"/>
<stop offset="0.4" stop-color="#06030E"/>
<stop offset="0.54" stop-color="#0E0620"/>
<stop offset="0.68" stop-color="#180B3A"/>
<stop offset="0.81" stop-color="#26115B"/>
<stop offset="0.94" stop-color="#371983"/>
<stop offset="1" stop-color="#401D98"/>
</linearGradient>
<radialGradient id="paint2_radial_0_1" cx="0" cy="0" r="1" gradientUnits="userSpaceOnUse" gradientTransform="translate(298.088 106.32) scale(44.6521)">
<stop stop-color="#CACACA"/>
<stop offset="0.03" stop-color="#BCBCBC"/>
<stop offset="0.16" stop-color="#8A8A8A"/>
<stop offset="0.3" stop-color="#606060"/>
<stop offset="0.43" stop-color="#3D3D3D"/>
<stop offset="0.57" stop-color="#222222"/>
<stop offset="0.71" stop-color="#0F0F0F"/>
<stop offset="0.85" stop-color="#040404"/>
<stop offset="1"/>
</radialGradient>
<radialGradient id="paint3_radial_0_1" cx="0" cy="0" r="1" gradientUnits="userSpaceOnUse" gradientTransform="translate(201.039 134.963) scale(44.652 44.652)">
<stop stop-color="#CACACA"/>
<stop offset="0.03" stop-color="#BCBCBC"/>
<stop offset="0.16" stop-color="#8A8A8A"/>
<stop offset="0.3" stop-color="#606060"/>
<stop offset="0.43" stop-color="#3D3D3D"/>
<stop offset="0.57" stop-color="#222222"/>
<stop offset="0.71" stop-color="#0F0F0F"/>
<stop offset="0.85" stop-color="#040404"/>
<stop offset="1"/>
</radialGradient>
<radialGradient id="paint4_radial_0_1" cx="0" cy="0" r="1" gradientUnits="userSpaceOnUse" gradientTransform="translate(152.041 167.458) scale(28.0127)">
<stop stop-color="#CACACA"/>
<stop offset="0.03" stop-color="#BCBCBC"/>
<stop offset="0.16" stop-color="#8A8A8A"/>
<stop offset="0.3" stop-color="#606060"/>
<stop offset="0.43" stop-color="#3D3D3D"/>
<stop offset="0.57" stop-color="#222222"/>
<stop offset="0.71" stop-color="#0F0F0F"/>
<stop offset="0.85" stop-color="#040404"/>
<stop offset="1"/>
</radialGradient>
<radialGradient id="paint5_radial_0_1" cx="0" cy="0" r="1" gradientUnits="userSpaceOnUse" gradientTransform="translate(348.952 158.062) scale(25.233)">
<stop stop-color="#CACACA"/>
<stop offset="0.03" stop-color="#BCBCBC"/>
<stop offset="0.16" stop-color="#8A8A8A"/>
<stop offset="0.3" stop-color="#606060"/>
<stop offset="0.43" stop-color="#3D3D3D"/>
<stop offset="0.57" stop-color="#222222"/>
<stop offset="0.71" stop-color="#0F0F0F"/>
<stop offset="0.85" stop-color="#040404"/>
<stop offset="1"/>
</radialGradient>
</defs>
</svg>
