<svg width="412" height="379" viewBox="0 0 412 379" fill="none" xmlns="http://www.w3.org/2000/svg">
<g filter="url(#filter0_f_2_2158)">
<rect x="70" y="156" width="272" height="153" fill="url(#paint0_linear_2_2158)"/>
</g>
<g filter="url(#filter1_d_2_2158)">
<rect x="50" y="93" width="314" height="238" rx="10" fill="white"/>
</g>
<path d="M74.394 121.156C73.7787 121.156 73.2067 121.043 72.678 120.818C72.158 120.593 71.7073 120.281 71.326 119.882C70.9533 119.475 70.6803 119.002 70.507 118.465L71.976 117.828C72.21 118.383 72.548 118.82 72.99 119.141C73.432 119.453 73.9303 119.609 74.485 119.609C74.797 119.609 75.0657 119.561 75.291 119.466C75.525 119.362 75.7027 119.223 75.824 119.05C75.954 118.877 76.019 118.669 76.019 118.426C76.019 118.14 75.9323 117.906 75.759 117.724C75.5943 117.533 75.343 117.386 75.005 117.282L73.146 116.684C72.392 116.45 71.8243 116.099 71.443 115.631C71.0617 115.163 70.871 114.613 70.871 113.98C70.871 113.425 71.0053 112.936 71.274 112.511C71.5513 112.086 71.9327 111.757 72.418 111.523C72.912 111.28 73.4753 111.159 74.108 111.159C74.6887 111.159 75.2217 111.263 75.707 111.471C76.1923 111.67 76.6083 111.952 76.955 112.316C77.3103 112.671 77.5747 113.092 77.748 113.577L76.292 114.227C76.1013 113.742 75.8153 113.369 75.434 113.109C75.0527 112.84 74.6107 112.706 74.108 112.706C73.8133 112.706 73.5533 112.758 73.328 112.862C73.1027 112.957 72.925 113.096 72.795 113.278C72.6737 113.451 72.613 113.659 72.613 113.902C72.613 114.171 72.6997 114.409 72.873 114.617C73.0463 114.816 73.3107 114.972 73.666 115.085L75.447 115.644C76.2183 115.895 76.7947 116.242 77.176 116.684C77.566 117.126 77.761 117.672 77.761 118.322C77.761 118.877 77.618 119.366 77.332 119.791C77.046 120.216 76.6517 120.549 76.149 120.792C75.6463 121.035 75.0613 121.156 74.394 121.156ZM81.2915 121.156C80.7975 121.156 80.3685 121.074 80.0045 120.909C79.6405 120.744 79.3588 120.51 79.1595 120.207C78.9602 119.895 78.8605 119.535 78.8605 119.128C78.8605 118.738 78.9472 118.391 79.1205 118.088C79.2938 117.776 79.5625 117.516 79.9265 117.308C80.2905 117.1 80.7498 116.953 81.3045 116.866L83.6185 116.489V117.789L81.6295 118.127C81.2915 118.188 81.0402 118.296 80.8755 118.452C80.7108 118.608 80.6285 118.812 80.6285 119.063C80.6285 119.306 80.7195 119.501 80.9015 119.648C81.0922 119.787 81.3262 119.856 81.6035 119.856C81.9588 119.856 82.2708 119.782 82.5395 119.635C82.8168 119.479 83.0292 119.267 83.1765 118.998C83.3325 118.729 83.4105 118.435 83.4105 118.114V116.294C83.4105 115.991 83.2892 115.739 83.0465 115.54C82.8125 115.332 82.5005 115.228 82.1105 115.228C81.7465 115.228 81.4215 115.328 81.1355 115.527C80.8582 115.718 80.6545 115.973 80.5245 116.294L79.1335 115.618C79.2722 115.245 79.4888 114.925 79.7835 114.656C80.0868 114.379 80.4422 114.162 80.8495 114.006C81.2568 113.85 81.6988 113.772 82.1755 113.772C82.7562 113.772 83.2675 113.88 83.7095 114.097C84.1515 114.305 84.4938 114.6 84.7365 114.981C84.9878 115.354 85.1135 115.791 85.1135 116.294V121H83.5015V119.791L83.8655 119.765C83.6835 120.068 83.4668 120.324 83.2155 120.532C82.9642 120.731 82.6782 120.887 82.3575 121C82.0368 121.104 81.6815 121.156 81.2915 121.156ZM86.6875 121V111.159H88.3905V121H86.6875ZM93.3169 121.156C92.5889 121.156 91.9519 120.991 91.4059 120.662C90.8599 120.333 90.4353 119.886 90.1319 119.323C89.8286 118.76 89.6769 118.136 89.6769 117.451C89.6769 116.74 89.8286 116.112 90.1319 115.566C90.4439 115.011 90.8643 114.574 91.3929 114.253C91.9303 113.932 92.5283 113.772 93.1869 113.772C93.7416 113.772 94.2269 113.863 94.6429 114.045C95.0676 114.227 95.4273 114.478 95.7219 114.799C96.0166 115.12 96.2419 115.488 96.3979 115.904C96.5539 116.311 96.6319 116.753 96.6319 117.23C96.6319 117.351 96.6233 117.477 96.6059 117.607C96.5973 117.737 96.5756 117.85 96.5409 117.945H91.0809V116.645H95.5789L94.7729 117.256C94.8509 116.857 94.8293 116.502 94.7079 116.19C94.5953 115.878 94.4046 115.631 94.1359 115.449C93.8759 115.267 93.5596 115.176 93.1869 115.176C92.8316 115.176 92.5153 115.267 92.2379 115.449C91.9606 115.622 91.7483 115.882 91.6009 116.229C91.4623 116.567 91.4103 116.979 91.4449 117.464C91.4103 117.897 91.4666 118.283 91.6139 118.621C91.7699 118.95 91.9953 119.206 92.2899 119.388C92.5933 119.57 92.9399 119.661 93.3299 119.661C93.7199 119.661 94.0493 119.579 94.3179 119.414C94.5953 119.249 94.8119 119.028 94.9679 118.751L96.3459 119.427C96.2073 119.765 95.9906 120.064 95.6959 120.324C95.4013 120.584 95.0503 120.788 94.6429 120.935C94.2443 121.082 93.8023 121.156 93.3169 121.156ZM100.376 121V111.315H103.977C104.636 111.315 105.217 111.436 105.719 111.679C106.231 111.913 106.629 112.26 106.915 112.719C107.201 113.17 107.344 113.72 107.344 114.37C107.344 115.037 107.184 115.605 106.863 116.073C106.551 116.541 106.127 116.888 105.589 117.113L107.812 121H105.81L103.431 116.749L104.575 117.425H102.144V121H100.376ZM102.144 115.865H104.003C104.324 115.865 104.601 115.804 104.835 115.683C105.069 115.553 105.251 115.375 105.381 115.15C105.511 114.925 105.576 114.665 105.576 114.37C105.576 114.067 105.511 113.807 105.381 113.59C105.251 113.365 105.069 113.191 104.835 113.07C104.601 112.94 104.324 112.875 104.003 112.875H102.144V115.865ZM111.789 121.156C111.061 121.156 110.424 120.991 109.878 120.662C109.332 120.333 108.907 119.886 108.604 119.323C108.3 118.76 108.149 118.136 108.149 117.451C108.149 116.74 108.3 116.112 108.604 115.566C108.916 115.011 109.336 114.574 109.865 114.253C110.402 113.932 111 113.772 111.659 113.772C112.213 113.772 112.699 113.863 113.115 114.045C113.539 114.227 113.899 114.478 114.194 114.799C114.488 115.12 114.714 115.488 114.87 115.904C115.026 116.311 115.104 116.753 115.104 117.23C115.104 117.351 115.095 117.477 115.078 117.607C115.069 117.737 115.047 117.85 115.013 117.945H109.553V116.645H114.051L113.245 117.256C113.323 116.857 113.301 116.502 113.18 116.19C113.067 115.878 112.876 115.631 112.608 115.449C112.348 115.267 112.031 115.176 111.659 115.176C111.303 115.176 110.987 115.267 110.71 115.449C110.432 115.622 110.22 115.882 110.073 116.229C109.934 116.567 109.882 116.979 109.917 117.464C109.882 117.897 109.938 118.283 110.086 118.621C110.242 118.95 110.467 119.206 110.762 119.388C111.065 119.57 111.412 119.661 111.802 119.661C112.192 119.661 112.521 119.579 112.79 119.414C113.067 119.249 113.284 119.028 113.44 118.751L114.818 119.427C114.679 119.765 114.462 120.064 114.168 120.324C113.873 120.584 113.522 120.788 113.115 120.935C112.716 121.082 112.274 121.156 111.789 121.156ZM116.395 123.6V113.928H117.994V115.332L117.838 114.981C118.08 114.6 118.41 114.305 118.826 114.097C119.242 113.88 119.723 113.772 120.269 113.772C120.936 113.772 121.538 113.937 122.076 114.266C122.613 114.595 123.038 115.037 123.35 115.592C123.67 116.147 123.831 116.771 123.831 117.464C123.831 118.149 123.675 118.773 123.363 119.336C123.051 119.899 122.626 120.346 122.089 120.675C121.551 120.996 120.94 121.156 120.256 121.156C119.744 121.156 119.272 121.056 118.839 120.857C118.414 120.649 118.076 120.354 117.825 119.973L118.098 119.635V123.6H116.395ZM120.061 119.596C120.451 119.596 120.797 119.505 121.101 119.323C121.404 119.141 121.638 118.89 121.803 118.569C121.976 118.248 122.063 117.88 122.063 117.464C122.063 117.048 121.976 116.684 121.803 116.372C121.638 116.051 121.404 115.8 121.101 115.618C120.797 115.427 120.451 115.332 120.061 115.332C119.688 115.332 119.35 115.423 119.047 115.605C118.752 115.787 118.518 116.043 118.345 116.372C118.18 116.693 118.098 117.057 118.098 117.464C118.098 117.88 118.18 118.248 118.345 118.569C118.518 118.89 118.752 119.141 119.047 119.323C119.35 119.505 119.688 119.596 120.061 119.596ZM128.587 121.156C127.894 121.156 127.261 120.996 126.689 120.675C126.126 120.354 125.675 119.917 125.337 119.362C125.008 118.807 124.843 118.175 124.843 117.464C124.843 116.753 125.008 116.121 125.337 115.566C125.675 115.011 126.126 114.574 126.689 114.253C127.252 113.932 127.885 113.772 128.587 113.772C129.28 113.772 129.909 113.932 130.472 114.253C131.035 114.574 131.482 115.011 131.811 115.566C132.149 116.112 132.318 116.745 132.318 117.464C132.318 118.175 132.149 118.807 131.811 119.362C131.473 119.917 131.022 120.354 130.459 120.675C129.896 120.996 129.272 121.156 128.587 121.156ZM128.587 119.596C128.968 119.596 129.302 119.505 129.588 119.323C129.883 119.141 130.112 118.89 130.277 118.569C130.45 118.24 130.537 117.871 130.537 117.464C130.537 117.048 130.45 116.684 130.277 116.372C130.112 116.051 129.883 115.8 129.588 115.618C129.302 115.427 128.968 115.332 128.587 115.332C128.197 115.332 127.855 115.427 127.56 115.618C127.265 115.8 127.031 116.051 126.858 116.372C126.693 116.684 126.611 117.048 126.611 117.464C126.611 117.871 126.693 118.24 126.858 118.569C127.031 118.89 127.265 119.141 127.56 119.323C127.855 119.505 128.197 119.596 128.587 119.596ZM133.609 121V113.928H135.208V115.501L135.078 115.267C135.243 114.738 135.499 114.37 135.845 114.162C136.201 113.954 136.625 113.85 137.119 113.85H137.535V115.358H136.924C136.439 115.358 136.049 115.51 135.754 115.813C135.46 116.108 135.312 116.524 135.312 117.061V121H133.609ZM141.886 121.078C141.089 121.078 140.469 120.861 140.027 120.428C139.594 119.986 139.377 119.366 139.377 118.569V115.449H138.155V113.928H138.285C138.632 113.928 138.9 113.837 139.091 113.655C139.282 113.473 139.377 113.209 139.377 112.862V112.316H141.08V113.928H142.705V115.449H141.08V118.478C141.08 118.712 141.119 118.911 141.197 119.076C141.284 119.241 141.414 119.366 141.587 119.453C141.769 119.54 141.999 119.583 142.276 119.583C142.337 119.583 142.406 119.579 142.484 119.57C142.571 119.561 142.653 119.553 142.731 119.544V121C142.61 121.017 142.471 121.035 142.315 121.052C142.159 121.069 142.016 121.078 141.886 121.078Z" fill="#18181B"/>
<path d="M253.914 121V111.315H255.604L259.231 116.242H258.425L261.974 111.315H263.664V121H261.883V113.33L262.572 113.499L258.893 118.4H258.685L255.097 113.499L255.682 113.33V121H253.914ZM267.519 121.156C267.025 121.156 266.596 121.074 266.232 120.909C265.868 120.744 265.586 120.51 265.387 120.207C265.188 119.895 265.088 119.535 265.088 119.128C265.088 118.738 265.175 118.391 265.348 118.088C265.521 117.776 265.79 117.516 266.154 117.308C266.518 117.1 266.977 116.953 267.532 116.866L269.846 116.489V117.789L267.857 118.127C267.519 118.188 267.268 118.296 267.103 118.452C266.938 118.608 266.856 118.812 266.856 119.063C266.856 119.306 266.947 119.501 267.129 119.648C267.32 119.787 267.554 119.856 267.831 119.856C268.186 119.856 268.498 119.782 268.767 119.635C269.044 119.479 269.257 119.267 269.404 118.998C269.56 118.729 269.638 118.435 269.638 118.114V116.294C269.638 115.991 269.517 115.739 269.274 115.54C269.04 115.332 268.728 115.228 268.338 115.228C267.974 115.228 267.649 115.328 267.363 115.527C267.086 115.718 266.882 115.973 266.752 116.294L265.361 115.618C265.5 115.245 265.716 114.925 266.011 114.656C266.314 114.379 266.67 114.162 267.077 114.006C267.484 113.85 267.926 113.772 268.403 113.772C268.984 113.772 269.495 113.88 269.937 114.097C270.379 114.305 270.721 114.6 270.964 114.981C271.215 115.354 271.341 115.791 271.341 116.294V121H269.729V119.791L270.093 119.765C269.911 120.068 269.694 120.324 269.443 120.532C269.192 120.731 268.906 120.887 268.585 121C268.264 121.104 267.909 121.156 267.519 121.156ZM272.915 121V113.928H274.514V115.501L274.384 115.267C274.549 114.738 274.804 114.37 275.151 114.162C275.506 113.954 275.931 113.85 276.425 113.85H276.841V115.358H276.23C275.745 115.358 275.355 115.51 275.06 115.813C274.765 116.108 274.618 116.524 274.618 117.061V121H272.915ZM279.893 121V119.661L282.519 116.918C283.039 116.372 283.438 115.939 283.715 115.618C284.001 115.289 284.2 115.007 284.313 114.773C284.426 114.539 284.482 114.301 284.482 114.058C284.482 113.651 284.352 113.33 284.092 113.096C283.841 112.862 283.516 112.745 283.117 112.745C282.701 112.745 282.341 112.866 282.038 113.109C281.735 113.343 281.514 113.69 281.375 114.149L279.828 113.668C279.932 113.157 280.144 112.715 280.465 112.342C280.786 111.961 281.176 111.67 281.635 111.471C282.103 111.263 282.597 111.159 283.117 111.159C283.741 111.159 284.287 111.272 284.755 111.497C285.232 111.722 285.6 112.039 285.86 112.446C286.129 112.853 286.263 113.33 286.263 113.876C286.263 114.223 286.198 114.565 286.068 114.903C285.938 115.241 285.743 115.588 285.483 115.943C285.223 116.29 284.885 116.68 284.469 117.113L282.194 119.505H286.393V121H279.893ZM289.301 121V112.823H287.429V111.315H291.069V121H289.301ZM293.66 118.478V117.009H299.51V118.478H293.66ZM301.02 121L304.361 111.315H306.649L309.99 121H308.066L307.377 118.92H303.633L302.931 121H301.02ZM304.14 117.36H306.87L305.258 112.537H305.752L304.14 117.36ZM310.925 123.6V113.928H312.524V115.332L312.368 114.981C312.611 114.6 312.94 114.305 313.356 114.097C313.772 113.88 314.253 113.772 314.799 113.772C315.466 113.772 316.069 113.937 316.606 114.266C317.143 114.595 317.568 115.037 317.88 115.592C318.201 116.147 318.361 116.771 318.361 117.464C318.361 118.149 318.205 118.773 317.893 119.336C317.581 119.899 317.156 120.346 316.619 120.675C316.082 120.996 315.471 121.156 314.786 121.156C314.275 121.156 313.802 121.056 313.369 120.857C312.944 120.649 312.606 120.354 312.355 119.973L312.628 119.635V123.6H310.925ZM314.591 119.596C314.981 119.596 315.328 119.505 315.631 119.323C315.934 119.141 316.168 118.89 316.333 118.569C316.506 118.248 316.593 117.88 316.593 117.464C316.593 117.048 316.506 116.684 316.333 116.372C316.168 116.051 315.934 115.8 315.631 115.618C315.328 115.427 314.981 115.332 314.591 115.332C314.218 115.332 313.88 115.423 313.577 115.605C313.282 115.787 313.048 116.043 312.875 116.372C312.71 116.693 312.628 117.057 312.628 117.464C312.628 117.88 312.71 118.248 312.875 118.569C313.048 118.89 313.282 119.141 313.577 119.323C313.88 119.505 314.218 119.596 314.591 119.596ZM319.659 121V113.928H321.258V115.501L321.128 115.267C321.293 114.738 321.549 114.37 321.895 114.162C322.251 113.954 322.675 113.85 323.169 113.85H323.585V115.358H322.974C322.489 115.358 322.099 115.51 321.804 115.813C321.51 116.108 321.362 116.524 321.362 117.061V121H319.659ZM326.637 121V119.661L329.263 116.918C329.783 116.372 330.182 115.939 330.459 115.618C330.745 115.289 330.944 115.007 331.057 114.773C331.17 114.539 331.226 114.301 331.226 114.058C331.226 113.651 331.096 113.33 330.836 113.096C330.585 112.862 330.26 112.745 329.861 112.745C329.445 112.745 329.085 112.866 328.782 113.109C328.479 113.343 328.258 113.69 328.119 114.149L326.572 113.668C326.676 113.157 326.888 112.715 327.209 112.342C327.53 111.961 327.92 111.67 328.379 111.471C328.847 111.263 329.341 111.159 329.861 111.159C330.485 111.159 331.031 111.272 331.499 111.497C331.976 111.722 332.344 112.039 332.604 112.446C332.873 112.853 333.007 113.33 333.007 113.876C333.007 114.223 332.942 114.565 332.812 114.903C332.682 115.241 332.487 115.588 332.227 115.943C331.967 116.29 331.629 116.68 331.213 117.113L328.938 119.505H333.137V121H326.637ZM338.398 121.156C337.627 121.156 336.951 120.948 336.37 120.532C335.789 120.116 335.334 119.531 335.005 118.777C334.684 118.023 334.524 117.148 334.524 116.151C334.524 115.146 334.684 114.27 335.005 113.525C335.326 112.78 335.776 112.199 336.357 111.783C336.938 111.367 337.614 111.159 338.385 111.159C339.174 111.159 339.854 111.367 340.426 111.783C341.007 112.199 341.462 112.784 341.791 113.538C342.12 114.283 342.285 115.154 342.285 116.151C342.285 117.148 342.12 118.023 341.791 118.777C341.47 119.522 341.02 120.107 340.439 120.532C339.858 120.948 339.178 121.156 338.398 121.156ZM338.411 119.544C338.853 119.544 339.23 119.41 339.542 119.141C339.854 118.864 340.092 118.474 340.257 117.971C340.43 117.46 340.517 116.853 340.517 116.151C340.517 115.449 340.43 114.847 340.257 114.344C340.092 113.833 339.85 113.443 339.529 113.174C339.217 112.905 338.836 112.771 338.385 112.771C337.952 112.771 337.579 112.905 337.267 113.174C336.955 113.443 336.712 113.833 336.539 114.344C336.374 114.847 336.292 115.449 336.292 116.151C336.292 116.844 336.374 117.447 336.539 117.958C336.712 118.461 336.955 118.851 337.267 119.128C337.588 119.405 337.969 119.544 338.411 119.544Z" fill="#D4D4D8"/>
<path d="M72 198.5C72 196.015 74.0147 194 76.5 194V194C78.9853 194 81 196.015 81 198.5V310H72V198.5Z" fill="#E4E4E7"/>
<path d="M101 163.5C101 161.015 103.015 159 105.5 159V159C107.985 159 110 161.015 110 163.5V310H101V163.5Z" fill="#E4E4E7"/>
<path d="M130 217.5C130 215.015 132.015 213 134.5 213V213C136.985 213 139 215.015 139 217.5V310H130V217.5Z" fill="#E4E4E7"/>
<path d="M159 189.5C159 187.015 161.015 185 163.5 185V185C165.985 185 168 187.015 168 189.5V310H159V189.5Z" fill="#E4E4E7"/>
<path d="M188 173.5C188 171.015 190.015 169 192.5 169V169C194.985 169 197 171.015 197 173.5V310H188V173.5Z" fill="#E4E4E7"/>
<path d="M217 244.5C217 242.015 219.015 240 221.5 240V240C223.985 240 226 242.015 226 244.5V310H217V244.5Z" fill="#E4E4E7"/>
<path d="M246 198.5C246 196.015 248.015 194 250.5 194V194C252.985 194 255 196.015 255 198.5V310H246V198.5Z" fill="#E4E4E7"/>
<path d="M275 217.5C275 215.015 277.015 213 279.5 213V213C281.985 213 284 215.015 284 217.5V310H275V217.5Z" fill="#E4E4E7"/>
<path d="M304 182.5C304 180.015 306.015 178 308.5 178V178C310.985 178 313 180.015 313 182.5V310H304V182.5Z" fill="#E4E4E7"/>
<path d="M333 189.5C333 187.015 335.015 185 337.5 185V185C339.985 185 342 187.015 342 189.5V310H333V189.5Z" fill="#E4E4E7"/>
<g filter="url(#filter2_d_2_2158)">
<rect x="50" width="314" height="71" rx="10" fill="#18181B"/>
</g>
<path d="M73.406 51V46.71L70.143 41.315H72.158L74.654 45.527H73.939L76.422 41.315H78.437L75.187 46.697V51H73.406ZM81.6397 51.156C80.9463 51.156 80.3137 50.9957 79.7417 50.675C79.1783 50.3543 78.7277 49.9167 78.3897 49.362C78.0603 48.8073 77.8957 48.1747 77.8957 47.464C77.8957 46.7533 78.0603 46.1207 78.3897 45.566C78.7277 45.0113 79.1783 44.5737 79.7417 44.253C80.305 43.9323 80.9377 43.772 81.6397 43.772C82.333 43.772 82.9613 43.9323 83.5247 44.253C84.088 44.5737 84.5343 45.0113 84.8637 45.566C85.2017 46.112 85.3707 46.7447 85.3707 47.464C85.3707 48.1747 85.2017 48.8073 84.8637 49.362C84.5257 49.9167 84.075 50.3543 83.5117 50.675C82.9483 50.9957 82.3243 51.156 81.6397 51.156ZM81.6397 49.596C82.021 49.596 82.3547 49.505 82.6407 49.323C82.9353 49.141 83.165 48.8897 83.3297 48.569C83.503 48.2397 83.5897 47.8713 83.5897 47.464C83.5897 47.048 83.503 46.684 83.3297 46.372C83.165 46.0513 82.9353 45.8 82.6407 45.618C82.3547 45.4273 82.021 45.332 81.6397 45.332C81.2497 45.332 80.9073 45.4273 80.6127 45.618C80.318 45.8 80.084 46.0513 79.9107 46.372C79.746 46.684 79.6637 47.048 79.6637 47.464C79.6637 47.8713 79.746 48.2397 79.9107 48.569C80.084 48.8897 80.318 49.141 80.6127 49.323C80.9073 49.505 81.2497 49.596 81.6397 49.596ZM89.1841 51.156C88.6381 51.156 88.1615 51.0347 87.7541 50.792C87.3555 50.5493 87.0478 50.2113 86.8311 49.778C86.6231 49.3447 86.5191 48.8377 86.5191 48.257V43.928H88.2221V48.114C88.2221 48.4087 88.2785 48.6687 88.3911 48.894C88.5125 49.1107 88.6815 49.284 88.8981 49.414C89.1235 49.5353 89.3748 49.596 89.6521 49.596C89.9295 49.596 90.1765 49.5353 90.3931 49.414C90.6098 49.284 90.7788 49.1063 90.9001 48.881C91.0215 48.6557 91.0821 48.387 91.0821 48.075V43.928H92.7851V51H91.1731V49.609L91.3161 49.856C91.1515 50.2893 90.8785 50.6143 90.4971 50.831C90.1245 51.0477 89.6868 51.156 89.1841 51.156ZM96.6787 51V41.159H98.3817V45.319L98.1477 45.072C98.3124 44.6473 98.5811 44.3267 98.9537 44.11C99.3351 43.8847 99.7771 43.772 100.28 43.772C100.8 43.772 101.259 43.8847 101.658 44.11C102.065 44.3353 102.381 44.6517 102.607 45.059C102.832 45.4577 102.945 45.9213 102.945 46.45V51H101.242V46.853C101.242 46.541 101.181 46.2723 101.06 46.047C100.938 45.8217 100.769 45.6483 100.553 45.527C100.345 45.397 100.098 45.332 99.8117 45.332C99.5344 45.332 99.2874 45.397 99.0707 45.527C98.8541 45.6483 98.6851 45.8217 98.5637 46.047C98.4424 46.2723 98.3817 46.541 98.3817 46.853V51H96.6787ZM106.53 51.156C106.036 51.156 105.607 51.0737 105.243 50.909C104.879 50.7443 104.597 50.5103 104.398 50.207C104.198 49.895 104.099 49.5353 104.099 49.128C104.099 48.738 104.185 48.3913 104.359 48.088C104.532 47.776 104.801 47.516 105.165 47.308C105.529 47.1 105.988 46.9527 106.543 46.866L108.857 46.489V47.789L106.868 48.127C106.53 48.1877 106.278 48.296 106.114 48.452C105.949 48.608 105.867 48.8117 105.867 49.063C105.867 49.3057 105.958 49.5007 106.14 49.648C106.33 49.7867 106.564 49.856 106.842 49.856C107.197 49.856 107.509 49.7823 107.778 49.635C108.055 49.479 108.267 49.2667 108.415 48.998C108.571 48.7293 108.649 48.4347 108.649 48.114V46.294C108.649 45.9907 108.527 45.7393 108.285 45.54C108.051 45.332 107.739 45.228 107.349 45.228C106.985 45.228 106.66 45.3277 106.374 45.527C106.096 45.7177 105.893 45.9733 105.763 46.294L104.372 45.618C104.51 45.2453 104.727 44.9247 105.022 44.656C105.325 44.3787 105.68 44.162 106.088 44.006C106.495 43.85 106.937 43.772 107.414 43.772C107.994 43.772 108.506 43.8803 108.948 44.097C109.39 44.305 109.732 44.5997 109.975 44.981C110.226 45.3537 110.352 45.7913 110.352 46.294V51H108.74V49.791L109.104 49.765C108.922 50.0683 108.705 50.324 108.454 50.532C108.202 50.7313 107.916 50.8873 107.596 51C107.275 51.104 106.92 51.156 106.53 51.156ZM113.931 51L111.149 43.928H113.008L115.023 49.492H114.334L116.362 43.928H118.221L115.439 51H113.931ZM122.389 51.156C121.661 51.156 121.024 50.9913 120.478 50.662C119.932 50.3327 119.508 49.8863 119.204 49.323C118.901 48.7597 118.749 48.1357 118.749 47.451C118.749 46.7403 118.901 46.112 119.204 45.566C119.516 45.0113 119.937 44.5737 120.465 44.253C121.003 43.9323 121.601 43.772 122.259 43.772C122.814 43.772 123.299 43.863 123.715 44.045C124.14 44.227 124.5 44.4783 124.794 44.799C125.089 45.1197 125.314 45.488 125.47 45.904C125.626 46.3113 125.704 46.7533 125.704 47.23C125.704 47.3513 125.696 47.477 125.678 47.607C125.67 47.737 125.648 47.8497 125.613 47.945H120.153V46.645H124.651L123.845 47.256C123.923 46.8573 123.902 46.502 123.78 46.19C123.668 45.878 123.477 45.631 123.208 45.449C122.948 45.267 122.632 45.176 122.259 45.176C121.904 45.176 121.588 45.267 121.31 45.449C121.033 45.6223 120.821 45.8823 120.673 46.229C120.535 46.567 120.483 46.9787 120.517 47.464C120.483 47.8973 120.539 48.283 120.686 48.621C120.842 48.9503 121.068 49.206 121.362 49.388C121.666 49.57 122.012 49.661 122.402 49.661C122.792 49.661 123.122 49.5787 123.39 49.414C123.668 49.2493 123.884 49.0283 124.04 48.751L125.418 49.427C125.28 49.765 125.063 50.064 124.768 50.324C124.474 50.584 124.123 50.7877 123.715 50.935C123.317 51.0823 122.875 51.156 122.389 51.156ZM129.306 51V43.928H130.905V45.566L130.723 45.293C130.853 44.7817 131.113 44.4003 131.503 44.149C131.893 43.8977 132.352 43.772 132.881 43.772C133.461 43.772 133.973 43.9237 134.415 44.227C134.857 44.5303 135.143 44.929 135.273 45.423L134.792 45.462C135.008 44.8987 135.333 44.4783 135.767 44.201C136.2 43.915 136.698 43.772 137.262 43.772C137.764 43.772 138.211 43.8847 138.601 44.11C138.999 44.3353 139.311 44.6517 139.537 45.059C139.762 45.4577 139.875 45.9213 139.875 46.45V51H138.172V46.853C138.172 46.541 138.115 46.2723 138.003 46.047C137.89 45.8217 137.734 45.6483 137.535 45.527C137.335 45.397 137.093 45.332 136.807 45.332C136.538 45.332 136.3 45.397 136.092 45.527C135.884 45.6483 135.723 45.8217 135.611 46.047C135.498 46.2723 135.442 46.541 135.442 46.853V51H133.739V46.853C133.739 46.541 133.682 46.2723 133.57 46.047C133.457 45.8217 133.297 45.6483 133.089 45.527C132.889 45.397 132.651 45.332 132.374 45.332C132.105 45.332 131.867 45.397 131.659 45.527C131.451 45.6483 131.29 45.8217 131.178 46.047C131.065 46.2723 131.009 46.541 131.009 46.853V51H129.306ZM143.46 51.156C142.966 51.156 142.537 51.0737 142.173 50.909C141.809 50.7443 141.528 50.5103 141.328 50.207C141.129 49.895 141.029 49.5353 141.029 49.128C141.029 48.738 141.116 48.3913 141.289 48.088C141.463 47.776 141.731 47.516 142.095 47.308C142.459 47.1 142.919 46.9527 143.473 46.866L145.787 46.489V47.789L143.798 48.127C143.46 48.1877 143.209 48.296 143.044 48.452C142.88 48.608 142.797 48.8117 142.797 49.063C142.797 49.3057 142.888 49.5007 143.07 49.648C143.261 49.7867 143.495 49.856 143.772 49.856C144.128 49.856 144.44 49.7823 144.708 49.635C144.986 49.479 145.198 49.2667 145.345 48.998C145.501 48.7293 145.579 48.4347 145.579 48.114V46.294C145.579 45.9907 145.458 45.7393 145.215 45.54C144.981 45.332 144.669 45.228 144.279 45.228C143.915 45.228 143.59 45.3277 143.304 45.527C143.027 45.7177 142.823 45.9733 142.693 46.294L141.302 45.618C141.441 45.2453 141.658 44.9247 141.952 44.656C142.256 44.3787 142.611 44.162 143.018 44.006C143.426 43.85 143.868 43.772 144.344 43.772C144.925 43.772 145.436 43.8803 145.878 44.097C146.32 44.305 146.663 44.5997 146.905 44.981C147.157 45.3537 147.282 45.7913 147.282 46.294V51H145.67V49.791L146.034 49.765C145.852 50.0683 145.636 50.324 145.384 50.532C145.133 50.7313 144.847 50.8873 144.526 51C144.206 51.104 143.85 51.156 143.46 51.156ZM152.145 51.156C151.461 51.156 150.85 50.9957 150.312 50.675C149.775 50.3457 149.35 49.8993 149.038 49.336C148.726 48.7727 148.57 48.1487 148.57 47.464C148.57 46.7707 148.726 46.1467 149.038 45.592C149.35 45.0373 149.775 44.5953 150.312 44.266C150.858 43.9367 151.465 43.772 152.132 43.772C152.67 43.772 153.146 43.8803 153.562 44.097C153.987 44.305 154.321 44.5997 154.563 44.981L154.303 45.332V41.159H156.006V51H154.394V49.635L154.576 49.973C154.334 50.3543 153.996 50.649 153.562 50.857C153.129 51.0563 152.657 51.156 152.145 51.156ZM152.327 49.596C152.717 49.596 153.06 49.505 153.354 49.323C153.649 49.141 153.879 48.8897 154.043 48.569C154.217 48.2483 154.303 47.88 154.303 47.464C154.303 47.0567 154.217 46.6927 154.043 46.372C153.879 46.0427 153.649 45.787 153.354 45.605C153.06 45.423 152.717 45.332 152.327 45.332C151.946 45.332 151.604 45.4273 151.3 45.618C150.997 45.8 150.759 46.0513 150.585 46.372C150.421 46.684 150.338 47.048 150.338 47.464C150.338 47.88 150.421 48.2483 150.585 48.569C150.759 48.8897 150.997 49.141 151.3 49.323C151.604 49.505 151.946 49.596 152.327 49.596ZM160.945 51.156C160.217 51.156 159.58 50.9913 159.034 50.662C158.488 50.3327 158.063 49.8863 157.76 49.323C157.457 48.7597 157.305 48.1357 157.305 47.451C157.305 46.7403 157.457 46.112 157.76 45.566C158.072 45.0113 158.492 44.5737 159.021 44.253C159.558 43.9323 160.156 43.772 160.815 43.772C161.37 43.772 161.855 43.863 162.271 44.045C162.696 44.227 163.055 44.4783 163.35 44.799C163.645 45.1197 163.87 45.488 164.026 45.904C164.182 46.3113 164.26 46.7533 164.26 47.23C164.26 47.3513 164.251 47.477 164.234 47.607C164.225 47.737 164.204 47.8497 164.169 47.945H158.709V46.645H163.207L162.401 47.256C162.479 46.8573 162.457 46.502 162.336 46.19C162.223 45.878 162.033 45.631 161.764 45.449C161.504 45.267 161.188 45.176 160.815 45.176C160.46 45.176 160.143 45.267 159.866 45.449C159.589 45.6223 159.376 45.8823 159.229 46.229C159.09 46.567 159.038 46.9787 159.073 47.464C159.038 47.8973 159.095 48.283 159.242 48.621C159.398 48.9503 159.623 49.206 159.918 49.388C160.221 49.57 160.568 49.661 160.958 49.661C161.348 49.661 161.677 49.5787 161.946 49.414C162.223 49.2493 162.44 49.0283 162.596 48.751L163.974 49.427C163.835 49.765 163.619 50.064 163.324 50.324C163.029 50.584 162.678 50.7877 162.271 50.935C161.872 51.0823 161.43 51.156 160.945 51.156ZM171.462 51.156C170.847 51.156 170.275 51.0433 169.746 50.818C169.226 50.5927 168.776 50.2807 168.394 49.882C168.022 49.4747 167.749 49.0023 167.575 48.465L169.044 47.828C169.278 48.3827 169.616 48.8203 170.058 49.141C170.5 49.453 170.999 49.609 171.553 49.609C171.865 49.609 172.134 49.5613 172.359 49.466C172.593 49.362 172.771 49.2233 172.892 49.05C173.022 48.8767 173.087 48.6687 173.087 48.426C173.087 48.14 173.001 47.906 172.827 47.724C172.663 47.5333 172.411 47.386 172.073 47.282L170.214 46.684C169.46 46.45 168.893 46.099 168.511 45.631C168.13 45.163 167.939 44.6127 167.939 43.98C167.939 43.4253 168.074 42.9357 168.342 42.511C168.62 42.0863 169.001 41.757 169.486 41.523C169.98 41.2803 170.544 41.159 171.176 41.159C171.757 41.159 172.29 41.263 172.775 41.471C173.261 41.6703 173.677 41.952 174.023 42.316C174.379 42.6713 174.643 43.0917 174.816 43.577L173.36 44.227C173.17 43.7417 172.884 43.369 172.502 43.109C172.121 42.8403 171.679 42.706 171.176 42.706C170.882 42.706 170.622 42.758 170.396 42.862C170.171 42.9573 169.993 43.096 169.863 43.278C169.742 43.4513 169.681 43.6593 169.681 43.902C169.681 44.1707 169.768 44.409 169.941 44.617C170.115 44.8163 170.379 44.9723 170.734 45.085L172.515 45.644C173.287 45.8953 173.863 46.242 174.244 46.684C174.634 47.126 174.829 47.672 174.829 48.322C174.829 48.8767 174.686 49.3663 174.4 49.791C174.114 50.2157 173.72 50.5493 173.217 50.792C172.715 51.0347 172.13 51.156 171.462 51.156ZM170.838 52.3V40.015H171.943V52.3H170.838ZM179.294 51.156C178.766 51.156 178.263 51.0607 177.786 50.87C177.318 50.6707 176.915 50.3933 176.577 50.038C176.248 49.674 176.023 49.245 175.901 48.751L177.448 48.205C177.604 48.647 177.843 48.985 178.163 49.219C178.484 49.4443 178.861 49.557 179.294 49.557C179.641 49.557 179.94 49.492 180.191 49.362C180.451 49.232 180.655 49.0457 180.802 48.803C180.95 48.5517 181.023 48.257 181.023 47.919C181.023 47.581 180.95 47.295 180.802 47.061C180.664 46.8183 180.464 46.632 180.204 46.502C179.944 46.372 179.637 46.307 179.281 46.307C179.117 46.307 178.943 46.3243 178.761 46.359C178.588 46.3937 178.432 46.4457 178.293 46.515L177.89 45.67L180.399 42.81H176.447V41.315H182.388V42.706L179.866 45.657L179.892 44.994C180.473 45.0027 180.98 45.1283 181.413 45.371C181.847 45.6137 182.185 45.9473 182.427 46.372C182.67 46.7967 182.791 47.295 182.791 47.867C182.791 48.491 182.64 49.0543 182.336 49.557C182.033 50.051 181.617 50.441 181.088 50.727C180.56 51.013 179.962 51.156 179.294 51.156ZM184.655 51L187.944 46.762L188.243 47.074C188.113 47.1693 187.987 47.2473 187.866 47.308C187.744 47.3687 187.614 47.412 187.476 47.438C187.337 47.464 187.19 47.477 187.034 47.477C186.444 47.477 185.92 47.3427 185.461 47.074C185.001 46.8053 184.637 46.4413 184.369 45.982C184.109 45.514 183.979 44.9853 183.979 44.396C183.979 43.772 184.122 43.2173 184.408 42.732C184.702 42.2467 185.101 41.8653 185.604 41.588C186.115 41.302 186.696 41.159 187.346 41.159C188.004 41.159 188.585 41.2977 189.088 41.575C189.59 41.8523 189.985 42.2337 190.271 42.719C190.565 43.1957 190.713 43.746 190.713 44.37C190.713 44.682 190.678 44.994 190.609 45.306C190.539 45.618 190.414 45.9517 190.232 46.307C190.058 46.6537 189.807 47.048 189.478 47.49L186.774 51H184.655ZM187.346 45.995C187.649 45.995 187.918 45.93 188.152 45.8C188.394 45.6613 188.585 45.4707 188.724 45.228C188.862 44.9767 188.932 44.695 188.932 44.383C188.932 44.0537 188.858 43.7677 188.711 43.525C188.572 43.2823 188.386 43.0917 188.152 42.953C187.918 42.8143 187.649 42.745 187.346 42.745C187.051 42.745 186.782 42.8143 186.54 42.953C186.297 43.0917 186.102 43.2823 185.955 43.525C185.816 43.7677 185.747 44.0537 185.747 44.383C185.747 44.695 185.816 44.9767 185.955 45.228C186.102 45.4707 186.297 45.6613 186.54 45.8C186.782 45.93 187.051 45.995 187.346 45.995ZM192.148 53.028V52.183C192.434 52.1137 192.663 51.9793 192.837 51.78C193.019 51.5893 193.131 51.3293 193.175 51H192.408V49.18H194.124V50.298C194.124 51.0607 193.955 51.6717 193.617 52.131C193.287 52.5903 192.798 52.8893 192.148 53.028ZM200.369 51V48.868H195.923V47.386L200.265 41.315H202.111V47.386H203.528V48.868H202.111V51H200.369ZM197.223 48.023L196.911 47.386H200.369V42.706L200.824 42.849L197.223 48.023ZM205.183 51L208.472 46.762L208.771 47.074C208.641 47.1693 208.515 47.2473 208.394 47.308C208.273 47.3687 208.143 47.412 208.004 47.438C207.865 47.464 207.718 47.477 207.562 47.477C206.973 47.477 206.448 47.3427 205.989 47.074C205.53 46.8053 205.166 46.4413 204.897 45.982C204.637 45.514 204.507 44.9853 204.507 44.396C204.507 43.772 204.65 43.2173 204.936 42.732C205.231 42.2467 205.629 41.8653 206.132 41.588C206.643 41.302 207.224 41.159 207.874 41.159C208.533 41.159 209.113 41.2977 209.616 41.575C210.119 41.8523 210.513 42.2337 210.799 42.719C211.094 43.1957 211.241 43.746 211.241 44.37C211.241 44.682 211.206 44.994 211.137 45.306C211.068 45.618 210.942 45.9517 210.76 46.307C210.587 46.6537 210.335 47.048 210.006 47.49L207.302 51H205.183ZM207.874 45.995C208.177 45.995 208.446 45.93 208.68 45.8C208.923 45.6613 209.113 45.4707 209.252 45.228C209.391 44.9767 209.46 44.695 209.46 44.383C209.46 44.0537 209.386 43.7677 209.239 43.525C209.1 43.2823 208.914 43.0917 208.68 42.953C208.446 42.8143 208.177 42.745 207.874 42.745C207.579 42.745 207.311 42.8143 207.068 42.953C206.825 43.0917 206.63 43.2823 206.483 43.525C206.344 43.7677 206.275 44.0537 206.275 44.383C206.275 44.695 206.344 44.9767 206.483 45.228C206.63 45.4707 206.825 45.6613 207.068 45.8C207.311 45.93 207.579 45.995 207.874 45.995ZM212.379 51V49.661L215.005 46.918C215.525 46.372 215.924 45.9387 216.201 45.618C216.487 45.2887 216.687 45.007 216.799 44.773C216.912 44.539 216.968 44.3007 216.968 44.058C216.968 43.6507 216.838 43.33 216.578 43.096C216.327 42.862 216.002 42.745 215.603 42.745C215.187 42.745 214.828 42.8663 214.524 43.109C214.221 43.343 214 43.6897 213.861 44.149L212.314 43.668C212.418 43.1567 212.631 42.7147 212.951 42.342C213.272 41.9607 213.662 41.6703 214.121 41.471C214.589 41.263 215.083 41.159 215.603 41.159C216.227 41.159 216.773 41.2717 217.241 41.497C217.718 41.7223 218.086 42.0387 218.346 42.446C218.615 42.8533 218.749 43.33 218.749 43.876C218.749 44.2227 218.684 44.565 218.554 44.903C218.424 45.241 218.229 45.5877 217.969 45.943C217.709 46.2897 217.371 46.6797 216.955 47.113L214.68 49.505H218.879V51H212.379ZM225.866 51.078C225.068 51.078 224.449 50.8613 224.007 50.428C223.573 49.986 223.357 49.3663 223.357 48.569V45.449H222.135V43.928H222.265C222.611 43.928 222.88 43.837 223.071 43.655C223.261 43.473 223.357 43.2087 223.357 42.862V42.316H225.06V43.928H226.685V45.449H225.06V48.478C225.06 48.712 225.099 48.9113 225.177 49.076C225.263 49.2407 225.393 49.3663 225.567 49.453C225.749 49.5397 225.978 49.583 226.256 49.583C226.316 49.583 226.386 49.5787 226.464 49.57C226.55 49.5613 226.633 49.5527 226.711 49.544V51C226.589 51.0173 226.451 51.0347 226.295 51.052C226.139 51.0693 225.996 51.078 225.866 51.078ZM228.012 51V41.159H229.715V45.319L229.481 45.072C229.645 44.6473 229.914 44.3267 230.287 44.11C230.668 43.8847 231.11 43.772 231.613 43.772C232.133 43.772 232.592 43.8847 232.991 44.11C233.398 44.3353 233.714 44.6517 233.94 45.059C234.165 45.4577 234.278 45.9213 234.278 46.45V51H232.575V46.853C232.575 46.541 232.514 46.2723 232.393 46.047C232.271 45.8217 232.102 45.6483 231.886 45.527C231.678 45.397 231.431 45.332 231.145 45.332C230.867 45.332 230.62 45.397 230.404 45.527C230.187 45.6483 230.018 45.8217 229.897 46.047C229.775 46.2723 229.715 46.541 229.715 46.853V51H228.012ZM235.718 51V43.928H237.421V51H235.718ZM235.718 43.135V41.315H237.421V43.135H235.718ZM241.684 51.156C240.93 51.156 240.272 50.9783 239.708 50.623C239.154 50.259 238.772 49.7693 238.564 49.154L239.838 48.543C240.02 48.9417 240.272 49.2537 240.592 49.479C240.922 49.7043 241.286 49.817 241.684 49.817C241.996 49.817 242.243 49.7477 242.425 49.609C242.607 49.4703 242.698 49.2883 242.698 49.063C242.698 48.9243 242.659 48.8117 242.581 48.725C242.512 48.6297 242.412 48.5517 242.282 48.491C242.161 48.4217 242.027 48.3653 241.879 48.322L240.722 47.997C240.124 47.8237 239.669 47.5593 239.357 47.204C239.054 46.8487 238.902 46.4283 238.902 45.943C238.902 45.5097 239.011 45.1327 239.227 44.812C239.453 44.4827 239.76 44.227 240.15 44.045C240.549 43.863 241.004 43.772 241.515 43.772C242.183 43.772 242.772 43.9323 243.283 44.253C243.795 44.5737 244.159 45.0243 244.375 45.605L243.075 46.216C242.954 45.8953 242.75 45.6397 242.464 45.449C242.178 45.2583 241.858 45.163 241.502 45.163C241.216 45.163 240.991 45.228 240.826 45.358C240.662 45.488 240.579 45.657 240.579 45.865C240.579 45.995 240.614 46.1077 240.683 46.203C240.753 46.2983 240.848 46.3763 240.969 46.437C241.099 46.4977 241.247 46.554 241.411 46.606L242.542 46.944C243.123 47.1173 243.569 47.3773 243.881 47.724C244.202 48.0707 244.362 48.4953 244.362 48.998C244.362 49.4227 244.25 49.7997 244.024 50.129C243.799 50.4497 243.487 50.701 243.088 50.883C242.69 51.065 242.222 51.156 241.684 51.156ZM249.762 51L247.331 43.928H249.125L250.906 49.297L250.282 49.284L252.18 43.928H253.688L255.573 49.284L254.949 49.297L256.73 43.928H258.524L256.093 51H254.572L252.648 45.397H253.22L251.27 51H249.762ZM262.685 51.156C261.957 51.156 261.32 50.9913 260.774 50.662C260.228 50.3327 259.803 49.8863 259.5 49.323C259.197 48.7597 259.045 48.1357 259.045 47.451C259.045 46.7403 259.197 46.112 259.5 45.566C259.812 45.0113 260.232 44.5737 260.761 44.253C261.298 43.9323 261.896 43.772 262.555 43.772C263.11 43.772 263.595 43.863 264.011 44.045C264.436 44.227 264.795 44.4783 265.09 44.799C265.385 45.1197 265.61 45.488 265.766 45.904C265.922 46.3113 266 46.7533 266 47.23C266 47.3513 265.991 47.477 265.974 47.607C265.965 47.737 265.944 47.8497 265.909 47.945H260.449V46.645H264.947L264.141 47.256C264.219 46.8573 264.197 46.502 264.076 46.19C263.963 45.878 263.773 45.631 263.504 45.449C263.244 45.267 262.928 45.176 262.555 45.176C262.2 45.176 261.883 45.267 261.606 45.449C261.329 45.6223 261.116 45.8823 260.969 46.229C260.83 46.567 260.778 46.9787 260.813 47.464C260.778 47.8973 260.835 48.283 260.982 48.621C261.138 48.9503 261.363 49.206 261.658 49.388C261.961 49.57 262.308 49.661 262.698 49.661C263.088 49.661 263.417 49.5787 263.686 49.414C263.963 49.2493 264.18 49.0283 264.336 48.751L265.714 49.427C265.575 49.765 265.359 50.064 265.064 50.324C264.769 50.584 264.418 50.7877 264.011 50.935C263.612 51.0823 263.17 51.156 262.685 51.156ZM270.645 51.156C269.917 51.156 269.28 50.9913 268.734 50.662C268.188 50.3327 267.763 49.8863 267.46 49.323C267.157 48.7597 267.005 48.1357 267.005 47.451C267.005 46.7403 267.157 46.112 267.46 45.566C267.772 45.0113 268.192 44.5737 268.721 44.253C269.258 43.9323 269.856 43.772 270.515 43.772C271.07 43.772 271.555 43.863 271.971 44.045C272.396 44.227 272.755 44.4783 273.05 44.799C273.345 45.1197 273.57 45.488 273.726 45.904C273.882 46.3113 273.96 46.7533 273.96 47.23C273.96 47.3513 273.951 47.477 273.934 47.607C273.925 47.737 273.904 47.8497 273.869 47.945H268.409V46.645H272.907L272.101 47.256C272.179 46.8573 272.157 46.502 272.036 46.19C271.923 45.878 271.733 45.631 271.464 45.449C271.204 45.267 270.888 45.176 270.515 45.176C270.16 45.176 269.843 45.267 269.566 45.449C269.289 45.6223 269.076 45.8823 268.929 46.229C268.79 46.567 268.738 46.9787 268.773 47.464C268.738 47.8973 268.795 48.283 268.942 48.621C269.098 48.9503 269.323 49.206 269.618 49.388C269.921 49.57 270.268 49.661 270.658 49.661C271.048 49.661 271.377 49.5787 271.646 49.414C271.923 49.2493 272.14 49.0283 272.296 48.751L273.674 49.427C273.535 49.765 273.319 50.064 273.024 50.324C272.729 50.584 272.378 50.7877 271.971 50.935C271.572 51.0823 271.13 51.156 270.645 51.156ZM275.251 51V41.159H276.954V47.607L276.304 47.412L279.632 43.928H281.751L279.138 46.775L281.803 51H279.853L277.539 47.334L278.553 47.126L276.421 49.414L276.954 48.374V51H275.251ZM283.625 48.062L283.508 41.315H285.237L285.12 48.062H283.625ZM283.508 51V49.18H285.237V51H283.508Z" fill="white"/>
<path d="M71.079 29V19.315H72.353V29H71.079ZM74.3637 29V21.993H75.5467V23.358L75.3517 23.241C75.5251 22.799 75.8024 22.4567 76.1837 22.214C76.5737 21.9627 77.0287 21.837 77.5487 21.837C78.0514 21.837 78.4977 21.9497 78.8877 22.175C79.2864 22.4003 79.5984 22.7123 79.8237 23.111C80.0577 23.5097 80.1747 23.9603 80.1747 24.463V29H78.9527V24.853C78.9527 24.463 78.8834 24.1337 78.7447 23.865C78.6061 23.5963 78.4067 23.3883 78.1467 23.241C77.8954 23.085 77.6051 23.007 77.2757 23.007C76.9464 23.007 76.6517 23.085 76.3917 23.241C76.1404 23.3883 75.9411 23.6007 75.7937 23.878C75.6464 24.1467 75.5727 24.4717 75.5727 24.853V29H74.3637ZM84.4138 29.156C83.7118 29.156 83.1008 28.9827 82.5808 28.636C82.0608 28.2893 81.6924 27.8213 81.4758 27.232L82.4378 26.764C82.6371 27.18 82.9101 27.5093 83.2568 27.752C83.6034 27.9947 83.9891 28.116 84.4138 28.116C84.7951 28.116 85.1114 28.025 85.3628 27.843C85.6141 27.661 85.7398 27.4227 85.7398 27.128C85.7398 26.92 85.6791 26.7553 85.5578 26.634C85.4451 26.504 85.3064 26.4043 85.1418 26.335C84.9771 26.257 84.8254 26.2007 84.6868 26.166L83.6338 25.867C83.0011 25.685 82.5374 25.425 82.2428 25.087C81.9568 24.749 81.8138 24.3547 81.8138 23.904C81.8138 23.488 81.9178 23.1283 82.1258 22.825C82.3424 22.513 82.6328 22.2703 82.9968 22.097C83.3694 21.9237 83.7854 21.837 84.2448 21.837C84.8601 21.837 85.4104 21.993 85.8958 22.305C86.3898 22.617 86.7408 23.0547 86.9488 23.618L85.9608 24.073C85.8048 23.709 85.5708 23.423 85.2588 23.215C84.9468 22.9983 84.5958 22.89 84.2058 22.89C83.8504 22.89 83.5688 22.981 83.3608 23.163C83.1528 23.3363 83.0488 23.5573 83.0488 23.826C83.0488 24.0253 83.1008 24.19 83.2048 24.32C83.3088 24.4413 83.4344 24.5367 83.5818 24.606C83.7291 24.6667 83.8721 24.7187 84.0108 24.762L85.1548 25.1C85.7268 25.2647 86.1688 25.5203 86.4808 25.867C86.8014 26.2137 86.9618 26.6297 86.9618 27.115C86.9618 27.505 86.8534 27.856 86.6368 28.168C86.4201 28.48 86.1211 28.7227 85.7398 28.896C85.3584 29.0693 84.9164 29.156 84.4138 29.156ZM88.5444 29V21.993H89.7534V29H88.5444ZM88.5444 20.875V19.315H89.7534V20.875H88.5444ZM94.9704 31.86C94.4764 31.86 94.017 31.782 93.5924 31.626C93.1764 31.47 92.8167 31.2533 92.5134 30.976C92.2187 30.7073 91.9934 30.391 91.8374 30.027L92.9684 29.507C93.0897 29.8363 93.3194 30.1137 93.6574 30.339C94.004 30.573 94.4374 30.69 94.9574 30.69C95.356 30.69 95.7157 30.612 96.0364 30.456C96.3657 30.3087 96.6257 30.0833 96.8164 29.78C97.007 29.4853 97.1024 29.1257 97.1024 28.701V27.128L97.3234 27.362C97.0807 27.8387 96.7297 28.2027 96.2704 28.454C95.8197 28.7053 95.3214 28.831 94.7754 28.831C94.1167 28.831 93.5274 28.6793 93.0074 28.376C92.4874 28.064 92.08 27.6437 91.7854 27.115C91.4907 26.5777 91.3434 25.984 91.3434 25.334C91.3434 24.6753 91.4907 24.0817 91.7854 23.553C92.08 23.0243 92.483 22.6083 92.9944 22.305C93.5144 21.993 94.1037 21.837 94.7624 21.837C95.3084 21.837 95.8024 21.9627 96.2444 22.214C96.695 22.4567 97.0547 22.7947 97.3234 23.228L97.1414 23.553V21.993H98.3244V28.701C98.3244 29.3077 98.1814 29.8493 97.8954 30.326C97.6094 30.8027 97.2107 31.1753 96.6994 31.444C96.1967 31.7213 95.6204 31.86 94.9704 31.86ZM94.8794 27.661C95.2954 27.661 95.668 27.557 95.9974 27.349C96.3354 27.141 96.604 26.8637 96.8034 26.517C97.0027 26.1617 97.1024 25.7673 97.1024 25.334C97.1024 24.9093 97.0027 24.5193 96.8034 24.164C96.604 23.8087 96.3354 23.527 95.9974 23.319C95.668 23.111 95.2954 23.007 94.8794 23.007C94.4547 23.007 94.069 23.111 93.7224 23.319C93.3757 23.527 93.1027 23.8087 92.9034 24.164C92.7127 24.5107 92.6174 24.9007 92.6174 25.334C92.6174 25.7673 92.7127 26.1617 92.9034 26.517C93.1027 26.8637 93.3714 27.141 93.7094 27.349C94.056 27.557 94.446 27.661 94.8794 27.661ZM100.199 29V19.159H101.408V23.358L101.187 23.241C101.36 22.799 101.637 22.4567 102.019 22.214C102.409 21.9627 102.864 21.837 103.384 21.837C103.886 21.837 104.333 21.9497 104.723 22.175C105.121 22.4003 105.433 22.7123 105.659 23.111C105.893 23.5097 106.01 23.9603 106.01 24.463V29H104.788V24.853C104.788 24.463 104.714 24.1337 104.567 23.865C104.428 23.5963 104.233 23.3883 103.982 23.241C103.73 23.085 103.44 23.007 103.111 23.007C102.79 23.007 102.5 23.085 102.24 23.241C101.98 23.3883 101.776 23.6007 101.629 23.878C101.481 24.1467 101.408 24.4717 101.408 24.853V29H100.199ZM110.587 29.078C109.902 29.078 109.373 28.883 109.001 28.493C108.637 28.103 108.455 27.5527 108.455 26.842V23.15H107.181V21.993H107.441C107.753 21.993 108 21.8977 108.182 21.707C108.364 21.5163 108.455 21.265 108.455 20.953V20.381H109.664V21.993H111.237V23.15H109.664V26.803C109.664 27.037 109.698 27.2407 109.768 27.414C109.846 27.5873 109.971 27.726 110.145 27.83C110.318 27.9253 110.548 27.973 110.834 27.973C110.894 27.973 110.968 27.9687 111.055 27.96C111.15 27.9513 111.237 27.9427 111.315 27.934V29C111.202 29.026 111.076 29.0433 110.938 29.052C110.799 29.0693 110.682 29.078 110.587 29.078Z" fill="#A1A1AA"/>
<defs>
<filter id="filter0_f_2_2158" x="0" y="86" width="412" height="293" filterUnits="userSpaceOnUse" color-interpolation-filters="sRGB">
<feFlood flood-opacity="0" result="BackgroundImageFix"/>
<feBlend mode="normal" in="SourceGraphic" in2="BackgroundImageFix" result="shape"/>
<feGaussianBlur stdDeviation="35" result="effect1_foregroundBlur_2_2158"/>
</filter>
<filter id="filter1_d_2_2158" x="46" y="93" width="322" height="246" filterUnits="userSpaceOnUse" color-interpolation-filters="sRGB">
<feFlood flood-opacity="0" result="BackgroundImageFix"/>
<feColorMatrix in="SourceAlpha" type="matrix" values="0 0 0 0 0 0 0 0 0 0 0 0 0 0 0 0 0 0 127 0" result="hardAlpha"/>
<feOffset dy="4"/>
<feGaussianBlur stdDeviation="2"/>
<feComposite in2="hardAlpha" operator="out"/>
<feColorMatrix type="matrix" values="0 0 0 0 0.1375 0 0 0 0 0.155242 0 0 0 0 0.4125 0 0 0 0.08 0"/>
<feBlend mode="normal" in2="BackgroundImageFix" result="effect1_dropShadow_2_2158"/>
<feBlend mode="normal" in="SourceGraphic" in2="effect1_dropShadow_2_2158" result="shape"/>
</filter>
<filter id="filter2_d_2_2158" x="46" y="0" width="322" height="79" filterUnits="userSpaceOnUse" color-interpolation-filters="sRGB">
<feFlood flood-opacity="0" result="BackgroundImageFix"/>
<feColorMatrix in="SourceAlpha" type="matrix" values="0 0 0 0 0 0 0 0 0 0 0 0 0 0 0 0 0 0 127 0" result="hardAlpha"/>
<feOffset dy="4"/>
<feGaussianBlur stdDeviation="2"/>
<feComposite in2="hardAlpha" operator="out"/>
<feColorMatrix type="matrix" values="0 0 0 0 0.1375 0 0 0 0 0.155242 0 0 0 0 0.4125 0 0 0 0.08 0"/>
<feBlend mode="normal" in2="BackgroundImageFix" result="effect1_dropShadow_2_2158"/>
<feBlend mode="normal" in="SourceGraphic" in2="effect1_dropShadow_2_2158" result="shape"/>
</filter>
<linearGradient id="paint0_linear_2_2158" x1="68.5104" y1="232.5" x2="340.212" y2="232.5" gradientUnits="userSpaceOnUse">
<stop stop-color="#44FF9A"/>
<stop offset="0.234375" stop-color="#44B0FF"/>
<stop offset="0.489583" stop-color="#8B44FF"/>
<stop offset="0.739583" stop-color="#FF6644"/>
<stop offset="1" stop-color="#EBFF70"/>
</linearGradient>
</defs>
</svg>
