<svg width="320" height="320" viewBox="0 0 320 320" fill="none" xmlns="http://www.w3.org/2000/svg">
<g filter="url(#filter0_d_0_1)">
<rect x="25" y="25" width="250" height="250" rx="15" fill="white"/>
</g>
<path d="M211.682 173.723C209.111 173.588 203.835 176.429 202.346 177.106C197.205 179.677 190.034 183.735 185.299 186.982C185.029 187.253 184.488 187.523 184.217 187.659C182.052 189.012 179.887 189.958 177.452 190.5C163.788 193.477 143.899 193.747 143.899 193.747H142.682C141.735 193.747 141.059 193.207 140.923 192.394C140.788 191.447 141.464 190.635 142.411 190.5L172.041 187.658C175.288 187.253 177.858 184.276 177.588 180.759C177.182 177.376 174.07 174.806 170.823 175.211L144.441 174.942C142.682 174.942 139.841 174.536 138.082 173.994C121.17 168.988 111.565 173.723 106.423 175.888C105.341 173.994 103.176 172.777 100.741 172.912L89.3767 173.723C85.5884 173.994 82.747 177.106 83.0179 180.759L84.911 205.923C85.1818 209.577 88.4284 212.282 92.2163 212.011L103.581 211.2C106.016 211.065 107.911 209.576 108.722 207.547L158.645 209.711C164.193 210.252 169.469 209.576 174.34 207.006L175.828 206.194L213.44 184.412C215.334 183.329 216.551 181.435 216.687 179.406C216.687 176.836 215.334 173.994 211.681 173.723L211.682 173.723ZM96.2763 206.059C94.1114 206.059 92.3533 204.435 92.3533 202.27C92.3533 200.241 94.1124 198.482 96.2763 198.482C98.4412 198.482 100.199 200.105 100.199 202.27C100.2 204.435 98.4412 206.059 96.2763 206.059ZM183.135 177.647C187.058 175.482 194.905 171.694 199.099 170.071C201.264 169.259 203.293 169.259 205.323 170.611C203.835 171.152 202.346 171.829 200.993 172.506C196.528 174.805 188.681 178.999 184.758 181.705C184.352 181.976 183.946 182.246 183.541 182.517V180.352C183.406 179.404 183.27 178.593 183 177.781L183.135 177.647L183.135 177.647ZM195.04 167.5C191.928 168.853 186.11 170.882 183.27 172.505L181.375 173.588C181.241 173.723 180.97 173.859 180.835 173.994C180.023 173.046 178.941 172.1 177.858 171.423C180.429 170.07 186.246 168.176 188.953 167.093C190.981 166.147 193.146 166.147 195.04 167.5L195.04 167.5ZM123.334 104.724L127.528 108.918C125.228 112.3 123.605 116.223 122.792 120.418H116.839C115.351 120.418 114.268 121.635 114.268 122.989V130.159C114.268 131.648 115.486 132.73 116.839 132.73L122.793 132.729C123.605 136.923 125.228 140.711 127.529 144.23L123.335 148.424C122.253 149.506 122.253 151.129 123.335 152.077L128.341 157.082C129.423 158.165 131.046 158.165 131.994 157.082L136.188 152.888C139.57 155.188 143.493 156.811 147.688 157.624V163.577C147.688 165.066 148.906 166.148 150.259 166.148H157.43C158.918 166.148 160 164.931 160 163.577L160 157.624C164.193 156.813 167.982 155.189 171.5 152.888L175.694 157.082C176.776 158.165 178.399 158.165 179.347 157.082L184.353 152.077C185.435 150.994 185.435 149.371 184.353 148.424L180.159 144.23C182.459 140.847 184.082 136.924 184.895 132.729H190.848C192.336 132.729 193.419 131.512 193.419 130.158V122.988C193.419 121.5 192.201 120.417 190.848 120.417L185.03 120.418C184.218 116.224 182.595 112.436 180.294 108.918L184.488 104.724C185.57 103.641 185.57 102.018 184.488 101.071L179.482 96.0649C178.4 94.9824 176.776 94.9824 175.829 96.0649L171.5 100.259C168.118 97.9589 164.195 96.3357 160 95.523V89.5708C160 88.0825 158.782 87 157.429 87H150.258C148.77 87 147.687 88.2174 147.687 89.5708V95.388C143.493 96.1996 139.705 97.8228 136.187 100.124L131.993 95.9299C130.911 94.8474 129.287 94.8474 128.34 95.9299L123.334 100.935C122.388 102.018 122.388 103.776 123.334 104.724H123.334ZM153.911 105.806C165.411 105.806 174.745 115.142 174.745 126.641C174.745 138.141 165.41 147.476 153.911 147.476C142.41 147.476 133.076 138.14 133.076 126.641C133.211 115.006 142.41 105.806 153.911 105.806ZM145.387 132.324L140.516 127.318L145.658 122.177L150.528 127.182L162.299 115.547L167.44 120.688L155.67 132.324L150.528 137.465L145.387 132.324Z" fill="#070747"/>
<defs>
<filter id="filter0_d_0_1" x="0" y="0" width="320" height="320" filterUnits="userSpaceOnUse" color-interpolation-filters="sRGB">
<feFlood flood-opacity="0" result="BackgroundImageFix"/>
<feColorMatrix in="SourceAlpha" type="matrix" values="0 0 0 0 0 0 0 0 0 0 0 0 0 0 0 0 0 0 127 0" result="hardAlpha"/>
<feOffset dx="10" dy="10"/>
<feGaussianBlur stdDeviation="17.5"/>
<feComposite in2="hardAlpha" operator="out"/>
<feColorMatrix type="matrix" values="0 0 0 0 0 0 0 0 0 0 0 0 0 0 0 0 0 0 0.1 0"/>
<feBlend mode="normal" in2="BackgroundImageFix" result="effect1_dropShadow_0_1"/>
<feBlend mode="normal" in="SourceGraphic" in2="effect1_dropShadow_0_1" result="shape"/>
</filter>
</defs>
</svg>
