<svg id="Layer_1" data-name="Layer 1" xmlns="http://www.w3.org/2000/svg" xmlns:xlink="http://www.w3.org/1999/xlink" viewBox="0 0 371.57 246.46"><defs><style>.cls-1{fill:none;}.cls-2{clip-path:url(#clip-path);}.cls-3{clip-path:url(#clip-path-2);}.cls-11,.cls-37,.cls-4,.cls-40,.cls-7{fill:#fff;}.cls-4{fill-opacity:0.6;}.cls-5{clip-path:url(#clip-path-3);}.cls-6{fill:#ff5a6d;}.cls-8{clip-path:url(#clip-path-4);}.cls-9{clip-path:url(#clip-path-5);}.cls-10{clip-path:url(#clip-path-6);}.cls-11{fill-opacity:0.3;}.cls-12{clip-path:url(#clip-path-7);}.cls-13{fill-opacity:0.2;}.cls-14{clip-path:url(#clip-path-8);}.cls-15{clip-path:url(#clip-path-9);}.cls-16{clip-path:url(#clip-path-10);}.cls-17{clip-path:url(#clip-path-11);}.cls-18{clip-path:url(#clip-path-12);}.cls-19{clip-path:url(#clip-path-13);}.cls-20{clip-path:url(#clip-path-14);}.cls-21{clip-path:url(#clip-path-15);}.cls-22{fill:#007aff;}.cls-23{fill:#491eb8;}.cls-23,.cls-27{opacity:0.43;}.cls-23,.cls-24,.cls-27,.cls-33,.cls-34{isolation:isolate;}.cls-24,.cls-26,.cls-27{fill:#76f7ff;}.cls-24,.cls-33{opacity:0.2;}.cls-25,.cls-32{fill:#b3caf8;}.cls-28{fill:#b3825d;}.cls-29,.cls-34,.cls-39{fill:#18204d;}.cls-30{fill:#f05936;}.cls-31,.cls-33{fill:#303030;}.cls-32,.cls-39{fill-rule:evenodd;}.cls-34{opacity:0.16;}.cls-35{clip-path:url(#clip-path-16);}.cls-36{clip-path:url(#clip-path-17);}.cls-37{fill-opacity:0.7;}.cls-38{clip-path:url(#clip-path-18);}.cls-40{font-size:10px;font-family:Poppins-SemiBold, Poppins;font-weight:600;}</style><clipPath id="clip-path" transform="translate(-13.69 -14.21)"><rect class="cls-1" y="0.52" width="398.95" height="273.84" rx="13.69"/></clipPath><clipPath id="clip-path-2" transform="translate(-13.69 -14.21)"><rect class="cls-1" x="13.69" y="14.21" width="193.57" height="199.53"/></clipPath><clipPath id="clip-path-3" transform="translate(-13.69 -14.21)"><rect class="cls-1" x="13.69" y="38.59" width="193.57" height="39.33"/></clipPath><clipPath id="clip-path-4" transform="translate(-13.69 -14.21)"><rect class="cls-1" x="52.03" y="38.59" width="155.23" height="39.33"/></clipPath><clipPath id="clip-path-5" transform="translate(-13.69 -14.21)"><rect class="cls-1" x="52.03" y="38.59" width="155.23" height="13.69"/></clipPath><clipPath id="clip-path-6" transform="translate(-13.69 -14.21)"><path class="cls-1" d="M53.74,57.76h113a1.71,1.71,0,0,1,1.71,1.71h0a1.7,1.7,0,0,1-1.71,1.71h-113A1.71,1.71,0,0,1,52,59.47h0A1.72,1.72,0,0,1,53.74,57.76Z"/></clipPath><clipPath id="clip-path-7" transform="translate(-13.69 -14.21)"><rect class="cls-1" x="13.69" y="97.92" width="193.57" height="48.02"/></clipPath><clipPath id="clip-path-8" transform="translate(-13.69 -14.21)"><rect class="cls-1" x="52.03" y="97.92" width="155.23" height="48.02"/></clipPath><clipPath id="clip-path-9" transform="translate(-13.69 -14.21)"><rect class="cls-1" x="52.03" y="97.92" width="155.23" height="13.69"/></clipPath><clipPath id="clip-path-10" transform="translate(-13.69 -14.21)"><path class="cls-1" d="M53.74,117.09H173.55a1.71,1.71,0,0,1,1.71,1.71h0a1.72,1.72,0,0,1-1.71,1.71H53.74A1.72,1.72,0,0,1,52,118.8h0A1.71,1.71,0,0,1,53.74,117.09Z"/></clipPath><clipPath id="clip-path-11" transform="translate(-13.69 -14.21)"><rect class="cls-1" x="13.69" y="165.94" width="192.2" height="47.8"/></clipPath><clipPath id="clip-path-12" transform="translate(-13.69 -14.21)"><rect class="cls-1" x="52.03" y="165.94" width="153.86" height="47.8"/></clipPath><clipPath id="clip-path-13" transform="translate(-13.69 -14.21)"><rect class="cls-1" x="52.03" y="165.94" width="153.86" height="13.69"/></clipPath><clipPath id="clip-path-14" transform="translate(-13.69 -14.21)"><path class="cls-1" d="M53.74,185.11H173.55a1.72,1.72,0,0,1,1.71,1.71h0a1.71,1.71,0,0,1-1.71,1.71H53.74A1.71,1.71,0,0,1,52,186.82h0A1.72,1.72,0,0,1,53.74,185.11Z"/></clipPath><clipPath id="clip-path-15" transform="translate(-13.69 -14.21)"><rect class="cls-1" x="220.95" y="14.21" width="164.31" height="246.46" rx="6.85"/></clipPath><clipPath id="clip-path-16" transform="translate(-13.69 -14.21)"><rect class="cls-1" x="241.54" y="151.13" width="123" height="70.69"/></clipPath><clipPath id="clip-path-17" transform="translate(-13.69 -14.21)"><rect class="cls-1" x="277.71" y="199.92" width="50.66" height="21.91"/></clipPath><clipPath id="clip-path-18" transform="translate(-13.69 -14.21)"><rect class="cls-1" x="349.66" y="27.91" width="21.91" height="50.66"/></clipPath></defs><g class="cls-2"><g class="cls-3"><rect class="cls-4" width="45.41" height="4.38" rx="2.19"/><g class="cls-5"><circle class="cls-6" cx="12.32" cy="36.7" r="12.32"/><path class="cls-7" d="M26.27,55.7h1.21V46.05h-1.2L23.71,47.9v1.27l2.46-1.78h.1Z" transform="translate(-13.69 -14.21)"/><g class="cls-8"><g class="cls-9"><rect class="cls-6" x="164.81" y="24.38" width="28.75" height="13.69" rx="3.42"/><path class="cls-7" d="M185.61,49.11a2.15,2.15,0,0,0,2.27-2.18h0a2,2,0,0,0-2-2.08,1.74,1.74,0,0,0-1.66.95h-.08c0-1.32.45-2.43,1.55-2.43a1.17,1.17,0,0,1,1.17.79l0,0h1v0a2.08,2.08,0,0,0-2.15-1.6c-1.55,0-2.47,1.25-2.47,3.37h0c0,2.31,1.18,3.19,2.44,3.19Zm-1.33-2.18h0a1.32,1.32,0,0,1,2.64,0h0a1.32,1.32,0,1,1-2.64,0Zm5.56-2.12a.63.63,0,1,0-.64-.63A.63.63,0,0,0,189.84,44.81Zm0,3.29a.64.64,0,1,0-.64-.63A.63.63,0,0,0,189.84,48.1Zm4.27,1c1.44,0,2.32-1.26,2.32-3.28h0c0-2-.88-3.28-2.32-3.28s-2.32,1.26-2.32,3.28h0C191.79,47.85,192.66,49.11,194.11,49.11Zm0-.81c-.84,0-1.34-.94-1.34-2.47h0c0-1.54.49-2.47,1.34-2.47s1.33.93,1.33,2.47h0C195.44,47.36,195,48.3,194.11,48.3Zm5.82.78c1.39,0,2.37-.75,2.37-1.81h0a1.65,1.65,0,0,0-1.39-1.6v0a1.46,1.46,0,0,0,1.16-1.39h0c0-1-.89-1.67-2.14-1.67s-2.15.71-2.15,1.67h0A1.47,1.47,0,0,0,199,45.64v0a1.65,1.65,0,0,0-1.39,1.6h0C197.56,48.33,198.54,49.08,199.93,49.08Zm0-3.77a1.06,1.06,0,0,1-1.19-1h0c0-.57.49-1,1.19-1s1.18.4,1.18,1h0A1,1,0,0,1,199.93,45.31Zm0,3c-.8,0-1.37-.46-1.37-1.1h0c0-.65.56-1.11,1.37-1.11s1.37.46,1.37,1.11h0C201.3,47.84,200.73,48.3,199.93,48.3Z" transform="translate(-13.69 -14.21)"/></g><g class="cls-10"><path class="cls-6" d="M53.74,57.76h113a1.71,1.71,0,0,1,1.71,1.71h0a1.7,1.7,0,0,1-1.71,1.71h-113A1.71,1.71,0,0,1,52,59.47h0A1.72,1.72,0,0,1,53.74,57.76Z" transform="translate(-13.69 -14.21)"/><path class="cls-7" d="M53.74,58.44h13a1,1,0,0,1,1,1h0a1,1,0,0,1-1,1h-13a1,1,0,0,1-1-1h0A1,1,0,0,1,53.74,58.44Z" transform="translate(-13.69 -14.21)"/></g><path class="cls-11" d="M53.42,66.66H146.6A1.39,1.39,0,0,1,148,68.05h0a1.39,1.39,0,0,1-1.39,1.39H53.42A1.39,1.39,0,0,1,52,68.05h0A1.39,1.39,0,0,1,53.42,66.66Z" transform="translate(-13.69 -14.21)"/><path class="cls-11" d="M53.53,74.92h116a1.5,1.5,0,0,1,1.5,1.5h0a1.5,1.5,0,0,1-1.5,1.5h-116a1.5,1.5,0,0,1-1.5-1.5h0A1.5,1.5,0,0,1,53.53,74.92Z" transform="translate(-13.69 -14.21)"/></g></g><g class="cls-12"><circle class="cls-13" cx="12.32" cy="96.03" r="12.32"/><path class="cls-7" d="M23.3,115h6.25v-1.09H25v-.1l2.2-2.27c1.74-1.8,2.21-2.6,2.21-3.7v0a2.78,2.78,0,0,0-3-2.7,3,3,0,0,0-3.18,2.94H24.4v0a1.81,1.81,0,0,1,1.93-1.89A1.7,1.7,0,0,1,28.15,108h0c0,.85-.36,1.35-1.59,2.68L23.3,114.2Z" transform="translate(-13.69 -14.21)"/><g class="cls-14"><g class="cls-15"><rect class="cls-13" x="164.81" y="83.7" width="28.75" height="13.69" rx="3.42"/><path class="cls-7" d="M185.44,101.86a2.16,2.16,0,0,0-2.27,2.19h0a2,2,0,0,0,2.05,2.08,1.75,1.75,0,0,0,1.65-1H187c0,1.32-.46,2.42-1.56,2.42a1.18,1.18,0,0,1-1.17-.78v0h-1v0a2.07,2.07,0,0,0,2.14,1.6c1.56,0,2.48-1.25,2.48-3.38h0c0-2.31-1.18-3.2-2.44-3.2Zm0,3.49a1.27,1.27,0,0,1-1.3-1.32h0a1.32,1.32,0,1,1,2.63,0h0A1.27,1.27,0,0,1,185.43,105.35Zm4.39-1.21a.64.64,0,1,0-.64-.63A.62.62,0,0,0,189.82,104.14Zm0,3.29a.64.64,0,1,0-.64-.64A.63.63,0,0,0,189.82,107.43Zm4.26,1c1.44,0,2.32-1.26,2.32-3.29h0c0-2-.87-3.29-2.32-3.29s-2.31,1.26-2.31,3.29h0C191.77,107.17,192.64,108.44,194.08,108.44Zm0-.81c-.84,0-1.33-.94-1.33-2.47h0c0-1.54.49-2.47,1.33-2.47s1.34.93,1.34,2.47h0C195.42,106.69,194.92,107.63,194.08,107.63Zm3.57.66h4.22v-.83H199v-.09l1.32-1.32c1.14-1.13,1.47-1.68,1.47-2.39v0a1.85,1.85,0,0,0-2-1.77,2,2,0,0,0-2.15,1.95h.93a1.1,1.1,0,0,1,1.17-1.15,1,1,0,0,1,1.11,1.06v0c0,.51-.24.83-1.07,1.69l-2.08,2.19Z" transform="translate(-13.69 -14.21)"/></g><g class="cls-16"><path class="cls-13" d="M53.74,117.09H173.55a1.71,1.71,0,0,1,1.71,1.71h0a1.72,1.72,0,0,1-1.71,1.71H53.74A1.72,1.72,0,0,1,52,118.8h0A1.71,1.71,0,0,1,53.74,117.09Z" transform="translate(-13.69 -14.21)"/><path class="cls-7" d="M53.74,117.77H59.9a1,1,0,0,1,1,1h0a1,1,0,0,1-1,1H53.74a1,1,0,0,1-1-1h0A1,1,0,0,1,53.74,117.77Z" transform="translate(-13.69 -14.21)"/></g><rect class="cls-11" x="38.34" y="111.77" width="105" height="3" rx="1.5"/><path class="cls-11" d="M53.53,134.46h63A1.5,1.5,0,0,1,118,136h0a1.5,1.5,0,0,1-1.5,1.5h-63A1.5,1.5,0,0,1,52,136h0A1.5,1.5,0,0,1,53.53,134.46Z" transform="translate(-13.69 -14.21)"/><path class="cls-11" d="M53.53,142.94h63a1.5,1.5,0,0,1,1.5,1.5h0a1.5,1.5,0,0,1-1.5,1.5h-63a1.5,1.5,0,0,1-1.5-1.5h0A1.5,1.5,0,0,1,53.53,142.94Z" transform="translate(-13.69 -14.21)"/></g></g><g class="cls-17"><circle class="cls-13" cx="12.32" cy="164.05" r="12.32"/><path class="cls-7" d="M26.42,183.21c1.94,0,3.35-1.19,3.35-2.8h0A2.33,2.33,0,0,0,27.41,178v0a2.32,2.32,0,0,0,2.05-2.26h0c0-1.47-1.21-2.49-3.05-2.49a2.94,2.94,0,0,0-3.2,2.62v.07h1.16v-.07a1.84,1.84,0,0,1,2.05-1.57c1.18,0,1.84.58,1.84,1.59h0a1.76,1.76,0,0,1-1.95,1.67H25.14v1h1.21c1.35,0,2.2.66,2.2,1.84v0c0,1-.86,1.73-2.13,1.73s-2.16-.66-2.25-1.61v-.06H23v.08c.13,1.52,1.42,2.63,3.41,2.63Z" transform="translate(-13.69 -14.21)"/><g class="cls-18"><g class="cls-19"><rect class="cls-13" x="164.81" y="151.73" width="27.38" height="13.69" rx="3.42"/><path class="cls-7" d="M185.44,169.89a2.15,2.15,0,0,0-2.27,2.18h0a2,2,0,0,0,2.05,2.08,1.73,1.73,0,0,0,1.65-.95H187c0,1.32-.46,2.43-1.56,2.43a1.19,1.19,0,0,1-1.17-.78v-.05h-1v.05a2.07,2.07,0,0,0,2.14,1.6c1.56,0,2.48-1.25,2.48-3.37h0c0-2.31-1.18-3.19-2.44-3.19Zm0,3.49a1.27,1.27,0,0,1-1.3-1.33h0a1.32,1.32,0,1,1,2.63,0h0A1.28,1.28,0,0,1,185.43,173.38Zm4.39-1.22a.63.63,0,1,0-.64-.63A.62.62,0,0,0,189.82,172.16Zm0,3.29a.64.64,0,1,0-.64-.63A.62.62,0,0,0,189.82,175.45Zm4.25,1c1.33,0,2.27-.78,2.27-1.85h0a1.51,1.51,0,0,0-1.54-1.52v0a1.49,1.49,0,0,0,1.32-1.46h0c0-1-.81-1.64-2.06-1.64a2,2,0,0,0-2.16,1.76v0h.91v0a1.11,1.11,0,0,1,1.24-1c.71,0,1.12.36,1.12,1h0a1.07,1.07,0,0,1-1.21,1h-.73v.76H194c.84,0,1.35.39,1.35,1.1h0c0,.62-.52,1.05-1.28,1.05s-1.3-.4-1.36-1v-.05h-.93v.06a2,2,0,0,0,2.29,1.77Zm5.05-.12h1V170h-1l-1.66,1.17v1L199,171h.08Z" transform="translate(-13.69 -14.21)"/></g><g class="cls-20"><path class="cls-13" d="M53.74,185.11H173.55a1.72,1.72,0,0,1,1.71,1.71h0a1.71,1.71,0,0,1-1.71,1.71H53.74A1.71,1.71,0,0,1,52,186.82h0A1.72,1.72,0,0,1,53.74,185.11Z" transform="translate(-13.69 -14.21)"/><path class="cls-7" d="M53.74,185.79H101a1,1,0,0,1,1,1h0a1,1,0,0,1-1,1H53.74a1,1,0,0,1-1-1h0A1,1,0,0,1,53.74,185.79Z" transform="translate(-13.69 -14.21)"/></g><path class="cls-11" d="M53.42,194H146.6A1.39,1.39,0,0,1,148,195.4h0a1.39,1.39,0,0,1-1.39,1.39H53.42A1.39,1.39,0,0,1,52,195.4h0A1.39,1.39,0,0,1,53.42,194Z" transform="translate(-13.69 -14.21)"/><path class="cls-11" d="M53.53,202.27h108a1.5,1.5,0,0,1,1.5,1.5h0a1.5,1.5,0,0,1-1.5,1.5h-108a1.5,1.5,0,0,1-1.5-1.5h0A1.5,1.5,0,0,1,53.53,202.27Z" transform="translate(-13.69 -14.21)"/><path class="cls-11" d="M53.53,210.75h58a1.5,1.5,0,0,1,1.5,1.5h0a1.5,1.5,0,0,1-1.5,1.5h-58a1.5,1.5,0,0,1-1.5-1.5h0A1.5,1.5,0,0,1,53.53,210.75Z" transform="translate(-13.69 -14.21)"/></g></g></g><g class="cls-21"><rect class="cls-7" x="207.26" width="164.31" height="246.46" rx="6.85"/><rect class="cls-22" x="207.26" width="164.31" height="246.46" rx="6.85"/><path class="cls-23" d="M251.42,88.29c-4.78,4.59-8.54,12.75-5.71,17.41,1.61,2.64,4.87,3.38,16,4a320.06,320.06,0,0,0,37.55-.13c14.4-1.07,12.15-1.52,22.06-2,11.21-.55,16.33-.08,25-2.17,6.94-1.67,11-2.64,14.94-6.11,8.86-7.71,8.64-20,8.61-22-.05-2.78-.59-12.36-7.66-20.09C351.53,45.49,331.6,44,321,51.88c-12.38,9.19-4.86,25.88-16,31.82C295.14,89,285.46,78,263.55,82.45a23.71,23.71,0,0,0-12.13,5.84Z" transform="translate(-13.69 -14.21)"/><path class="cls-24" d="M244.74,121.43a4.4,4.4,0,0,1-3.51-1.29c-2.31-2.63-.79-9.18,3-12.74,4.07-3.85,9.79-3,19.26-1.68,3.28.48,7,1,11.26,1.43a175.59,175.59,0,0,0,28.61.47.09.09,0,0,1,.09.09.08.08,0,0,1-.08.09,176,176,0,0,1-28.64-.47c-4.26-.42-8-1-11.27-1.43-9.42-1.35-15.1-2.16-19.11,1.63-3.7,3.5-5.22,9.92-3,12.5,2,2.28,6.63.94,12-.62,1.46-.42,3-.86,4.49-1.24,11.5-2.9,18.19-1.25,24.67.34,5.81,1.43,11.81,2.91,21.33,1.26,9.74-1.69,15.89-5.33,21.32-8.53,6.3-3.72,11.28-6.66,19.15-4.66a31.3,31.3,0,0,1,9.61,4.58c3,2,5.44,3.5,8.33,2.39s5-4.19,6.14-8.81a32.84,32.84,0,0,0,.35-13.62c-2.46-12.85-15.05-21.24-25.64-22.61-6.33-.82-10,1.07-14.22,3.25-4,2-8.49,4.37-16.13,4.74-7.94.38-12.72-1.62-17.79-3.74-4.45-1.85-9.05-3.78-16.09-4.09a.09.09,0,0,1-.08-.09.09.09,0,0,1,.09-.09h0c7.07.31,11.69,2.24,16.15,4.11,5,2.11,9.81,4.1,17.72,3.72,7.6-.37,12.09-2.68,16.05-4.72,4.26-2.2,7.94-4.09,14.32-3.27,10.66,1.38,23.32,9.82,25.8,22.76a33.23,33.23,0,0,1-.35,13.7c-1.19,4.67-3.42,7.85-6.26,8.93s-5.41-.43-8.49-2.41a30.9,30.9,0,0,0-9.55-4.56c-7.8-2-12.75.94-19,4.64-5.44,3.22-11.61,6.86-21.38,8.56-9.56,1.66-15.58.17-21.4-1.26-6.76-1.67-13.13-3.24-24.58-.35-1.53.38-3,.82-4.49,1.25-3.31,1-6.34,1.84-8.67,1.84Z" transform="translate(-13.69 -14.21)"/><path class="cls-25" d="M331,99.45A15.85,15.85,0,1,0,315.13,83.6,15.86,15.86,0,0,0,331,99.45Z" transform="translate(-13.69 -14.21)"/><path class="cls-26" d="M340.8,98.33H316.93v16.72H340.8Z" transform="translate(-13.69 -14.21)"/><path class="cls-27" d="M293.26,72.34a9.19,9.19,0,1,0-9.18-9.19A9.18,9.18,0,0,0,293.26,72.34Z" transform="translate(-13.69 -14.21)"/><path class="cls-28" d="M300.07,115.87a2.88,2.88,0,0,1,0-5.76l10.71-.08.74-12.77a2.88,2.88,0,0,1,5.76.33l-.8,13.79a4.69,4.69,0,0,1-4.64,4.41l-11.73.08Z" transform="translate(-13.69 -14.21)"/><path class="cls-28" d="M329.33,115.78a2.89,2.89,0,0,1-.12-5.77l10.31-.41V97.43a2.88,2.88,0,1,1,5.76,0V110.3a5,5,0,0,1-4.84,5l-11,.44Z" transform="translate(-13.69 -14.21)"/><path class="cls-29" d="M363.36,118.64H247.88a1.53,1.53,0,1,1,0-3.06H363.36a1.53,1.53,0,0,1,0,3.06Z" transform="translate(-13.69 -14.21)"/><path class="cls-26" d="M310.82,100.89c0-10.46,7.4-15,17-15s17.86,4.56,17.86,15" transform="translate(-13.69 -14.21)"/><path class="cls-30" d="M324,73a1.37,1.37,0,1,0-1.37-1.37A1.37,1.37,0,0,0,324,73Z" transform="translate(-13.69 -14.21)"/><path class="cls-30" d="M331.66,73a1.37,1.37,0,1,0-1.37-1.37A1.37,1.37,0,0,0,331.66,73Z" transform="translate(-13.69 -14.21)"/><path class="cls-28" d="M331.66,76.73V88.24a3.78,3.78,0,1,1-7.55,0V76.73a3.7,3.7,0,0,1,.64-2.1,3.78,3.78,0,0,1,6.91,2.1Z" transform="translate(-13.69 -14.21)"/><path class="cls-31" d="M331.66,75,331,79.18c0,2.06-.81,4.8-2.81,5-3.67.34-4.12-1.69-4.12-3.78V72.92a4.25,4.25,0,0,1,3.42-1.66,4.34,4.34,0,0,1,2.92,1.1A3.6,3.6,0,0,1,331.66,75Z" transform="translate(-13.69 -14.21)"/><path class="cls-28" d="M328.1,83.42h-.43a3.56,3.56,0,0,1-3.56-3.57V70a3.56,3.56,0,0,1,3.56-3.56h.43A3.57,3.57,0,0,1,331.66,70v9.84A3.57,3.57,0,0,1,328.1,83.42Z" transform="translate(-13.69 -14.21)"/><path class="cls-26" d="M324.65,69l6.51,0c1.37,0,1.48-4.74-.8-4.17l-.43.27a3,3,0,0,0-1.79-.57l-3.51,0a1.86,1.86,0,0,0-1.85,1.87C322.78,67.39,323.62,69,324.65,69Z" transform="translate(-13.69 -14.21)"/><path class="cls-31" d="M325.57,72.3a.36.36,0,1,0-.35-.35A.36.36,0,0,0,325.57,72.3Z" transform="translate(-13.69 -14.21)"/><path class="cls-31" d="M328.77,72.3a.36.36,0,0,0,0-.71.36.36,0,1,0,0,.71Z" transform="translate(-13.69 -14.21)"/><path class="cls-31" d="M327,77.14a.59.59,0,0,1-.35-.12.89.89,0,0,1-.32-.58,2,2,0,0,1,.22-.92l0-.08a8.06,8.06,0,0,0,.57-2.56l.18,0a8.44,8.44,0,0,1-.58,2.61l0,.08a2,2,0,0,0-.2.84.68.68,0,0,0,.25.44.36.36,0,0,0,.3.08l0,.18Z" transform="translate(-13.69 -14.21)"/><path class="cls-31" d="M327,79.27a2,2,0,0,1-.38,0l0-.17a1.53,1.53,0,0,0,1.14-.21,1.46,1.46,0,0,0,.49-1.14h.18a1.6,1.6,0,0,1-.57,1.28,1.44,1.44,0,0,1-.9.28Z" transform="translate(-13.69 -14.21)"/><path class="cls-25" d="M328,92.9h-.21a.19.19,0,0,1-.18-.21.2.2,0,0,1,.21-.19,5,5,0,0,0,3.42-1.17,4.66,4.66,0,0,0,1.31-3.57.2.2,0,1,1,.4,0,5.1,5.1,0,0,1-1.44,3.87A5.31,5.31,0,0,1,328,92.9Z" transform="translate(-13.69 -14.21)"/><path class="cls-25" d="M362.56,113.76H351.24v1.71l11.33,0Z" transform="translate(-13.69 -14.21)"/><path class="cls-29" d="M361.23,112H349.91v1.71l11.33,0Z" transform="translate(-13.69 -14.21)"/><path class="cls-26" d="M362.94,110.32H351.62V112h11.32Z" transform="translate(-13.69 -14.21)"/><path class="cls-26" d="M298.33,115.32h-6.92a2.06,2.06,0,0,1,2.06-2.06h2.8a2.06,2.06,0,0,1,2.06,2.06Z" transform="translate(-13.69 -14.21)"/><path class="cls-25" d="M356.42,119.59H260.07a.42.42,0,1,1,0-.83h96.35a.42.42,0,1,1,0,.83Z" transform="translate(-13.69 -14.21)"/><path class="cls-26" d="M347.1,70.27a4.71,4.71,0,1,0-4.7-4.7A4.7,4.7,0,0,0,347.1,70.27Z" transform="translate(-13.69 -14.21)"/><path class="cls-31" d="M325.93,70.7l-1.93.47,0,.17,1.93-.46Z" transform="translate(-13.69 -14.21)"/><path class="cls-31" d="M328.32,70.7l0,.18,1.93.46,0-.17Z" transform="translate(-13.69 -14.21)"/><path class="cls-26" d="M330.24,69.71a.09.09,0,1,0-.09-.09A.09.09,0,0,0,330.24,69.71Z" transform="translate(-13.69 -14.21)"/><path class="cls-26" d="M330.15,69.31a.09.09,0,1,0-.09-.09A.09.09,0,0,0,330.15,69.31Z" transform="translate(-13.69 -14.21)"/><path class="cls-26" d="M329.47,69.31a.09.09,0,1,0-.09-.09A.09.09,0,0,0,329.47,69.31Z" transform="translate(-13.69 -14.21)"/><path class="cls-26" d="M329.81,69.31a.09.09,0,1,0-.09-.09A.09.09,0,0,0,329.81,69.31Z" transform="translate(-13.69 -14.21)"/><path class="cls-26" d="M331.21,69.31a.09.09,0,1,0-.09-.09A.09.09,0,0,0,331.21,69.31Z" transform="translate(-13.69 -14.21)"/><path class="cls-26" d="M330.54,69.31a.09.09,0,1,0-.09-.09A.09.09,0,0,0,330.54,69.31Z" transform="translate(-13.69 -14.21)"/><path class="cls-26" d="M330.87,69.31a.09.09,0,1,0-.09-.09A.09.09,0,0,0,330.87,69.31Z" transform="translate(-13.69 -14.21)"/><path class="cls-26" d="M331.32,69.62a.09.09,0,1,0-.09-.09A.09.09,0,0,0,331.32,69.62Z" transform="translate(-13.69 -14.21)"/><path class="cls-26" d="M330.61,69.7a.09.09,0,1,0-.09-.09A.09.09,0,0,0,330.61,69.7Z" transform="translate(-13.69 -14.21)"/><path class="cls-26" d="M331,69.71a.09.09,0,1,0-.09-.09A.09.09,0,0,0,331,69.71Z" transform="translate(-13.69 -14.21)"/><path class="cls-26" d="M331.36,70a.09.09,0,1,0-.09-.09A.09.09,0,0,0,331.36,70Z" transform="translate(-13.69 -14.21)"/><path class="cls-26" d="M330.62,70.05a.09.09,0,1,0-.09-.09A.09.09,0,0,0,330.62,70.05Z" transform="translate(-13.69 -14.21)"/><path class="cls-26" d="M331,70a.09.09,0,1,0-.09-.09A.09.09,0,0,0,331,70Z" transform="translate(-13.69 -14.21)"/><path class="cls-26" d="M331.39,70.3a.09.09,0,1,0-.09-.09A.09.09,0,0,0,331.39,70.3Z" transform="translate(-13.69 -14.21)"/><path class="cls-26" d="M331.06,70.38a.09.09,0,1,0-.09-.09A.09.09,0,0,0,331.06,70.38Z" transform="translate(-13.69 -14.21)"/><path class="cls-26" d="M331.42,70.64a.09.09,0,1,0-.09-.09A.09.09,0,0,0,331.42,70.64Z" transform="translate(-13.69 -14.21)"/><path class="cls-26" d="M331.08,70.73a.09.09,0,1,0-.09-.09A.09.09,0,0,0,331.08,70.73Z" transform="translate(-13.69 -14.21)"/><path class="cls-26" d="M331.42,71a.09.09,0,1,0-.09-.09A.09.09,0,0,0,331.42,71Z" transform="translate(-13.69 -14.21)"/><path class="cls-26" d="M331.08,71.07A.09.09,0,1,0,331,71,.09.09,0,0,0,331.08,71.07Z" transform="translate(-13.69 -14.21)"/><path class="cls-26" d="M331.42,71.33a.09.09,0,1,0-.09-.09A.09.09,0,0,0,331.42,71.33Z" transform="translate(-13.69 -14.21)"/><path class="cls-26" d="M331.08,71.42a.09.09,0,1,0-.09-.09A.09.09,0,0,0,331.08,71.42Z" transform="translate(-13.69 -14.21)"/><path class="cls-26" d="M331.42,71.68a.09.09,0,1,0-.09-.09A.09.09,0,0,0,331.42,71.68Z" transform="translate(-13.69 -14.21)"/><path class="cls-26" d="M331.08,71.77a.09.09,0,1,0-.09-.09A.09.09,0,0,0,331.08,71.77Z" transform="translate(-13.69 -14.21)"/><path class="cls-25" d="M245.92,71.78l39.26,1.37a2.16,2.16,0,0,1,1.43,1.08L288.23,77h.15l-1.61-2.74a2.57,2.57,0,0,0-1.7-1.28l-39.26-1.37c-.54,0-.64.53-.23,1.21l1.61,2.74h.16l-1.62-2.74c-.34-.58-.25-1,.19-1Z" transform="translate(-13.69 -14.21)"/><path class="cls-32" d="M285.23,73l-.17,0L245.8,71.58c-.36,0-.53.24-.46.62a1.84,1.84,0,0,0,.23.59l1.62,2.74h.15l-1.61-2.74,0-.07a1.23,1.23,0,0,1-.17-.55.35.35,0,0,1,.4-.4l39.26,1.37h0a2.19,2.19,0,0,1,1.41,1.08L288.22,77h.16l-1.61-2.74,0-.07A2.76,2.76,0,0,0,285.23,73Zm-39.32-1,39.26,1.37a1.36,1.36,0,0,1,.66.29,2.32,2.32,0,0,1,.62.7l1.67,2.82.58,0-1.78-3a3.2,3.2,0,0,0-.85-.94,1.9,1.9,0,0,0-1-.43L245.81,71.4a.64.64,0,0,0-.43.12.59.59,0,0,0-.22.37,1.43,1.43,0,0,0,.26,1l1.66,2.83.59,0-1.79-3a.93.93,0,0,1-.17-.61.15.15,0,0,1,0-.1.25.25,0,0,1,.15,0Z" transform="translate(-13.69 -14.21)"/><path class="cls-25" d="M304.67,104.57l-1-1.76-11-18.6-2-3.41h-.16l2,3.41,11,18.6,1,1.77c.34.57.26,1-.19,1l-39.26-1.37a2.14,2.14,0,0,1-1.43-1.07l-.53-.9-3.33-5.64-.63-1.07-3.33-5.64-.87-1.47-3.32-5.64-2-3.42h-.15l2,3.41,3.33,5.64.87,1.48L259,95.53l.63,1.07,3.33,5.64.53.89a2.53,2.53,0,0,0,1.7,1.28l39.26,1.37c.53,0,.63-.52.23-1.21Z" transform="translate(-13.69 -14.21)"/><path class="cls-32" d="M290.74,80.62l2.07,3.5,12,20.36a1.48,1.48,0,0,1,.25,1,.55.55,0,0,1-.22.36.61.61,0,0,1-.43.12l-39.26-1.37a1.88,1.88,0,0,1-1-.42,3.37,3.37,0,0,1-.85-1l-3.86-6.53-8.15-13.83-2.19-3.7.59,0,5.39,9.15,4.2,7.11,4,6.71.53.9a2.4,2.4,0,0,0,.62.69,1.22,1.22,0,0,0,.66.29l39.26,1.37a.26.26,0,0,0,.15,0,.19.19,0,0,0,0-.11.89.89,0,0,0-.17-.6L290.16,80.6Zm13.77,23.95a.16.16,0,0,1,0,.07,1.16,1.16,0,0,1,.17.53.35.35,0,0,1-.4.41l-39.26-1.37h0a2.18,2.18,0,0,1-1.41-1.07l-14-23.78h-.15l14,23.77a.16.16,0,0,0,0,.07,2.76,2.76,0,0,0,1.49,1.19l.17,0,39.26,1.37c.37,0,.53-.24.46-.63a1.88,1.88,0,0,0-.23-.58l-14-23.78h-.16Z" transform="translate(-13.69 -14.21)"/><path class="cls-26" d="M331.42,72a.09.09,0,1,0-.09-.09A.09.09,0,0,0,331.42,72Z" transform="translate(-13.69 -14.21)"/><path class="cls-26" d="M330.7,70.39a.09.09,0,1,0-.09-.09A.09.09,0,0,0,330.7,70.39Z" transform="translate(-13.69 -14.21)"/><path class="cls-25" d="M290.29,115.6H284.6l-4.31-7.8L286,108Z" transform="translate(-13.69 -14.21)"/><path class="cls-33" d="M289.64,114.55l-5.55,0-.9-1.56,5.55,0Z" transform="translate(-13.69 -14.21)"/><path class="cls-25" d="M299.46,115.6H275.32v-.13a.87.87,0,0,1,.88-.88h22.39a.87.87,0,0,1,.87.88Z" transform="translate(-13.69 -14.21)"/><path class="cls-26" d="M240.19,75.28l7,.25h.16l.8,0,39.27,1.37.81,0h.15l2.6.09a4,4,0,0,1,2.61,2c.62,1.06.46,1.89-.36,1.87l-2.59-.1h-.15l-.81,0-39.27-1.37-.81,0h-.15l-7-.25a3.93,3.93,0,0,1-2.61-2c-.63-1.06-.47-1.89.35-1.87Z" transform="translate(-13.69 -14.21)"/><path class="cls-26" d="M291.69,84.18l-16.57-.58,11,18.6,16.56.58.81,0-11-18.59Z" transform="translate(-13.69 -14.21)"/><path class="cls-26" d="M296.73,84.35l-4.27-.15,11,18.6,4.27.15Z" transform="translate(-13.69 -14.21)"/><path class="cls-26" d="M242.88,82.52l3.33,5.64,9.81.3-3.33-5.64Z" transform="translate(-13.69 -14.21)"/><path class="cls-26" d="M272.06,83.49l-19.63-.68-.82,0,3.33,5.64.81,0,19.64.68Z" transform="translate(-13.69 -14.21)"/><path class="cls-26" d="M333.64,115.82h-25.4v-.54a1,1,0,0,1,1-1h23.38a1,1,0,0,1,1,1Z" transform="translate(-13.69 -14.21)"/><path class="cls-25" d="M316.63,138.9H251.68a3.12,3.12,0,0,1-3.12-3.11V124.35a3.12,3.12,0,0,1,3.12-3.11h64.95a3.11,3.11,0,0,1,3.12,3.11v11.44A3.11,3.11,0,0,1,316.63,138.9Z" transform="translate(-13.69 -14.21)"/><path class="cls-25" d="M363,138.9H325.11a3.12,3.12,0,0,1-3.12-3.11V124.35a3.12,3.12,0,0,1,3.12-3.11H363a3.11,3.11,0,0,1,3.11,3.11v11.44A3.11,3.11,0,0,1,363,138.9Z" transform="translate(-13.69 -14.21)"/><path class="cls-26" d="M368.58,130.26H247.26a1.28,1.28,0,1,1,0-2.56H368.58a1.28,1.28,0,0,1,0,2.56Zm-121.32-2.18a.9.9,0,0,0,0,1.8H368.58a.9.9,0,0,0,0-1.8Z" transform="translate(-13.69 -14.21)"/><path class="cls-31" d="M274.6,86a.08.08,0,0,1-.08,0l-.19-.41a.1.1,0,0,1,0-.12.09.09,0,0,1,.12,0l.19.41a.09.09,0,0,1-.05.12Z" transform="translate(-13.69 -14.21)"/><path class="cls-31" d="M274,84.74a.08.08,0,0,1-.08,0l-.38-.81a.09.09,0,0,1,.05-.12.09.09,0,0,1,.12,0l.37.81a.09.09,0,0,1-.05.12Zm-.75-1.62a.08.08,0,0,1-.08-.06l-.37-.81a.09.09,0,0,1,0-.12.09.09,0,0,1,.12.05l.37.81a.1.1,0,0,1,0,.12Zm-.75-1.63a.1.1,0,0,1-.08,0l-.37-.81a.09.09,0,0,1,.16-.08l.38.81a.09.09,0,0,1-.05.12Zm-.74-1.62a.08.08,0,0,1-.08-.05l-.38-.82a.08.08,0,0,1,.05-.11s.09,0,.12,0l.37.81a.09.09,0,0,1-.05.12Zm-.75-1.63a.07.07,0,0,1-.08,0l-.38-.81a.09.09,0,0,1,.17-.07l.37.81a.1.1,0,0,1,0,.12Zm-.75-1.62a.1.1,0,0,1-.08-.05l-.37-.81a.09.09,0,1,1,.16-.08l.38.81a.09.09,0,0,1-.05.12ZM269.56,75a.11.11,0,0,1-.09,0l-.37-.82a.09.09,0,0,1,0-.12.09.09,0,0,1,.12,0l.37.81a.09.09,0,0,1-.05.12Zm-.75-1.63a.09.09,0,0,1-.08-.05l-.38-.81a.09.09,0,0,1,0-.12.1.1,0,0,1,.12,0l.37.82a.1.1,0,0,1,0,.12Zm-.75-1.62a.1.1,0,0,1-.08,0l-.37-.81a.09.09,0,1,1,.16-.08l.37.81a.08.08,0,0,1,0,.12Zm-.74-1.62a.1.1,0,0,1-.09-.06l-.37-.81a.09.09,0,0,1,.05-.12.08.08,0,0,1,.11,0l.38.81a.09.09,0,0,1,0,.12Zm-.75-1.63a.09.09,0,0,1-.08,0l-.38-.81a.09.09,0,0,1,.05-.12.1.1,0,0,1,.12,0l.37.82a.08.08,0,0,1,0,.11Zm-.75-1.62a.1.1,0,0,1-.08,0l-.37-.81a.09.09,0,0,1,0-.12.08.08,0,0,1,.12,0l.37.81a.08.08,0,0,1,0,.12Zm-.74-1.62a.1.1,0,0,1-.09-.06l-.37-.81a.1.1,0,0,1,0-.12.09.09,0,0,1,.12,0l.38.81a.09.09,0,0,1-.05.12Zm-.75-1.63a.09.09,0,0,1-.08-.05l-.17-.36a1.36,1.36,0,0,1-.12-.52.09.09,0,0,1,.09-.09c.05,0,.09,0,.09.09a1,1,0,0,0,.11.44l.16.36a.09.09,0,0,1,0,.12Zm0-1.66,0,0a.09.09,0,0,1,0-.13,1.27,1.27,0,0,1,.82-.45.09.09,0,0,1,0,.18,1.13,1.13,0,0,0-.71.39.08.08,0,0,1-.07,0Zm27.58-.43H291a.09.09,0,1,1,0-.18h.9a.09.09,0,1,1,0,.18Zm-1.79,0h-.89a.09.09,0,1,1,0-.18h.89a.09.09,0,0,1,0,.18Zm-1.79,0h-.89a.09.09,0,1,1,0-.18h.89a.09.09,0,0,1,0,.18Zm-1.78,0h-.9a.09.09,0,0,1,0-.18h.9a.09.09,0,1,1,0,.18Zm-1.79,0h-.89a.09.09,0,1,1,0-.18h.89a.09.09,0,0,1,0,.18Zm-1.79,0h-.89a.09.09,0,1,1,0-.18H283a.09.09,0,1,1,0,.18Zm-1.78,0h-.9a.09.09,0,1,1,0-.18h.9a.09.09,0,0,1,0,.18Zm-1.79,0h-.9a.09.09,0,1,1,0-.18h.9a.09.09,0,1,1,0,.18Zm-1.79,0h-.89a.09.09,0,1,1,0-.18h.89a.09.09,0,1,1,0,.18Zm-1.79,0h-.89a.09.09,0,1,1,0-.18h.89a.09.09,0,1,1,0,.18Zm-1.78,0h-.9a.09.09,0,1,1,0-.18h.9a.09.09,0,1,1,0,.18Zm-1.79,0h-.89a.09.09,0,1,1,0-.18h.89a.09.09,0,0,1,0,.18Zm-1.79,0h-.89a.09.09,0,1,1,0-.18h.89a.09.09,0,1,1,0,.18Zm-1.78,0h-.9a.09.09,0,1,1,0-.18h.9a.09.09,0,1,1,0,.18Zm-1.79,0H266a.09.09,0,1,1,0-.18h.89a.09.09,0,0,1,0,.18Z" transform="translate(-13.69 -14.21)"/><path class="cls-31" d="M293.27,61.54h-.45a.09.09,0,1,1,0-.18h.45a.09.09,0,0,1,0,.18Z" transform="translate(-13.69 -14.21)"/><path class="cls-31" d="M276.73,87.19c.22-.56-.29-1.29-1.15-1.64s-1.73-.16-2,.41.29,1.29,1.15,1.64S276.5,87.76,276.73,87.19Z" transform="translate(-13.69 -14.21)"/><path class="cls-31" d="M293.79,63a1.64,1.64,0,0,1-1.67-1.54,1.43,1.43,0,0,1,.42-1.06,1.6,1.6,0,0,1,1.17-.48,1.65,1.65,0,0,1,1.67,1.54,1.46,1.46,0,0,1-.42,1.06A1.63,1.63,0,0,1,293.79,63Zm-.08-2.9a1.43,1.43,0,0,0-1,.43,1.28,1.28,0,0,0-.36.93,1.5,1.5,0,0,0,2.53.94,1.38,1.38,0,0,0,.37-.94A1.46,1.46,0,0,0,293.71,60.09Z" transform="translate(-13.69 -14.21)"/><path class="cls-26" d="M293.75,62.16a.71.71,0,1,0-.71-.71A.71.71,0,0,0,293.75,62.16Z" transform="translate(-13.69 -14.21)"/><path class="cls-26" d="M295.24,64.83h-8.66a.15.15,0,0,1-.15-.15.15.15,0,0,1,.15-.15h8.66a.14.14,0,0,1,.15.15A.15.15,0,0,1,295.24,64.83Z" transform="translate(-13.69 -14.21)"/><path class="cls-26" d="M295.24,65.72h-8.66a.16.16,0,0,1-.15-.16.15.15,0,0,1,.15-.15h8.66a.15.15,0,0,1,.15.15A.15.15,0,0,1,295.24,65.72Z" transform="translate(-13.69 -14.21)"/><path class="cls-26" d="M249.07,54.11h-8.66a.14.14,0,0,1-.15-.15.15.15,0,0,1,.15-.15h8.66a.15.15,0,0,1,.15.15A.15.15,0,0,1,249.07,54.11Z" transform="translate(-13.69 -14.21)"/><path class="cls-26" d="M249.07,55.38h-8.66a.14.14,0,0,1-.15-.15.15.15,0,0,1,.15-.15h8.66a.15.15,0,0,1,.15.15A.15.15,0,0,1,249.07,55.38Z" transform="translate(-13.69 -14.21)"/><path class="cls-29" d="M259.89,95.53l-3.32-5.64-1.91,0L258,95.49Z" transform="translate(-13.69 -14.21)"/><path class="cls-29" d="M260,95.56l4.68.16-3.33-5.64-4.68-.16-.81,0,3.33,5.64Z" transform="translate(-13.69 -14.21)"/><path class="cls-29" d="M258.62,96.56l3.32,5.64,1.53,0-3.33-5.64Z" transform="translate(-13.69 -14.21)"/><path class="cls-29" d="M279.59,96.25l-3.33-5.64-6.65-.24L272.94,96Z" transform="translate(-13.69 -14.21)"/><path class="cls-29" d="M272.11,96l-3.32-5.64-6.66-.23,3.33,5.64Z" transform="translate(-13.69 -14.21)"/><path class="cls-29" d="M253.83,89.82l-6.65-.23,3.32,5.64,6.66.23Z" transform="translate(-13.69 -14.21)"/><path class="cls-29" d="M280.22,97.32l-6.65-.23,3.33,5.64,6.65.23Z" transform="translate(-13.69 -14.21)"/><path class="cls-29" d="M266.1,96.83l3.32,5.64,6.66.23-3.33-5.64Z" transform="translate(-13.69 -14.21)"/><path class="cls-29" d="M260.59,96.63l-.81,0,3.33,5.64.81,0,4.68.17-3.33-5.64Z" transform="translate(-13.69 -14.21)"/><path class="cls-29" d="M251.14,96.3l3.33,5.64,6.65.23-3.33-5.64Z" transform="translate(-13.69 -14.21)"/><path class="cls-34" d="M302.79,103.81l-.65-1.11L286.89,76.86l-1.22-2.08a2.27,2.27,0,0,0-1.5-1.13l-37.56-1.31c-.47,0-.56.46-.21,1.07l1.23,2.08,2.26,3.82,2,3.42,3.32,5.64.87,1.47,3.44,5.83.52.89,3.33,5.64.14.23a2.27,2.27,0,0,0,1.5,1.13l37.56,1.31C303.06,104.89,303.15,104.41,302.79,103.81Z" transform="translate(-13.69 -14.21)"/><g class="cls-35"><path class="cls-4" d="M244,151.13H362a2.5,2.5,0,0,1,2.5,2.5h0a2.49,2.49,0,0,1-2.5,2.5H244a2.49,2.49,0,0,1-2.5-2.5h0A2.5,2.5,0,0,1,244,151.13Z" transform="translate(-13.69 -14.21)"/><path class="cls-4" d="M272,168.13h62a2.5,2.5,0,0,1,2.5,2.5h0a2.49,2.49,0,0,1-2.5,2.5H272a2.49,2.49,0,0,1-2.5-2.5h0A2.5,2.5,0,0,1,272,168.13Z" transform="translate(-13.69 -14.21)"/><path class="cls-11" d="M256.45,185.13h93.18a1.4,1.4,0,0,1,1.39,1.4h0a1.39,1.39,0,0,1-1.39,1.39H256.45a1.39,1.39,0,0,1-1.39-1.39h0A1.4,1.4,0,0,1,256.45,185.13Z" transform="translate(-13.69 -14.21)"/><g class="cls-36"><path class="cls-37" d="M288.66,199.92h0a11,11,0,0,1,10.95,11h0a11,11,0,0,1-10.95,10.95h0a11,11,0,0,1-11-10.95h0A11,11,0,0,1,288.66,199.92Z" transform="translate(-13.69 -14.21)"/><path class="cls-37" d="M317.41,199.92h0a11,11,0,0,1,11,11h0a11,11,0,0,1-11,10.95h0a11,11,0,0,1-11-10.95h0A11,11,0,0,1,317.41,199.92Z" transform="translate(-13.69 -14.21)"/></g></g><g class="cls-38"><path class="cls-39" d="M360.61,49.81a11,11,0,1,0-10.95-11A11,11,0,0,0,360.61,49.81Z" transform="translate(-13.69 -14.21)"/></g></g></g><text class="cls-40" transform="translate(38.56 33.3)">Purchase Bill Submited</text><text class="cls-40" transform="translate(38.04 91.07)">PO Rate Amanded</text><text class="cls-40" transform="translate(38.7 160.5)">PO edited</text><path class="cls-25" d="M355.57,42a.43.43,0,0,0-.32.14.42.42,0,0,0-.13.32v1.9a.44.44,0,0,0,.22.39.46.46,0,0,0,.68-.39v-1.9a.46.46,0,0,0-.13-.32.45.45,0,0,0-.32-.14Z" transform="translate(-13.69 -14.21)"/><path class="cls-25" d="M357.38,40.48a.46.46,0,0,0-.32.13.45.45,0,0,0-.14.32v3.43a.46.46,0,0,0,.91,0V40.93a.44.44,0,0,0-.45-.45Z" transform="translate(-13.69 -14.21)"/><path class="cls-25" d="M359.19,39a.46.46,0,0,0-.32.13.43.43,0,0,0-.14.32v5a.46.46,0,0,0,.91,0v-5a.46.46,0,0,0-.13-.32.48.48,0,0,0-.32-.13Z" transform="translate(-13.69 -14.21)"/><path class="cls-25" d="M362.81,38.2a.42.42,0,0,0-.32.13.43.43,0,0,0-.14.32v5.71a.46.46,0,0,0,.91,0V38.65a.43.43,0,0,0-.14-.32A.4.4,0,0,0,362.81,38.2Z" transform="translate(-13.69 -14.21)"/><path class="cls-25" d="M361,39.72a.46.46,0,0,0-.32.13.45.45,0,0,0-.14.32v4.19a.46.46,0,0,0,.91,0V40.17a.44.44,0,0,0-.45-.45Z" transform="translate(-13.69 -14.21)"/><path class="cls-25" d="M364.61,36.67a.44.44,0,0,0-.45.45v7.24a.46.46,0,0,0,.91,0V37.12a.45.45,0,0,0-.14-.32A.46.46,0,0,0,364.61,36.67Z" transform="translate(-13.69 -14.21)"/><path class="cls-25" d="M366,33a.49.49,0,0,0-.14-.3.47.47,0,0,0-.31-.12h-2.26a.46.46,0,0,0-.32.13.44.44,0,0,0-.13.32.42.42,0,0,0,.13.32l.81.81L360.91,37l-1.52-.76a.45.45,0,0,0-.28,0,.42.42,0,0,0-.24.12l-4.53,4.53a.45.45,0,0,0-.11.43.49.49,0,0,0,.32.32.43.43,0,0,0,.43-.12l4.3-4.29,1.51.76h0a.45.45,0,0,0,.28,0,.49.49,0,0,0,.25-.12l3.07-3.08.81.81a.43.43,0,0,0,.32.14.45.45,0,0,0,.32-.14.46.46,0,0,0,.13-.31V33Z" transform="translate(-13.69 -14.21)"/></svg>