<svg id="Layer_1" data-name="Layer 1" xmlns="http://www.w3.org/2000/svg" xmlns:xlink="http://www.w3.org/1999/xlink" viewBox="0 0 384.75 246.46"><defs><style>.cls-1{fill:none;}.cls-2{clip-path:url(#clip-path);}.cls-3{clip-path:url(#clip-path-2);}.cls-4{fill-opacity:0.2;}.cls-5{fill:#491eb8;}.cls-6{fill:#4382ff;}.cls-7{fill:#212122;}.cls-10,.cls-12,.cls-13,.cls-29,.cls-30,.cls-34,.cls-36,.cls-39,.cls-47,.cls-7,.cls-8{fill-rule:evenodd;}.cls-8{fill:#3f4041;}.cls-9{fill:#151515;}.cls-10{fill:#434244;}.cls-11,.cls-12{fill:#6a330d;}.cls-13,.cls-15{fill:#f0b9b2;}.cls-14,.cls-30{fill:#ffc3b8;}.cls-16,.cls-24{fill:#f0f1f1;}.cls-17,.cls-25,.cls-36{fill:#f3e6de;}.cls-18,.cls-29{fill:#ffc7a8;}.cls-19{fill:#bbbdbf;}.cls-20{fill:#f3f3f3;}.cls-21,.cls-26,.cls-27,.cls-41,.cls-42,.cls-44,.cls-61{fill:#fff;}.cls-22{fill:#d0d2d3;}.cls-23{fill:#e5e6e7;}.cls-24,.cls-25{opacity:0.5;}.cls-24,.cls-25,.cls-26,.cls-27{isolation:isolate;}.cls-26{opacity:0.1;}.cls-27{opacity:0.12;}.cls-28{fill:#414042;}.cls-31,.cls-34{fill:#8a5e3c;}.cls-32{fill:#f1f2f2;}.cls-33{fill:#6c6e70;}.cls-35{fill-opacity:0.15;}.cls-37{fill:#6d6e71;}.cls-38{fill:#231f20;}.cls-39{fill:#58595b;}.cls-40{clip-path:url(#clip-path-3);}.cls-41{fill-opacity:0.6;}.cls-42{fill-opacity:0.3;}.cls-43{clip-path:url(#clip-path-4);}.cls-44{fill-opacity:0.7;}.cls-45{clip-path:url(#clip-path-5);}.cls-46{clip-path:url(#clip-path-6);}.cls-47{fill:#18204d;}.cls-48{clip-path:url(#clip-path-7);}.cls-49{clip-path:url(#clip-path-8);}.cls-50{clip-path:url(#clip-path-9);}.cls-51{clip-path:url(#clip-path-10);}.cls-52,.cls-60{fill:#00cffd;}.cls-52{stroke:#000;stroke-opacity:0.05;stroke-width:0.25px;}.cls-53{clip-path:url(#clip-path-11);}.cls-54{clip-path:url(#clip-path-12);}.cls-55{clip-path:url(#clip-path-13);}.cls-56{clip-path:url(#clip-path-14);}.cls-57{clip-path:url(#clip-path-15);}.cls-58{clip-path:url(#clip-path-16);}.cls-59{clip-path:url(#clip-path-17);}.cls-61{font-size:10px;font-family:Poppins-SemiBold, Poppins;font-weight:600;}</style><clipPath id="clip-path" transform="translate(-14.09 -14.21)"><rect class="cls-1" x="0.4" y="0.52" width="412.14" height="273.84" rx="13.69"/></clipPath><clipPath id="clip-path-2" transform="translate(-14.09 -14.21)"><rect class="cls-1" x="14.09" y="14.21" width="384.75" height="246.46" rx="6.85"/></clipPath><clipPath id="clip-path-3" transform="translate(-14.09 -14.21)"><rect class="cls-1" x="41.54" y="151.13" width="110" height="70.91"/></clipPath><clipPath id="clip-path-4" transform="translate(-14.09 -14.21)"><rect class="cls-1" x="71.21" y="200.13" width="50.66" height="21.91"/></clipPath><clipPath id="clip-path-5" transform="translate(-14.09 -14.21)"><rect class="cls-1" x="142.8" y="27.91" width="21.91" height="50.66"/></clipPath><clipPath id="clip-path-6" transform="translate(-14.09 -14.21)"><rect class="cls-1" x="142.8" y="27.91" width="21.91" height="21.91"/></clipPath><clipPath id="clip-path-7" transform="translate(-14.09 -14.21)"><rect class="cls-1" x="192.09" y="43.09" width="193.06" height="50.06"/></clipPath><clipPath id="clip-path-8" transform="translate(-14.09 -14.21)"><rect class="cls-1" x="227.69" y="43.09" width="157.46" height="50.06"/></clipPath><clipPath id="clip-path-9" transform="translate(-14.09 -14.21)"><rect class="cls-1" x="227.69" y="43.09" width="157.46" height="24.65"/></clipPath><clipPath id="clip-path-10" transform="translate(-14.09 -14.21)"><path class="cls-1" d="M229.4,73.21h113a1.71,1.71,0,0,1,1.71,1.71h0a1.72,1.72,0,0,1-1.71,1.71h-113a1.72,1.72,0,0,1-1.71-1.71h0A1.71,1.71,0,0,1,229.4,73.21Z"/></clipPath><clipPath id="clip-path-11" transform="translate(-14.09 -14.21)"><rect class="cls-1" x="192.09" y="123.15" width="193.06" height="39.55"/></clipPath><clipPath id="clip-path-12" transform="translate(-14.09 -14.21)"><rect class="cls-1" x="227.69" y="123.15" width="157.46" height="39.55"/></clipPath><clipPath id="clip-path-13" transform="translate(-14.09 -14.21)"><rect class="cls-1" x="227.69" y="123.15" width="157.46" height="13.69"/></clipPath><clipPath id="clip-path-14" transform="translate(-14.09 -14.21)"><path class="cls-1" d="M229.4,142.32H349.21a1.7,1.7,0,0,1,1.71,1.71h0a1.71,1.71,0,0,1-1.71,1.71H229.4a1.72,1.72,0,0,1-1.71-1.71h0A1.71,1.71,0,0,1,229.4,142.32Z"/></clipPath><clipPath id="clip-path-15" transform="translate(-14.09 -14.21)"><rect class="cls-1" x="192.09" y="192.69" width="193.06" height="39.11"/></clipPath><clipPath id="clip-path-16" transform="translate(-14.09 -14.21)"><rect class="cls-1" x="227.69" y="192.69" width="157.46" height="39.11"/></clipPath><clipPath id="clip-path-17" transform="translate(-14.09 -14.21)"><rect class="cls-1" x="227.69" y="192.69" width="157.46" height="13.69"/></clipPath></defs><g class="cls-2"><g class="cls-3"><rect class="cls-4" width="384.75" height="246.46" rx="6.85"/><path class="cls-5" d="M14.09,14.21H178.4V260.67H14.09Z" transform="translate(-14.09 -14.21)"/><path class="cls-6" d="M48.09,92.48a5.84,5.84,0,0,1,5.85-5.84H85.33a5.84,5.84,0,0,0,5.84-5.85V80.6c0-2.69-1.56-5.64-4.31-5.7H86.7a5.85,5.85,0,0,1,.77-11.64h33.92a6,6,0,0,1,6,5.89,5.82,5.82,0,0,1-1.72,4.09A5.88,5.88,0,0,1,123,74.76a6,6,0,0,1-1.48.18h-3a5.85,5.85,0,0,0-4.37,5.66v.19a5.85,5.85,0,0,0,5.85,5.85h19a5.94,5.94,0,0,1,6,5.89,5.84,5.84,0,0,1-5.85,5.8H53.94A5.85,5.85,0,0,1,48.09,92.48Z" transform="translate(-14.09 -14.21)"/><path class="cls-6" d="M159,137.68H35.09a2.21,2.21,0,0,1-2.21-2.21v-5a2.21,2.21,0,0,1,2.21-2.21H159a2.21,2.21,0,0,1,2.22,2.21v5a2.21,2.21,0,0,1-2.22,2.21Z" transform="translate(-14.09 -14.21)"/><path class="cls-7" d="M29.5,89.6a.19.19,0,0,1,.19-.19H40.26a.19.19,0,0,1,0,.38H29.69A.19.19,0,0,1,29.5,89.6Z" transform="translate(-14.09 -14.21)"/><path class="cls-7" d="M31.93,92.7a.18.18,0,0,1,.18-.19h8.15a.18.18,0,0,1,.18.19.18.18,0,0,1-.18.18H32.11A.18.18,0,0,1,31.93,92.7Z" transform="translate(-14.09 -14.21)"/><path class="cls-7" d="M90.05,124.14a.2.2,0,0,1,.19-.19h10.57a.2.2,0,0,1,.19.19.19.19,0,0,1-.19.18H90.24A.19.19,0,0,1,90.05,124.14Z" transform="translate(-14.09 -14.21)"/><path class="cls-7" d="M92.48,127.24a.19.19,0,0,1,.19-.19h8.14a.19.19,0,1,1,0,.37H92.67A.19.19,0,0,1,92.48,127.24Z" transform="translate(-14.09 -14.21)"/><path class="cls-8" d="M43.6,51.55a.18.18,0,0,1,.19-.18h9.9a.19.19,0,1,1,0,.37h-9.9A.18.18,0,0,1,43.6,51.55Z" transform="translate(-14.09 -14.21)"/><path class="cls-8" d="M54.83,51.55a.19.19,0,0,1,.19-.18H62.5a.18.18,0,0,1,.18.18.18.18,0,0,1-.18.19H55A.19.19,0,0,1,54.83,51.55Z" transform="translate(-14.09 -14.21)"/><path class="cls-8" d="M43.6,54.65a.19.19,0,0,1,.19-.19h7.33a.19.19,0,0,1,.18.19.18.18,0,0,1-.18.18H43.79A.18.18,0,0,1,43.6,54.65Z" transform="translate(-14.09 -14.21)"/><path class="cls-8" d="M52.55,54.65a.19.19,0,0,1,.19-.19H70.92a.19.19,0,0,1,.19.19.18.18,0,0,1-.19.18H52.74A.18.18,0,0,1,52.55,54.65Z" transform="translate(-14.09 -14.21)"/><path class="cls-8" d="M43.6,48.46a.19.19,0,0,1,.19-.19h4.09a.19.19,0,0,1,0,.38H43.79A.19.19,0,0,1,43.6,48.46Z" transform="translate(-14.09 -14.21)"/><path class="cls-9" d="M159.05,129.25a.19.19,0,0,0,.18-.19.18.18,0,0,0-.18-.18.18.18,0,0,0-.19.18A.19.19,0,0,0,159.05,129.25Z" transform="translate(-14.09 -14.21)"/><path class="cls-9" d="M160.22,132.45a.19.19,0,0,0,.18-.19.18.18,0,1,0-.36,0A.19.19,0,0,0,160.22,132.45Z" transform="translate(-14.09 -14.21)"/><path class="cls-9" d="M159.05,131.09a.18.18,0,1,0,0-.36.18.18,0,1,0,0,.36Z" transform="translate(-14.09 -14.21)"/><path class="cls-9" d="M158.68,136.48a.18.18,0,1,0,0-.36.18.18,0,1,0,0,.36Z" transform="translate(-14.09 -14.21)"/><path class="cls-9" d="M159.94,135.47a.27.27,0,0,0,.28-.28.28.28,0,0,0-.28-.28.29.29,0,0,0-.28.28A.28.28,0,0,0,159.94,135.47Z" transform="translate(-14.09 -14.21)"/><path class="cls-9" d="M159.23,133.42a.28.28,0,1,0,0-.55.28.28,0,1,0,0,.55Z" transform="translate(-14.09 -14.21)"/><path class="cls-9" d="M156.52,137a.27.27,0,0,0,.28-.28.28.28,0,0,0-.28-.28.29.29,0,0,0-.28.28A.28.28,0,0,0,156.52,137Z" transform="translate(-14.09 -14.21)"/><path class="cls-9" d="M158.4,135.19a.28.28,0,1,0-.28-.28A.28.28,0,0,0,158.4,135.19Z" transform="translate(-14.09 -14.21)"/><path class="cls-10" d="M157.7,75.39a.18.18,0,0,1,.18.18V86a.18.18,0,0,1-.18.18.18.18,0,0,1-.19-.18V75.57A.18.18,0,0,1,157.7,75.39Z" transform="translate(-14.09 -14.21)"/><path class="cls-10" d="M160.25,75.39a.18.18,0,0,1,.19.18V91.74a.18.18,0,0,1-.19.19.18.18,0,0,1-.18-.19V75.57A.18.18,0,0,1,160.25,75.39Z" transform="translate(-14.09 -14.21)"/><path class="cls-10" d="M162.81,75.39a.19.19,0,0,1,.19.18v6.29a.19.19,0,1,1-.38,0V75.57A.19.19,0,0,1,162.81,75.39Z" transform="translate(-14.09 -14.21)"/><path class="cls-11" d="M121.65,93.27s-3.55-4.31-3.88-3.62a2.07,2.07,0,0,0,.06,1.56s-4.87-2.41-5.25-1.76-.33,4.87,1.39,5.87c1,.58,5.32,2.86,5.32,2.86Z" transform="translate(-14.09 -14.21)"/><path class="cls-12" d="M138.35,89.92a2.7,2.7,0,0,1,2.47,2.92c-.06.69-.08,1.49-.11,2.43,0,.58,0,1.2-.06,1.88a33.79,33.79,0,0,1-.58,5.34,8.31,8.31,0,0,1-2.7,5c-2,1.52-4.38,1.25-6.56.16a58.46,58.46,0,0,1-7.64-4.62c-.93-.67-1.66-1.23-2.17-1.64-.26-.2-.45-.37-.59-.48l-.16-.14,0,0h0l1.78-2-1.78,2a2.7,2.7,0,1,1,3.56-4.07h0l0,0,.12.1.5.41c.44.35,1.1.86,1.94,1.46a52.27,52.27,0,0,0,6.91,4.18,3,3,0,0,0,.9.33,1.93,1.93,0,0,0,.21-.35,6.47,6.47,0,0,0,.44-1.4,27.32,27.32,0,0,0,.46-4.42c0-.51,0-1,.06-1.59,0-1.06.06-2.12.13-2.94a2.71,2.71,0,0,1,2.92-2.47Zm-4.1,13.15s0,0-.08,0Zm-10.51-6.48-1.73,2,1.73-2Z" transform="translate(-14.09 -14.21)"/><path class="cls-13" d="M55.08,88.8a3.82,3.82,0,0,1,4.13,3.5,8.54,8.54,0,0,0,1.45,4.59c.56.69,1.59,1.47,4.21,1.2A56.15,56.15,0,0,0,73,96.87l.39-.12a3.82,3.82,0,0,1,5.42,5.07L75.47,100c3.32,1.85,3.32,1.86,3.31,1.87h0v0l0,0-.06.09a1,1,0,0,1-.11.17l-.23.3a5,5,0,0,1-.47.46,4.58,4.58,0,0,1-.88.58,10.06,10.06,0,0,1-2,.74,62.51,62.51,0,0,1-9.33,1.45c-4.78.49-8.49-1-10.9-4a15.9,15.9,0,0,1-3.15-8.79,3.84,3.84,0,0,1,3.49-4.13Z" transform="translate(-14.09 -14.21)"/><path class="cls-14" d="M59.6,83.3a4.2,4.2,0,1,1-4.2-4.2,6.6,6.6,0,0,1,3.61,1C59.88,80.87,59.6,82.05,59.6,83.3Z" transform="translate(-14.09 -14.21)"/><path class="cls-15" d="M76.51,128.62h-5l-1.87-5.3h5Z" transform="translate(-14.09 -14.21)"/><path class="cls-16" d="M76.08,127.41h-5l-.32-.93h5Z" transform="translate(-14.09 -14.21)"/><path class="cls-17" d="M79.56,130.83h-8.4a.93.93,0,0,1-.93-.93H80.49A.93.93,0,0,1,79.56,130.83Z" transform="translate(-14.09 -14.21)"/><path class="cls-18" d="M70.23,129.9a3.67,3.67,0,0,1,.52-1.86l0-.52a.18.18,0,0,1,.18-.2H76.5a.2.2,0,0,1,.19.22l-.09.55,3.28,1.08a.92.92,0,0,1,.61.73Z" transform="translate(-14.09 -14.21)"/><path class="cls-15" d="M53,128.62l-5-.09,4.86-5.6,4.26.89Z" transform="translate(-14.09 -14.21)"/><path class="cls-16" d="M53.82,127.62h-5.1l1.21-1.4H55Z" transform="translate(-14.09 -14.21)"/><path class="cls-17" d="M57,130.83h-8.4a.93.93,0,0,1-.93-.93H58A.94.94,0,0,1,57,130.83Z" transform="translate(-14.09 -14.21)"/><path class="cls-18" d="M47.7,129.9a3.79,3.79,0,0,1,.52-1.86l0-.52a.19.19,0,0,1,.19-.2H54a.19.19,0,0,1,.18.22l-.08.55,3.28,1.08a.93.93,0,0,1,.61.73Z" transform="translate(-14.09 -14.21)"/><path class="cls-19" d="M86.07,84.45l-5.54-1.38.08-.35A1,1,0,0,1,81.79,82l3.66.91a1,1,0,0,1,.71,1.18Z" transform="translate(-14.09 -14.21)"/><path class="cls-19" d="M91.65,85.8l-5.54-1.38.09-.35a1,1,0,0,1,1.18-.71l3.65.91a1,1,0,0,1,.71,1.18Z" transform="translate(-14.09 -14.21)"/><path class="cls-19" d="M75.61,106.64l6.86,1.71-.09.35a1,1,0,0,1-1.18.71l-5-1.24a1,1,0,0,1-.71-1.18Z" transform="translate(-14.09 -14.21)"/><path class="cls-20" d="M116.65,117.23a1.92,1.92,0,0,1-.41,0L68.72,105.34a1.69,1.69,0,0,1-1.22-2l5.19-20.84a1.69,1.69,0,0,1,1.63-1.28,1.4,1.4,0,0,1,.41.06l47.52,11.84a1.69,1.69,0,0,1,1.23,2L118.29,116A1.69,1.69,0,0,1,116.65,117.23Z" transform="translate(-14.09 -14.21)"/><path class="cls-21" d="M74.32,80.62v1.12a1.24,1.24,0,0,1,.27,0l44.58,11.11,2.94.73a1.08,1.08,0,0,1,.69.51,1.11,1.11,0,0,1,.13.85l-5.19,20.85a1.13,1.13,0,0,1-1.09.85,1.27,1.27,0,0,1-.28,0l-2.94-.74L68.85,104.8a1.14,1.14,0,0,1-.82-1.37l5.2-20.84a1.11,1.11,0,0,1,1.09-.85Zm0,0a2.25,2.25,0,0,0-2.18,1.7L67,103.16a2.24,2.24,0,0,0,1.63,2.72L113.16,117l2.94.73a2.08,2.08,0,0,0,.55.07,2.24,2.24,0,0,0,2.17-1.7L124,95.24a2.26,2.26,0,0,0-1.64-2.72l-2.94-.73L74.86,80.68A2.48,2.48,0,0,0,74.32,80.62Z" transform="translate(-14.09 -14.21)"/><path class="cls-21" d="M73.86,89.75,72,97.4a2,2,0,0,1-2.47,1.48l-1.39-.35L71,86.94l1.39.35A2,2,0,0,1,73.86,89.75Z" transform="translate(-14.09 -14.21)"/><path class="cls-18" d="M83.4,85.55l-5.16,20.7,1,.25,5.16-20.71Z" transform="translate(-14.09 -14.21)"/><path class="cls-22" d="M85.43,86.05l-5.16,20.71.49.12,5.16-20.71Z" transform="translate(-14.09 -14.21)"/><path class="cls-22" d="M86,87.64,81.18,107l.49.12,4.82-19.35Z" transform="translate(-14.09 -14.21)"/><path class="cls-22" d="M86.41,89.87l-4.32,17.34.49.12L86.9,90Z" transform="translate(-14.09 -14.21)"/><path class="cls-18" d="M86.5,102.44,85.12,108l.49.12L87,102.56Z" transform="translate(-14.09 -14.21)"/><path class="cls-18" d="M87.69,101.5,86,108.19l.49.12,1.66-6.69Z" transform="translate(-14.09 -14.21)"/><path class="cls-18" d="M88.6,101.73l-1.66,6.69.49.12,1.66-6.69Z" transform="translate(-14.09 -14.21)"/><path class="cls-18" d="M88.74,93.45,87.36,99l.49.12,1.38-5.52Z" transform="translate(-14.09 -14.21)"/><path class="cls-18" d="M89.93,92.52l-1.66,6.69.49.12,1.66-6.69Z" transform="translate(-14.09 -14.21)"/><path class="cls-18" d="M90.84,92.74l-1.66,6.69.49.12,1.66-6.69Z" transform="translate(-14.09 -14.21)"/><path class="cls-18" d="M90.48,103.43,89.11,109l.49.12L91,103.56Z" transform="translate(-14.09 -14.21)"/><path class="cls-18" d="M91.68,102.5,90,109.19l.49.12,1.66-6.69Z" transform="translate(-14.09 -14.21)"/><path class="cls-18" d="M92.59,102.72l-1.67,6.69.49.12,1.67-6.69Z" transform="translate(-14.09 -14.21)"/><path class="cls-18" d="M92.72,94.45,91.34,100l.49.13,1.38-5.53Z" transform="translate(-14.09 -14.21)"/><path class="cls-18" d="M93.92,93.51l-1.67,6.69.49.12,1.67-6.69Z" transform="translate(-14.09 -14.21)"/><path class="cls-18" d="M94.83,93.74l-1.67,6.69.49.12,1.67-6.69Z" transform="translate(-14.09 -14.21)"/><path class="cls-22" d="M97.32,98.67,96.73,101l.49.12.59-2.36Z" transform="translate(-14.09 -14.21)"/><path class="cls-22" d="M98.35,98.4l-.71,2.86.49.12.71-2.86Z" transform="translate(-14.09 -14.21)"/><path class="cls-22" d="M99.19,98.92l-.64,2.57.49.12L99.68,99Z" transform="translate(-14.09 -14.21)"/><path class="cls-22" d="M100.9,99.56l-.59,2.36.49.13.59-2.37Z" transform="translate(-14.09 -14.21)"/><path class="cls-22" d="M101.94,99.29l-.72,2.86.49.12.72-2.86Z" transform="translate(-14.09 -14.21)"/><path class="cls-22" d="M102.77,99.81l-.64,2.57.49.12.64-2.56Z" transform="translate(-14.09 -14.21)"/><path class="cls-17" d="M71,100.81l-.8,3.22a.59.59,0,0,1-.72.43.58.58,0,0,1-.43-.71l.8-3.22a.59.59,0,0,1,1.15.28Z" transform="translate(-14.09 -14.21)"/><path class="cls-17" d="M75.37,83.22l-.8,3.21a.6.6,0,0,1-.72.44.59.59,0,0,1-.43-.72l.8-3.22a.59.59,0,0,1,1.15.29Z" transform="translate(-14.09 -14.21)"/><path class="cls-23" d="M80.72,85.79l-4.57,18.33a1.56,1.56,0,1,1-3-.76L77.69,85a1.56,1.56,0,1,1,3,.76Z" transform="translate(-14.09 -14.21)"/><path class="cls-18" d="M106.29,92.19l-1.25,5a1.36,1.36,0,0,1-1.64,1l-5-1.26a1.34,1.34,0,0,1-1-1.63l1.26-5a1.35,1.35,0,0,1,1.64-1l5,1.26A1.35,1.35,0,0,1,106.29,92.19Z" transform="translate(-14.09 -14.21)"/><path class="cls-18" d="M121.79,96.05l-4.55,18.28a1.35,1.35,0,0,1-1.64,1l-9.92-2.47a1.35,1.35,0,0,1-1-1.64l4.55-18.27a1.34,1.34,0,0,1,1.64-1l9.92,2.47A1.35,1.35,0,0,1,121.79,96.05Z" transform="translate(-14.09 -14.21)"/><path class="cls-18" d="M103,105.42l-1.26,5a1.35,1.35,0,0,1-1.64,1l-5-1.26a1.35,1.35,0,0,1-1-1.64l1.25-5a1.36,1.36,0,0,1,1.64-1l5,1.25A1.35,1.35,0,0,1,103,105.42Z" transform="translate(-14.09 -14.21)"/><path class="cls-24" d="M122.93,95l-5.19,20.84a1.11,1.11,0,0,1-1.09.85,1.24,1.24,0,0,1-.27,0l-2.94-.74,5.73-23,2.94.73a1.14,1.14,0,0,1,.7.51A1.12,1.12,0,0,1,122.93,95Z" transform="translate(-14.09 -14.21)"/><path class="cls-25" d="M118.8,103.53l-.66,2.65a.13.13,0,0,1-.14.1h0a.38.38,0,0,1-.28-.47l.54-2.17a.38.38,0,0,1,.47-.28.15.15,0,0,1,.09.06A.14.14,0,0,1,118.8,103.53Z" transform="translate(-14.09 -14.21)"/><path class="cls-17" d="M92.6,87.77,92,90a.37.37,0,0,1-.45.27L90,89.9a.37.37,0,0,1-.27-.45l.56-2.25a.37.37,0,0,1,.45-.27l1.59.39A.37.37,0,0,1,92.6,87.77Z" transform="translate(-14.09 -14.21)"/><path class="cls-17" d="M96.59,88.77,96,91a.38.38,0,0,1-.45.28L94,90.89a.37.37,0,0,1-.27-.45l.56-2.25a.37.37,0,0,1,.45-.27l1.59.39A.38.38,0,0,1,96.59,88.77Z" transform="translate(-14.09 -14.21)"/><path class="cls-26" d="M104.08,114.73l-5.91-1.48L71.39,85.33l.75-3a2.46,2.46,0,0,1,.26-.62Z" transform="translate(-14.09 -14.21)"/><path class="cls-26" d="M119.24,114.41h0l-.41,1.68a2.6,2.6,0,0,1-.13.36h-5.6L78.42,81.57l10.85,2.71h0Z" transform="translate(-14.09 -14.21)"/><path class="cls-27" d="M104.08,114.73l-5.91-1.48L71.39,85.33l.75-3a2.46,2.46,0,0,1,.26-.62Z" transform="translate(-14.09 -14.21)"/><path class="cls-27" d="M119.24,114.41h0l-.41,1.68a2.6,2.6,0,0,1-.13.36h-5.6L78.42,81.57l10.85,2.71h0Z" transform="translate(-14.09 -14.21)"/><path class="cls-28" d="M56.39,128.07,51,124.55,53.1,122c-5-2.12-10.29-6.69-10-12.52l11.36.52c-.07,1.56.63,1.83,1.36,2l6.2,1.17.65.3a6,6,0,0,1,.56.3,6.86,6.86,0,0,1,3.4,5.64v.27c0,2.56-10.22,8.47-10.22,8.47Z" transform="translate(-14.09 -14.21)"/><path class="cls-29" d="M74.41,110.55a7.76,7.76,0,0,0-9.75-5.44l-.19.06L57.07,108l-6.43,2.82-7.53-.45L43,112.43a8.77,8.77,0,0,0,3,7.73,8.37,8.37,0,0,0,8.89,1.23h0a2.1,2.1,0,0,0,.26-.13l6.23-2.73,3.2-1.22,2.74,8.74,10.85-3.4Zm-22,.38-1.64-.09A3,3,0,0,1,52.41,110.93Z" transform="translate(-14.09 -14.21)"/><path class="cls-17" d="M61.51,109.9c-6.1,1.88-12.54,4.93-18.64,3l.35-9.63A13.57,13.57,0,0,1,56.79,89.75h1.33a3.4,3.4,0,0,1,3.39,3.4Z" transform="translate(-14.09 -14.21)"/><path class="cls-30" d="M53.77,110.62A15.73,15.73,0,0,1,50.69,102l7.06-.59a8.91,8.91,0,0,0,1.51,4.75c.63.76,1.76,1.57,4.46,1.3l.35,3.5-.35-3.5c.87-.09,2-.17,3.13-.24l.36,0c1.27-.09,2.24-.16,2.68-.22l1,7c-.77.11-2.07.2-3.21.28l-.34,0c-1.12.07-2.17.14-2.9.22-4.71.48-8.32-1-10.67-3.87Z" transform="translate(-14.09 -14.21)"/><path class="cls-16" d="M49.84,102.05a31.27,31.27,0,0,1,.43-8c.8-4,9.42-2.25,8.61,1.74h0a22.65,22.65,0,0,0-.29,5.59Z" transform="translate(-14.09 -14.21)"/><path class="cls-17" d="M59.23,85.83H51.57v5.32h7.66Z" transform="translate(-14.09 -14.21)"/><path class="cls-14" d="M59.37,82a10.29,10.29,0,0,1,.8,1.94c-.13.07-1.16.38-1.16.38Z" transform="translate(-14.09 -14.21)"/><path class="cls-18" d="M55.76,81.34l4.42-.65S59.12,76.36,55,77.42s-3.55,3-3.55,3a1.74,1.74,0,0,0-2.06,1.86v8.67l8.92-2.24Z" transform="translate(-14.09 -14.21)"/><path class="cls-29" d="M60.27,80.66l-.09,0,.09,0,0,.1-4.41.65,2.51,7.36-9.13,2.29v-.12h0V82.27A2.12,2.12,0,0,1,49.6,81a1.56,1.56,0,0,1,.75-.57,2.5,2.5,0,0,1,.74-.14h.21a.69.69,0,0,1,0-.21,1.78,1.78,0,0,1,.26-.83c.38-.64,1.3-1.4,3.39-1.93a4.24,4.24,0,0,1,2.62.07,3.8,3.8,0,0,1,1.64,1.2A5.45,5.45,0,0,1,60,80a3.06,3.06,0,0,1,.18.48l0,.14v0ZM51.4,80.5h-.31a2,2,0,0,0-.68.12,1.45,1.45,0,0,0-.66.51,2,2,0,0,0-.31,1.15v8.55l8.71-2.19-2.52-7.37,4.43-.65s0,0,0-.08-.1-.28-.18-.47a5.48,5.48,0,0,0-.8-1.34,3.77,3.77,0,0,0-1.56-1.15A4.11,4.11,0,0,0,55,77.51c-2.07.52-2.93,1.26-3.28,1.85a1.54,1.54,0,0,0-.24.73c0,.1,0,.17,0,.22s0,0,0,.06h0l0,.14Z" transform="translate(-14.09 -14.21)"/><path class="cls-31" d="M133.93,83.3a4.2,4.2,0,1,0,4.19-4.2,6.6,6.6,0,0,0-3.61,1C133.65,80.87,133.93,82.05,133.93,83.3Z" transform="translate(-14.09 -14.21)"/><path class="cls-31" d="M117,128.62h5l1.87-5.3h-5Z" transform="translate(-14.09 -14.21)"/><path class="cls-16" d="M117.34,127.41h5.19l.33-.93h-5.19Z" transform="translate(-14.09 -14.21)"/><path class="cls-32" d="M114,130.83h8.4a.93.93,0,0,0,.93-.93H113A.93.93,0,0,0,114,130.83Z" transform="translate(-14.09 -14.21)"/><path class="cls-18" d="M123.3,129.9a3.67,3.67,0,0,0-.52-1.86l0-.52a.18.18,0,0,0-.18-.2H117a.2.2,0,0,0-.19.22l.09.55-3.28,1.08a.92.92,0,0,0-.61.73Z" transform="translate(-14.09 -14.21)"/><path class="cls-31" d="M140.21,128.54l5.17-.24-5.37-6-4.26,1.24Z" transform="translate(-14.09 -14.21)"/><path class="cls-16" d="M139.25,127.55l5.47,0-1.3-1.45-5.47,0Z" transform="translate(-14.09 -14.21)"/><path class="cls-32" d="M135.77,130.83h9.12a.93.93,0,0,0,.93-.93v0h-11v0a.93.93,0,0,0,.93.93Z" transform="translate(-14.09 -14.21)"/><path class="cls-18" d="M145.82,129.87a3.73,3.73,0,0,0-.56-1.93l0-.54a.19.19,0,0,0-.19-.2h-6a.19.19,0,0,0-.18.22l.09.58-3.51,1.12a1,1,0,0,0-.65.75Z" transform="translate(-14.09 -14.21)"/><path class="cls-28" d="M135.75,127.41s-10-6-8.62-9.62a7.63,7.63,0,0,1,3.75-4.39l.65-.31,6.2-1.17a2.21,2.21,0,0,0,1.66-2.41l11.37-.18c.09,5.7-6.66,10-11.45,12.25l3.24,3.28Z" transform="translate(-14.09 -14.21)"/><path class="cls-29" d="M128.93,117.31l-2.74,8.74-10.86-3.4,3.79-12.1a7.76,7.76,0,0,1,9.75-5.44l.19.06,7.39,2.84,6.1,2.67,8.44.2-.09,3.68-.09.46a8.76,8.76,0,0,1-12.46,6.24l-6.22-2.73Z" transform="translate(-14.09 -14.21)"/><path class="cls-17" d="M150.4,102.2l.85,10.82c-5.24,2.06-10.94-.84-16.4-2.31a3.2,3.2,0,0,1-2.36-2.85l-1.1-14.4a3.41,3.41,0,0,1,3.12-3.65l1.33-.1A13.56,13.56,0,0,1,150.4,102.2Z" transform="translate(-14.09 -14.21)"/><path class="cls-33" d="M135.12,89.77a3.22,3.22,0,0,0-.83.17v-.1l.22,0Z" transform="translate(-14.09 -14.21)"/><path class="cls-34" d="M139.53,99a2.7,2.7,0,0,1,2.47,2.92c0,.38,0,.8-.05,1.36,0,.16,0,.33,0,.51,0,.78-.05,1.69-.17,2.65a13,13,0,0,1-2.36,6.35c-3.19,4.33-9.6,6.77-21.37,6.19a2.7,2.7,0,0,1,.27-5.4c11.25.55,15.22-1.93,16.75-4a7.74,7.74,0,0,0,1.34-3.78c.09-.71.12-1.42.14-2.15,0-.13,0-.27,0-.41,0-.58,0-1.22.07-1.77A2.7,2.7,0,0,1,139.53,99Z" transform="translate(-14.09 -14.21)"/><path class="cls-17" d="M143.69,102.05a31.27,31.27,0,0,0-.43-8c-.8-4-9.42-2.25-8.61,1.74h0a22.65,22.65,0,0,1,.29,5.59Z" transform="translate(-14.09 -14.21)"/><path class="cls-35" d="M143.69,102.05a31.27,31.27,0,0,0-.43-8c-.8-4-9.42-2.25-8.61,1.74h0a22.65,22.65,0,0,1,.29,5.59Z" transform="translate(-14.09 -14.21)"/><path class="cls-17" d="M142,85.83v4.83l-.84-.31a13.64,13.64,0,0,0-5.28-.64l-.72.06-.61,0-.22,0v-4Z" transform="translate(-14.09 -14.21)"/><path class="cls-31" d="M134.16,82a10.29,10.29,0,0,0-.8,1.94c.14.07,1.16.38,1.16.38Z" transform="translate(-14.09 -14.21)"/><path class="cls-18" d="M137.77,81.34l-4.42-.65s1.06-4.33,5.22-3.27S142,81.34,142,81.34A2.64,2.64,0,0,1,143.45,84c0,2.16-2.87,1.81-2.87,1.81L140.2,83a1.8,1.8,0,0,0-1.47-1.53Z" transform="translate(-14.09 -14.21)"/><path class="cls-14" d="M69.3,107s5.8-2.56,5.8-1.71a2.3,2.3,0,0,1-.81,1.51s5.6.5,5.66,1.33-1.32,5.81-3.5,6c-1.26.1-6.09-.12-6.09-.12Z" transform="translate(-14.09 -14.21)"/><path class="cls-31" d="M118.47,113.63s-3.34-2.26-5-2c-.77.11.74,1.88.74,1.88s-6.24,1.3-6.3,2,1.77,3.09,3.62,3.82c1.45.57,7.09-.4,7.09-.4Z" transform="translate(-14.09 -14.21)"/><path class="cls-18" d="M141.94,80.86a1.76,1.76,0,1,0-1.85-1.76A1.8,1.8,0,0,0,141.94,80.86Z" transform="translate(-14.09 -14.21)"/><path class="cls-36" d="M115.85,127.24a.1.1,0,0,1,.13,0l2.17,1.29a.09.09,0,0,1,0,.13.08.08,0,0,1-.12,0l-2.18-1.29A.08.08,0,0,1,115.85,127.24Z" transform="translate(-14.09 -14.21)"/><path class="cls-36" d="M118.34,127.59a.11.11,0,0,1-.07.12l-2.45.62a.09.09,0,0,1-.11-.07.08.08,0,0,1,.06-.11l2.45-.62A.09.09,0,0,1,118.34,127.59Z" transform="translate(-14.09 -14.21)"/><path class="cls-36" d="M137.94,127.3a.1.1,0,0,1,.13,0l2.17,1.3a.08.08,0,0,1,0,.12.09.09,0,0,1-.12,0l-2.18-1.3A.08.08,0,0,1,137.94,127.3Z" transform="translate(-14.09 -14.21)"/><path class="cls-36" d="M140.43,127.66a.09.09,0,0,1-.07.11l-2.45.62a.11.11,0,0,1-.12-.07.1.1,0,0,1,.07-.11l2.45-.62A.11.11,0,0,1,140.43,127.66Z" transform="translate(-14.09 -14.21)"/><path class="cls-37" d="M49.32,130.34a.09.09,0,1,0,0-.18.09.09,0,0,0,0,.18Z" transform="translate(-14.09 -14.21)"/><path class="cls-37" d="M48.93,130.79a.09.09,0,1,0-.09-.09A.09.09,0,0,0,48.93,130.79Z" transform="translate(-14.09 -14.21)"/><path class="cls-37" d="M50.13,130.73a.09.09,0,1,0-.09-.09A.09.09,0,0,0,50.13,130.73Z" transform="translate(-14.09 -14.21)"/><path class="cls-37" d="M49.69,130.61a.09.09,0,1,0-.09-.09A.09.09,0,0,0,49.69,130.61Z" transform="translate(-14.09 -14.21)"/><path class="cls-37" d="M50.06,130.25a.09.09,0,1,0,0-.18.09.09,0,0,0,0,.18Z" transform="translate(-14.09 -14.21)"/><path class="cls-37" d="M53.6,130.73a.09.09,0,1,0-.09-.09A.09.09,0,0,0,53.6,130.73Z" transform="translate(-14.09 -14.21)"/><path class="cls-37" d="M56.48,130.73a.09.09,0,1,0-.09-.09A.09.09,0,0,0,56.48,130.73Z" transform="translate(-14.09 -14.21)"/><path class="cls-37" d="M48.7,130.24a.09.09,0,1,0-.09-.09A.09.09,0,0,0,48.7,130.24Z" transform="translate(-14.09 -14.21)"/><path class="cls-37" d="M48.06,130.1A.09.09,0,1,0,48,130,.09.09,0,0,0,48.06,130.1Z" transform="translate(-14.09 -14.21)"/><path class="cls-37" d="M48.36,130.64a.09.09,0,1,0-.09-.09A.09.09,0,0,0,48.36,130.64Z" transform="translate(-14.09 -14.21)"/><path class="cls-37" d="M52.88,130.27a.09.09,0,1,0,0-.18.09.09,0,0,0,0,.18Z" transform="translate(-14.09 -14.21)"/><path class="cls-37" d="M51,130.16a.09.09,0,1,0-.09-.09A.09.09,0,0,0,51,130.16Z" transform="translate(-14.09 -14.21)"/><path class="cls-37" d="M51.08,130.73a.09.09,0,1,0-.09-.09A.09.09,0,0,0,51.08,130.73Z" transform="translate(-14.09 -14.21)"/><path class="cls-37" d="M51.47,130.18a.09.09,0,0,0,.09-.08.09.09,0,1,0-.18,0A.09.09,0,0,0,51.47,130.18Z" transform="translate(-14.09 -14.21)"/><path class="cls-37" d="M51.54,130.7a.09.09,0,0,0,0-.18.09.09,0,0,0-.09.09A.1.1,0,0,0,51.54,130.7Z" transform="translate(-14.09 -14.21)"/><path class="cls-37" d="M50.58,130.47a.09.09,0,1,0-.09-.09A.09.09,0,0,0,50.58,130.47Z" transform="translate(-14.09 -14.21)"/><path class="cls-37" d="M52.49,130.38a.09.09,0,1,0-.09-.09A.09.09,0,0,0,52.49,130.38Z" transform="translate(-14.09 -14.21)"/><path class="cls-37" d="M52.49,130.7a.09.09,0,1,0-.09-.09A.09.09,0,0,0,52.49,130.7Z" transform="translate(-14.09 -14.21)"/><path class="cls-37" d="M52,130.34a.09.09,0,1,0-.09-.09A.09.09,0,0,0,52,130.34Z" transform="translate(-14.09 -14.21)"/><path class="cls-37" d="M55,130.52a.09.09,0,1,0,0-.18.09.09,0,0,0,0,.18Z" transform="translate(-14.09 -14.21)"/><path class="cls-37" d="M55.56,130.73a.09.09,0,1,0-.09-.09A.09.09,0,0,0,55.56,130.73Z" transform="translate(-14.09 -14.21)"/><path class="cls-37" d="M56.17,130.47a.09.09,0,1,0-.09-.09A.09.09,0,0,0,56.17,130.47Z" transform="translate(-14.09 -14.21)"/><path class="cls-37" d="M54.58,130.74a.09.09,0,1,0-.09-.09A.09.09,0,0,0,54.58,130.74Z" transform="translate(-14.09 -14.21)"/><path class="cls-37" d="M54.62,130.16a.09.09,0,1,0-.09-.09A.09.09,0,0,0,54.62,130.16Z" transform="translate(-14.09 -14.21)"/><path class="cls-37" d="M53.16,130.7a.09.09,0,1,0-.09-.09A.09.09,0,0,0,53.16,130.7Z" transform="translate(-14.09 -14.21)"/><path class="cls-37" d="M55.62,130.22a.09.09,0,0,0,.09-.09.1.1,0,0,0-.09-.09.09.09,0,0,0,0,.18Z" transform="translate(-14.09 -14.21)"/><path class="cls-37" d="M53.69,130.34a.09.09,0,1,0-.09-.09A.09.09,0,0,0,53.69,130.34Z" transform="translate(-14.09 -14.21)"/><path class="cls-37" d="M54.32,130.56a.09.09,0,1,0-.09-.09A.09.09,0,0,0,54.32,130.56Z" transform="translate(-14.09 -14.21)"/><path class="cls-37" d="M53.19,130.34a.09.09,0,1,0-.09-.09A.09.09,0,0,0,53.19,130.34Z" transform="translate(-14.09 -14.21)"/><path class="cls-37" d="M56.61,130.22a.09.09,0,0,0,.09-.09.1.1,0,0,0-.09-.09.09.09,0,0,0,0,.18Z" transform="translate(-14.09 -14.21)"/><path class="cls-37" d="M57.12,130.1A.09.09,0,1,0,57,130,.09.09,0,0,0,57.12,130.1Z" transform="translate(-14.09 -14.21)"/><path class="cls-37" d="M57,130.73a.09.09,0,1,0-.09-.09A.09.09,0,0,0,57,130.73Z" transform="translate(-14.09 -14.21)"/><path class="cls-37" d="M57.76,130.13a.09.09,0,1,0-.09-.09A.09.09,0,0,0,57.76,130.13Z" transform="translate(-14.09 -14.21)"/><path class="cls-37" d="M57.54,130.38a.09.09,0,1,0-.09-.09A.09.09,0,0,0,57.54,130.38Z" transform="translate(-14.09 -14.21)"/><path class="cls-37" d="M71.82,130.34a.09.09,0,1,0-.09-.09A.09.09,0,0,0,71.82,130.34Z" transform="translate(-14.09 -14.21)"/><path class="cls-37" d="M71.43,130.79a.09.09,0,1,0-.09-.09A.09.09,0,0,0,71.43,130.79Z" transform="translate(-14.09 -14.21)"/><path class="cls-37" d="M72.62,130.73a.09.09,0,1,0-.09-.09A.09.09,0,0,0,72.62,130.73Z" transform="translate(-14.09 -14.21)"/><path class="cls-37" d="M72.19,130.61a.09.09,0,1,0-.09-.09A.09.09,0,0,0,72.19,130.61Z" transform="translate(-14.09 -14.21)"/><path class="cls-37" d="M72.56,130.25a.09.09,0,1,0-.09-.09A.09.09,0,0,0,72.56,130.25Z" transform="translate(-14.09 -14.21)"/><path class="cls-37" d="M76.1,130.73a.09.09,0,1,0-.09-.09A.09.09,0,0,0,76.1,130.73Z" transform="translate(-14.09 -14.21)"/><path class="cls-37" d="M79,130.73a.09.09,0,1,0-.09-.09A.09.09,0,0,0,79,130.73Z" transform="translate(-14.09 -14.21)"/><path class="cls-37" d="M71.2,130.24a.09.09,0,1,0-.09-.09A.09.09,0,0,0,71.2,130.24Z" transform="translate(-14.09 -14.21)"/><path class="cls-37" d="M70.56,130.1a.09.09,0,0,0,0-.18.09.09,0,0,0,0,.18Z" transform="translate(-14.09 -14.21)"/><path class="cls-37" d="M70.85,130.64a.09.09,0,1,0-.09-.09A.09.09,0,0,0,70.85,130.64Z" transform="translate(-14.09 -14.21)"/><path class="cls-37" d="M75.38,130.27a.09.09,0,1,0-.09-.09A.09.09,0,0,0,75.38,130.27Z" transform="translate(-14.09 -14.21)"/><path class="cls-37" d="M73.52,130.16a.09.09,0,1,0-.09-.09A.09.09,0,0,0,73.52,130.16Z" transform="translate(-14.09 -14.21)"/><path class="cls-37" d="M73.58,130.73a.09.09,0,1,0-.09-.09A.09.09,0,0,0,73.58,130.73Z" transform="translate(-14.09 -14.21)"/><path class="cls-37" d="M74,130.18a.09.09,0,0,0,.09-.08.09.09,0,0,0-.18,0A.09.09,0,0,0,74,130.18Z" transform="translate(-14.09 -14.21)"/><path class="cls-37" d="M74,130.7a.09.09,0,1,0-.09-.09A.1.1,0,0,0,74,130.7Z" transform="translate(-14.09 -14.21)"/><path class="cls-37" d="M73.07,130.47a.09.09,0,1,0-.09-.09A.09.09,0,0,0,73.07,130.47Z" transform="translate(-14.09 -14.21)"/><path class="cls-37" d="M75,130.38a.09.09,0,1,0-.09-.09A.09.09,0,0,0,75,130.38Z" transform="translate(-14.09 -14.21)"/><path class="cls-37" d="M75,130.7a.09.09,0,1,0-.09-.09A.09.09,0,0,0,75,130.7Z" transform="translate(-14.09 -14.21)"/><path class="cls-37" d="M74.45,130.34a.09.09,0,1,0-.09-.09A.09.09,0,0,0,74.45,130.34Z" transform="translate(-14.09 -14.21)"/><path class="cls-37" d="M77.49,130.52a.09.09,0,1,0-.09-.09A.09.09,0,0,0,77.49,130.52Z" transform="translate(-14.09 -14.21)"/><path class="cls-37" d="M78.06,130.73a.09.09,0,0,0,0-.18.09.09,0,0,0,0,.18Z" transform="translate(-14.09 -14.21)"/><path class="cls-37" d="M78.66,130.47a.09.09,0,1,0-.09-.09A.09.09,0,0,0,78.66,130.47Z" transform="translate(-14.09 -14.21)"/><path class="cls-37" d="M77.07,130.74a.09.09,0,1,0,0-.18.09.09,0,0,0,0,.18Z" transform="translate(-14.09 -14.21)"/><path class="cls-37" d="M77.11,130.16a.09.09,0,1,0-.09-.09A.09.09,0,0,0,77.11,130.16Z" transform="translate(-14.09 -14.21)"/><path class="cls-37" d="M75.65,130.7a.09.09,0,1,0,0-.18.09.09,0,0,0,0,.18Z" transform="translate(-14.09 -14.21)"/><path class="cls-37" d="M78.11,130.22a.09.09,0,0,0,.09-.09.1.1,0,0,0-.09-.09.09.09,0,0,0,0,.18Z" transform="translate(-14.09 -14.21)"/><path class="cls-37" d="M76.19,130.34a.09.09,0,1,0-.09-.09A.09.09,0,0,0,76.19,130.34Z" transform="translate(-14.09 -14.21)"/><path class="cls-37" d="M76.82,130.56a.09.09,0,1,0-.09-.09A.09.09,0,0,0,76.82,130.56Z" transform="translate(-14.09 -14.21)"/><path class="cls-37" d="M75.68,130.34a.09.09,0,1,0-.09-.09A.09.09,0,0,0,75.68,130.34Z" transform="translate(-14.09 -14.21)"/><path class="cls-37" d="M79.11,130.22a.09.09,0,0,0,.09-.09.1.1,0,0,0-.09-.09.09.09,0,0,0,0,.18Z" transform="translate(-14.09 -14.21)"/><path class="cls-37" d="M79.62,130.1a.09.09,0,0,0,0-.18.09.09,0,0,0,0,.18Z" transform="translate(-14.09 -14.21)"/><path class="cls-37" d="M79.54,130.73a.09.09,0,1,0-.09-.09A.09.09,0,0,0,79.54,130.73Z" transform="translate(-14.09 -14.21)"/><path class="cls-37" d="M80.26,130.13a.09.09,0,1,0-.09-.09A.09.09,0,0,0,80.26,130.13Z" transform="translate(-14.09 -14.21)"/><path class="cls-37" d="M80,130.38a.09.09,0,1,0-.09-.09A.09.09,0,0,0,80,130.38Z" transform="translate(-14.09 -14.21)"/><path class="cls-38" d="M142.73,94.06a.09.09,0,1,0-.09-.09A.09.09,0,0,0,142.73,94.06Z" transform="translate(-14.09 -14.21)"/><path class="cls-38" d="M135.52,99.74a.09.09,0,1,0-.09-.09A.09.09,0,0,0,135.52,99.74Z" transform="translate(-14.09 -14.21)"/><path class="cls-38" d="M136.29,101a.09.09,0,1,0,0-.18.09.09,0,0,0,0,.18Z" transform="translate(-14.09 -14.21)"/><path class="cls-38" d="M135.3,101.15a.09.09,0,0,0,.09-.09.09.09,0,0,0-.18,0A.09.09,0,0,0,135.3,101.15Z" transform="translate(-14.09 -14.21)"/><path class="cls-38" d="M136.48,98.84a.1.1,0,0,0,.09-.09.09.09,0,1,0-.09.09Z" transform="translate(-14.09 -14.21)"/><path class="cls-38" d="M137,97.35a.09.09,0,1,0-.09-.09A.09.09,0,0,0,137,97.35Z" transform="translate(-14.09 -14.21)"/><path class="cls-38" d="M138.81,96.22a.09.09,0,1,0-.09-.09A.09.09,0,0,0,138.81,96.22Z" transform="translate(-14.09 -14.21)"/><path class="cls-38" d="M142.52,98.27a.09.09,0,1,0,0-.18.09.09,0,0,0,0,.18Z" transform="translate(-14.09 -14.21)"/><path class="cls-38" d="M141.32,100.87a.09.09,0,0,0,0-.18.09.09,0,1,0,0,.18Z" transform="translate(-14.09 -14.21)"/><path class="cls-38" d="M136.59,96.13a.09.09,0,1,0-.09-.09A.09.09,0,0,0,136.59,96.13Z" transform="translate(-14.09 -14.21)"/><path class="cls-38" d="M137.27,100.49a.09.09,0,1,0-.09-.09A.09.09,0,0,0,137.27,100.49Z" transform="translate(-14.09 -14.21)"/><path class="cls-38" d="M140.74,95.74a.09.09,0,0,0,.09-.08.09.09,0,0,0-.18,0A.09.09,0,0,0,140.74,95.74Z" transform="translate(-14.09 -14.21)"/><path class="cls-38" d="M138.28,94.4a.09.09,0,1,0-.09-.09A.09.09,0,0,0,138.28,94.4Z" transform="translate(-14.09 -14.21)"/><path class="cls-38" d="M136.39,94.92a.09.09,0,1,0-.09-.09A.09.09,0,0,0,136.39,94.92Z" transform="translate(-14.09 -14.21)"/><path class="cls-38" d="M138.37,97.8a.09.09,0,1,0-.09-.09A.09.09,0,0,0,138.37,97.8Z" transform="translate(-14.09 -14.21)"/><path class="cls-38" d="M137.7,96.7a.09.09,0,1,0-.09-.09A.09.09,0,0,0,137.7,96.7Z" transform="translate(-14.09 -14.21)"/><path class="cls-38" d="M140,93.43a.09.09,0,1,0-.09-.09A.09.09,0,0,0,140,93.43Z" transform="translate(-14.09 -14.21)"/><path class="cls-38" d="M139.27,94.15a.09.09,0,0,0,0-.18.09.09,0,0,0,0,.18Z" transform="translate(-14.09 -14.21)"/><path class="cls-38" d="M139.4,95.23a.09.09,0,1,0-.09-.09A.09.09,0,0,0,139.4,95.23Z" transform="translate(-14.09 -14.21)"/><path class="cls-38" d="M141.19,95.14a.09.09,0,1,0-.09-.09A.09.09,0,0,0,141.19,95.14Z" transform="translate(-14.09 -14.21)"/><path class="cls-38" d="M135.7,95.41a.09.09,0,1,0-.09-.09A.09.09,0,0,0,135.7,95.41Z" transform="translate(-14.09 -14.21)"/><path class="cls-38" d="M137.61,95.41a.09.09,0,1,0-.09-.09A.09.09,0,0,0,137.61,95.41Z" transform="translate(-14.09 -14.21)"/><path class="cls-38" d="M138.9,101.15a.09.09,0,0,0,.09-.09.09.09,0,0,0-.18,0A.09.09,0,0,0,138.9,101.15Z" transform="translate(-14.09 -14.21)"/><path class="cls-38" d="M142.91,99.14a.09.09,0,0,0,.09-.09.09.09,0,0,0-.18,0A.09.09,0,0,0,142.91,99.14Z" transform="translate(-14.09 -14.21)"/><path class="cls-38" d="M139.92,99.47a.09.09,0,1,0-.09-.09A.09.09,0,0,0,139.92,99.47Z" transform="translate(-14.09 -14.21)"/><path class="cls-38" d="M141.83,99.29a.09.09,0,1,0-.09-.09A.09.09,0,0,0,141.83,99.29Z" transform="translate(-14.09 -14.21)"/><path class="cls-38" d="M141.38,97.39a.09.09,0,0,0,.09-.09.09.09,0,0,0-.18,0A.09.09,0,0,0,141.38,97.39Z" transform="translate(-14.09 -14.21)"/><path class="cls-38" d="M142.73,98.48a.09.09,0,1,0-.09-.09A.09.09,0,0,0,142.73,98.48Z" transform="translate(-14.09 -14.21)"/><path class="cls-38" d="M139.83,97.08a.09.09,0,1,0-.09-.09A.09.09,0,0,0,139.83,97.08Z" transform="translate(-14.09 -14.21)"/><path class="cls-38" d="M141.64,98.57a.09.09,0,1,0-.09-.09A.09.09,0,0,0,141.64,98.57Z" transform="translate(-14.09 -14.21)"/><path class="cls-38" d="M142.35,99.29a.09.09,0,1,0-.09-.09A.09.09,0,0,0,142.35,99.29Z" transform="translate(-14.09 -14.21)"/><path class="cls-38" d="M138.37,98.75a.09.09,0,1,0-.09-.09A.09.09,0,0,0,138.37,98.75Z" transform="translate(-14.09 -14.21)"/><path class="cls-38" d="M140.83,97.14a.09.09,0,0,0,.09-.09.09.09,0,0,0-.18,0A.09.09,0,0,0,140.83,97.14Z" transform="translate(-14.09 -14.21)"/><path class="cls-38" d="M136.68,93.25a.09.09,0,1,0-.09-.09A.09.09,0,0,0,136.68,93.25Z" transform="translate(-14.09 -14.21)"/><path class="cls-38" d="M140.46,98.18a.09.09,0,1,0-.09-.09A.09.09,0,0,0,140.46,98.18Z" transform="translate(-14.09 -14.21)"/><path class="cls-38" d="M141,99.14a.09.09,0,0,0,.09-.09.09.09,0,0,0-.18,0A.09.09,0,0,0,141,99.14Z" transform="translate(-14.09 -14.21)"/><path class="cls-38" d="M138.46,93.25a.09.09,0,1,0-.09-.09A.09.09,0,0,0,138.46,93.25Z" transform="translate(-14.09 -14.21)"/><path class="cls-38" d="M141.64,98.15a.09.09,0,1,0-.09-.09A.09.09,0,0,0,141.64,98.15Z" transform="translate(-14.09 -14.21)"/><path class="cls-38" d="M140.65,92.77a.09.09,0,1,0-.09-.09A.09.09,0,0,0,140.65,92.77Z" transform="translate(-14.09 -14.21)"/><path class="cls-38" d="M139.1,92.46a.09.09,0,1,0-.09-.09A.09.09,0,0,0,139.1,92.46Z" transform="translate(-14.09 -14.21)"/><path class="cls-38" d="M140.1,92.52a.09.09,0,1,0-.09-.09A.09.09,0,0,0,140.1,92.52Z" transform="translate(-14.09 -14.21)"/><path class="cls-38" d="M141.1,92.52a.09.09,0,1,0-.09-.09A.09.09,0,0,0,141.1,92.52Z" transform="translate(-14.09 -14.21)"/><path class="cls-38" d="M140.42,97.27a.09.09,0,1,0-.09-.09A.09.09,0,0,0,140.42,97.27Z" transform="translate(-14.09 -14.21)"/><path class="cls-38" d="M139.69,98a.09.09,0,1,0-.09-.09A.09.09,0,0,0,139.69,98Z" transform="translate(-14.09 -14.21)"/><path class="cls-38" d="M142.43,97.57a.09.09,0,1,0,0-.18.09.09,0,0,0,0,.18Z" transform="translate(-14.09 -14.21)"/><path class="cls-38" d="M141.06,96.61a.09.09,0,1,0-.09-.09A.09.09,0,0,0,141.06,96.61Z" transform="translate(-14.09 -14.21)"/><path class="cls-38" d="M139.51,96.3a.09.09,0,1,0-.09-.09A.09.09,0,0,0,139.51,96.3Z" transform="translate(-14.09 -14.21)"/><path class="cls-38" d="M140.51,96.36a.09.09,0,0,0,0-.18.09.09,0,0,0,0,.18Z" transform="translate(-14.09 -14.21)"/><path class="cls-38" d="M138.46,95.32a.09.09,0,1,0-.09-.09A.09.09,0,0,0,138.46,95.32Z" transform="translate(-14.09 -14.21)"/><path class="cls-38" d="M141.51,96.36a.09.09,0,1,0-.09-.09A.09.09,0,0,0,141.51,96.36Z" transform="translate(-14.09 -14.21)"/><path class="cls-38" d="M141.8,94.57a.09.09,0,0,0,.09-.08.09.09,0,0,0-.09-.09.09.09,0,0,0-.08.09A.09.09,0,0,0,141.8,94.57Z" transform="translate(-14.09 -14.21)"/><path class="cls-38" d="M141.26,94.32a.09.09,0,0,0,.09-.08.09.09,0,1,0-.18,0A.09.09,0,0,0,141.26,94.32Z" transform="translate(-14.09 -14.21)"/><path class="cls-38" d="M142.25,94.32a.09.09,0,0,0,.09-.08.09.09,0,1,0-.18,0A.09.09,0,0,0,142.25,94.32Z" transform="translate(-14.09 -14.21)"/><path class="cls-38" d="M140.85,94.45a.09.09,0,1,0-.09-.09A.09.09,0,0,0,140.85,94.45Z" transform="translate(-14.09 -14.21)"/><path class="cls-38" d="M141.49,93.79a.09.09,0,0,0,.08-.09.08.08,0,0,0-.08-.09.09.09,0,0,0,0,.18Z" transform="translate(-14.09 -14.21)"/><path class="cls-38" d="M140.94,93.54a.09.09,0,1,0-.09-.09A.09.09,0,0,0,140.94,93.54Z" transform="translate(-14.09 -14.21)"/><path class="cls-38" d="M141.93,93.54a.09.09,0,0,0,0-.18.09.09,0,0,0,0,.18Z" transform="translate(-14.09 -14.21)"/><path class="cls-38" d="M143.05,97.57a.09.09,0,1,0-.09-.09A.09.09,0,0,0,143.05,97.57Z" transform="translate(-14.09 -14.21)"/><path class="cls-38" d="M142.73,96.89a.1.1,0,0,0,.09-.09.09.09,0,0,0-.18,0A.09.09,0,0,0,142.73,96.89Z" transform="translate(-14.09 -14.21)"/><path class="cls-38" d="M143.14,96.47a.09.09,0,1,0-.09-.09A.09.09,0,0,0,143.14,96.47Z" transform="translate(-14.09 -14.21)"/><path class="cls-38" d="M142,97.14a.09.09,0,0,0,.09-.09.09.09,0,0,0-.18,0A.09.09,0,0,0,142,97.14Z" transform="translate(-14.09 -14.21)"/><path class="cls-38" d="M142.64,94.83a.09.09,0,1,0-.09-.09A.09.09,0,0,0,142.64,94.83Z" transform="translate(-14.09 -14.21)"/><path class="cls-38" d="M141.82,95.69a.09.09,0,1,0-.09-.09A.09.09,0,0,0,141.82,95.69Z" transform="translate(-14.09 -14.21)"/><path class="cls-38" d="M142.82,95.69a.09.09,0,1,0-.09-.09A.09.09,0,0,0,142.82,95.69Z" transform="translate(-14.09 -14.21)"/><path class="cls-38" d="M141.54,101.45a.09.09,0,0,0,0-.18.09.09,0,0,0,0,.18Z" transform="translate(-14.09 -14.21)"/><path class="cls-38" d="M142.18,100.79a.09.09,0,0,0,0-.18.09.09,0,0,0,0,.18Z" transform="translate(-14.09 -14.21)"/><path class="cls-38" d="M141,99.86a.09.09,0,1,0-.09-.09A.09.09,0,0,0,141,99.86Z" transform="translate(-14.09 -14.21)"/><path class="cls-38" d="M141.64,100.54a.09.09,0,1,0-.09-.09A.09.09,0,0,0,141.64,100.54Z" transform="translate(-14.09 -14.21)"/><path class="cls-38" d="M140.18,100.78a.09.09,0,0,0,0-.18.09.09,0,0,0,0,.18Z" transform="translate(-14.09 -14.21)"/><path class="cls-38" d="M140.41,101.36a.09.09,0,0,0,0-.18.09.09,0,0,0,0,.18Z" transform="translate(-14.09 -14.21)"/><path class="cls-38" d="M139.51,100.39a.09.09,0,1,0-.09-.09A.09.09,0,0,0,139.51,100.39Z" transform="translate(-14.09 -14.21)"/><path class="cls-38" d="M140.51,100.45a.09.09,0,1,0-.09-.09A.09.09,0,0,0,140.51,100.45Z" transform="translate(-14.09 -14.21)"/><path class="cls-38" d="M142.64,100.54a.09.09,0,1,0-.09-.09A.09.09,0,0,0,142.64,100.54Z" transform="translate(-14.09 -14.21)"/><path class="cls-38" d="M138,100.74a.09.09,0,1,0-.09-.09A.09.09,0,0,0,138,100.74Z" transform="translate(-14.09 -14.21)"/><path class="cls-38" d="M139.19,99.14a.09.09,0,0,0,.09-.09.09.09,0,0,0-.18,0A.09.09,0,0,0,139.19,99.14Z" transform="translate(-14.09 -14.21)"/><path class="cls-38" d="M139.51,101.36a.09.09,0,1,0-.09-.09A.09.09,0,0,0,139.51,101.36Z" transform="translate(-14.09 -14.21)"/><path class="cls-38" d="M138.13,99.83a.09.09,0,1,0-.09-.09A.09.09,0,0,0,138.13,99.83Z" transform="translate(-14.09 -14.21)"/><path class="cls-38" d="M140.09,98.84a.09.09,0,1,0-.09-.09A.09.09,0,0,0,140.09,98.84Z" transform="translate(-14.09 -14.21)"/><path class="cls-38" d="M136,97a.09.09,0,1,0-.09-.09A.09.09,0,0,0,136,97Z" transform="translate(-14.09 -14.21)"/><path class="cls-38" d="M142.91,101.36a.09.09,0,1,0-.09-.09A.09.09,0,0,0,142.91,101.36Z" transform="translate(-14.09 -14.21)"/><path class="cls-38" d="M135.3,98.17a.09.09,0,1,0-.09-.09A.09.09,0,0,0,135.3,98.17Z" transform="translate(-14.09 -14.21)"/><path class="cls-38" d="M137.61,98.18a.09.09,0,1,0-.09-.09A.09.09,0,0,0,137.61,98.18Z" transform="translate(-14.09 -14.21)"/><path class="cls-38" d="M137.52,99.38a.09.09,0,1,0-.09-.09A.09.09,0,0,0,137.52,99.38Z" transform="translate(-14.09 -14.21)"/><path class="cls-38" d="M140.46,94.74a.09.09,0,1,0-.09-.09A.09.09,0,0,0,140.46,94.74Z" transform="translate(-14.09 -14.21)"/><path class="cls-38" d="M143.19,100.16a.09.09,0,0,0,.09-.08.09.09,0,0,0-.18,0A.09.09,0,0,0,143.19,100.16Z" transform="translate(-14.09 -14.21)"/><path class="cls-38" d="M142.35,93.16a.09.09,0,1,0-.09-.09A.09.09,0,0,0,142.35,93.16Z" transform="translate(-14.09 -14.21)"/><path class="cls-38" d="M142.43,96a.09.09,0,0,0,0-.18.09.09,0,0,0,0,.18Z" transform="translate(-14.09 -14.21)"/><path class="cls-38" d="M50.58,94.21a.09.09,0,1,0-.09-.09A.09.09,0,0,0,50.58,94.21Z" transform="translate(-14.09 -14.21)"/><path class="cls-38" d="M57.79,99.89a.09.09,0,1,0-.09-.09A.09.09,0,0,0,57.79,99.89Z" transform="translate(-14.09 -14.21)"/><path class="cls-38" d="M57,101.11a.09.09,0,1,0-.09-.09A.09.09,0,0,0,57,101.11Z" transform="translate(-14.09 -14.21)"/><path class="cls-38" d="M58,101.31a.1.1,0,0,0,.09-.09.09.09,0,0,0-.18,0A.1.1,0,0,0,58,101.31Z" transform="translate(-14.09 -14.21)"/><path class="cls-38" d="M56.84,99a.09.09,0,1,0-.09-.09A.09.09,0,0,0,56.84,99Z" transform="translate(-14.09 -14.21)"/><path class="cls-38" d="M56.29,97.5a.09.09,0,0,0,0-.18.09.09,0,0,0,0,.18Z" transform="translate(-14.09 -14.21)"/><path class="cls-38" d="M54.5,96.37a.09.09,0,0,0,.09-.09.09.09,0,0,0-.18,0A.09.09,0,0,0,54.5,96.37Z" transform="translate(-14.09 -14.21)"/><path class="cls-38" d="M50.79,98.42a.09.09,0,1,0-.09-.09A.09.09,0,0,0,50.79,98.42Z" transform="translate(-14.09 -14.21)"/><path class="cls-38" d="M52,101a.09.09,0,0,0,.09-.09.09.09,0,0,0-.18,0A.09.09,0,0,0,52,101Z" transform="translate(-14.09 -14.21)"/><path class="cls-38" d="M56.72,96.28a.09.09,0,0,0,.09-.09.09.09,0,0,0-.18,0A.09.09,0,0,0,56.72,96.28Z" transform="translate(-14.09 -14.21)"/><path class="cls-38" d="M56.05,100.64a.09.09,0,0,0,0-.18.09.09,0,0,0,0,.18Z" transform="translate(-14.09 -14.21)"/><path class="cls-38" d="M52.57,95.9a.09.09,0,1,0-.09-.09A.09.09,0,0,0,52.57,95.9Z" transform="translate(-14.09 -14.21)"/><path class="cls-38" d="M55,94.55a.09.09,0,0,0,.09-.08.09.09,0,0,0-.18,0A.09.09,0,0,0,55,94.55Z" transform="translate(-14.09 -14.21)"/><path class="cls-38" d="M56.93,95.07a.09.09,0,0,0,0-.18.09.09,0,1,0,0,.18Z" transform="translate(-14.09 -14.21)"/><path class="cls-38" d="M54.94,98a.09.09,0,1,0-.09-.09A.09.09,0,0,0,54.94,98Z" transform="translate(-14.09 -14.21)"/><path class="cls-38" d="M55.61,96.85a.09.09,0,1,0-.09-.09A.09.09,0,0,0,55.61,96.85Z" transform="translate(-14.09 -14.21)"/><path class="cls-38" d="M53.3,93.58a.09.09,0,1,0-.09-.09A.09.09,0,0,0,53.3,93.58Z" transform="translate(-14.09 -14.21)"/><path class="cls-38" d="M54,94.3a.09.09,0,1,0-.09-.09A.09.09,0,0,0,54,94.3Z" transform="translate(-14.09 -14.21)"/><path class="cls-38" d="M53.92,95.38a.09.09,0,1,0-.09-.09A.09.09,0,0,0,53.92,95.38Z" transform="translate(-14.09 -14.21)"/><path class="cls-38" d="M52.12,95.29A.09.09,0,1,0,52,95.2.09.09,0,0,0,52.12,95.29Z" transform="translate(-14.09 -14.21)"/><path class="cls-38" d="M57.61,95.56a.09.09,0,1,0-.09-.09A.09.09,0,0,0,57.61,95.56Z" transform="translate(-14.09 -14.21)"/><path class="cls-38" d="M55.7,95.56a.09.09,0,1,0-.09-.09A.09.09,0,0,0,55.7,95.56Z" transform="translate(-14.09 -14.21)"/><path class="cls-38" d="M54.41,101.31a.1.1,0,0,0,.09-.09.09.09,0,0,0-.18,0A.1.1,0,0,0,54.41,101.31Z" transform="translate(-14.09 -14.21)"/><path class="cls-38" d="M50.4,99.29a.09.09,0,0,0,.09-.08.09.09,0,1,0-.18,0A.09.09,0,0,0,50.4,99.29Z" transform="translate(-14.09 -14.21)"/><path class="cls-38" d="M53.39,99.62a.09.09,0,1,0-.09-.09A.09.09,0,0,0,53.39,99.62Z" transform="translate(-14.09 -14.21)"/><path class="cls-38" d="M51.48,99.44a.09.09,0,1,0-.09-.09A.09.09,0,0,0,51.48,99.44Z" transform="translate(-14.09 -14.21)"/><path class="cls-38" d="M51.93,97.55a.09.09,0,1,0-.09-.09A.09.09,0,0,0,51.93,97.55Z" transform="translate(-14.09 -14.21)"/><path class="cls-38" d="M50.58,98.63a.09.09,0,1,0-.09-.09A.09.09,0,0,0,50.58,98.63Z" transform="translate(-14.09 -14.21)"/><path class="cls-38" d="M53.48,97.23a.09.09,0,1,0-.09-.09A.09.09,0,0,0,53.48,97.23Z" transform="translate(-14.09 -14.21)"/><path class="cls-38" d="M51.67,98.72a.09.09,0,1,0-.09-.09A.09.09,0,0,0,51.67,98.72Z" transform="translate(-14.09 -14.21)"/><path class="cls-38" d="M51,99.44a.09.09,0,1,0-.09-.09A.09.09,0,0,0,51,99.44Z" transform="translate(-14.09 -14.21)"/><path class="cls-38" d="M54.94,98.9a.09.09,0,1,0-.09-.09A.09.09,0,0,0,54.94,98.9Z" transform="translate(-14.09 -14.21)"/><path class="cls-38" d="M52.48,97.29a.09.09,0,0,0,.09-.08.09.09,0,1,0-.18,0A.09.09,0,0,0,52.48,97.29Z" transform="translate(-14.09 -14.21)"/><path class="cls-38" d="M56.64,93.4a.09.09,0,0,0,0-.18.09.09,0,1,0,0,.18Z" transform="translate(-14.09 -14.21)"/><path class="cls-38" d="M52.85,98.33a.09.09,0,0,0,.09-.09.09.09,0,0,0-.09-.08.09.09,0,0,0-.08.08A.09.09,0,0,0,52.85,98.33Z" transform="translate(-14.09 -14.21)"/><path class="cls-38" d="M52.34,99.29a.09.09,0,0,0,.09-.08.09.09,0,1,0-.18,0A.09.09,0,0,0,52.34,99.29Z" transform="translate(-14.09 -14.21)"/><path class="cls-38" d="M54.85,93.4a.09.09,0,1,0-.09-.09A.09.09,0,0,0,54.85,93.4Z" transform="translate(-14.09 -14.21)"/><path class="cls-38" d="M51.67,98.3a.09.09,0,1,0-.09-.09A.09.09,0,0,0,51.67,98.3Z" transform="translate(-14.09 -14.21)"/><path class="cls-38" d="M52.66,92.92a.09.09,0,1,0-.09-.09A.09.09,0,0,0,52.66,92.92Z" transform="translate(-14.09 -14.21)"/><path class="cls-38" d="M54.21,92.61a.09.09,0,1,0-.09-.09A.09.09,0,0,0,54.21,92.61Z" transform="translate(-14.09 -14.21)"/><path class="cls-38" d="M53.21,92.67a.09.09,0,1,0-.09-.09A.09.09,0,0,0,53.21,92.67Z" transform="translate(-14.09 -14.21)"/><path class="cls-38" d="M52.21,92.67a.09.09,0,1,0-.09-.09A.09.09,0,0,0,52.21,92.67Z" transform="translate(-14.09 -14.21)"/><path class="cls-38" d="M52.89,97.42a.09.09,0,1,0-.09-.09A.09.09,0,0,0,52.89,97.42Z" transform="translate(-14.09 -14.21)"/><path class="cls-38" d="M53.62,98.14a.09.09,0,1,0-.09-.09A.09.09,0,0,0,53.62,98.14Z" transform="translate(-14.09 -14.21)"/><path class="cls-38" d="M50.88,97.72a.09.09,0,0,0,.09-.09.09.09,0,0,0-.18,0A.09.09,0,0,0,50.88,97.72Z" transform="translate(-14.09 -14.21)"/><path class="cls-38" d="M52.25,96.76a.09.09,0,1,0-.09-.09A.09.09,0,0,0,52.25,96.76Z" transform="translate(-14.09 -14.21)"/><path class="cls-38" d="M53.8,96.45a.09.09,0,1,0-.09-.09A.09.09,0,0,0,53.8,96.45Z" transform="translate(-14.09 -14.21)"/><path class="cls-38" d="M52.8,96.51a.09.09,0,1,0-.09-.09A.09.09,0,0,0,52.8,96.51Z" transform="translate(-14.09 -14.21)"/><path class="cls-38" d="M54.85,95.47a.09.09,0,1,0-.09-.09A.09.09,0,0,0,54.85,95.47Z" transform="translate(-14.09 -14.21)"/><path class="cls-38" d="M51.8,96.51a.09.09,0,1,0-.09-.09A.09.09,0,0,0,51.8,96.51Z" transform="translate(-14.09 -14.21)"/><path class="cls-38" d="M51.51,94.73a.09.09,0,1,0-.09-.09A.09.09,0,0,0,51.51,94.73Z" transform="translate(-14.09 -14.21)"/><path class="cls-38" d="M52.05,94.48a.09.09,0,1,0-.09-.09A.09.09,0,0,0,52.05,94.48Z" transform="translate(-14.09 -14.21)"/><path class="cls-38" d="M51.06,94.48a.09.09,0,1,0-.09-.09A.09.09,0,0,0,51.06,94.48Z" transform="translate(-14.09 -14.21)"/><path class="cls-38" d="M52.47,94.6a.09.09,0,0,0,0-.18.09.09,0,1,0,0,.18Z" transform="translate(-14.09 -14.21)"/><path class="cls-38" d="M51.83,93.94a.09.09,0,1,0-.09-.09A.09.09,0,0,0,51.83,93.94Z" transform="translate(-14.09 -14.21)"/><path class="cls-38" d="M52.37,93.69a.09.09,0,0,0,.09-.08.09.09,0,0,0-.18,0A.09.09,0,0,0,52.37,93.69Z" transform="translate(-14.09 -14.21)"/><path class="cls-38" d="M51.38,93.69a.09.09,0,0,0,.08-.08.09.09,0,0,0-.08-.09.09.09,0,0,0-.09.09A.09.09,0,0,0,51.38,93.69Z" transform="translate(-14.09 -14.21)"/><path class="cls-38" d="M50.26,97.72a.09.09,0,0,0,.09-.09.09.09,0,0,0-.18,0A.09.09,0,0,0,50.26,97.72Z" transform="translate(-14.09 -14.21)"/><path class="cls-38" d="M50.59,97.05A.09.09,0,1,0,50.5,97,.09.09,0,0,0,50.59,97.05Z" transform="translate(-14.09 -14.21)"/><path class="cls-38" d="M50.17,96.63a.09.09,0,1,0-.09-.09A.09.09,0,0,0,50.17,96.63Z" transform="translate(-14.09 -14.21)"/><path class="cls-38" d="M51.29,97.29a.09.09,0,0,0,.09-.08.09.09,0,1,0-.18,0A.09.09,0,0,0,51.29,97.29Z" transform="translate(-14.09 -14.21)"/><path class="cls-38" d="M50.68,95a.09.09,0,1,0-.09-.09A.09.09,0,0,0,50.68,95Z" transform="translate(-14.09 -14.21)"/><path class="cls-38" d="M51.49,95.84a.09.09,0,1,0-.09-.09A.09.09,0,0,0,51.49,95.84Z" transform="translate(-14.09 -14.21)"/><path class="cls-38" d="M50.49,95.84a.09.09,0,1,0-.09-.09A.09.09,0,0,0,50.49,95.84Z" transform="translate(-14.09 -14.21)"/><path class="cls-38" d="M51.76,101.6a.09.09,0,1,0-.09-.09A.09.09,0,0,0,51.76,101.6Z" transform="translate(-14.09 -14.21)"/><path class="cls-38" d="M51.13,100.94a.09.09,0,0,0,0-.18.09.09,0,0,0,0,.18Z" transform="translate(-14.09 -14.21)"/><path class="cls-38" d="M52.34,100a.09.09,0,1,0-.09-.09A.09.09,0,0,0,52.34,100Z" transform="translate(-14.09 -14.21)"/><path class="cls-38" d="M51.67,100.69a.09.09,0,1,0-.09-.09A.09.09,0,0,0,51.67,100.69Z" transform="translate(-14.09 -14.21)"/><path class="cls-38" d="M53.13,100.93a.09.09,0,0,0,.09-.09.09.09,0,0,0-.18,0A.09.09,0,0,0,53.13,100.93Z" transform="translate(-14.09 -14.21)"/><path class="cls-38" d="M52.89,101.51a.09.09,0,1,0-.09-.09A.09.09,0,0,0,52.89,101.51Z" transform="translate(-14.09 -14.21)"/><path class="cls-38" d="M53.8,100.54a.09.09,0,1,0-.09-.09A.09.09,0,0,0,53.8,100.54Z" transform="translate(-14.09 -14.21)"/><path class="cls-38" d="M52.8,100.6a.09.09,0,1,0-.09-.09A.09.09,0,0,0,52.8,100.6Z" transform="translate(-14.09 -14.21)"/><path class="cls-38" d="M50.68,100.69a.09.09,0,1,0-.09-.09A.09.09,0,0,0,50.68,100.69Z" transform="translate(-14.09 -14.21)"/><path class="cls-38" d="M55.27,100.89a.09.09,0,1,0-.09-.09A.09.09,0,0,0,55.27,100.89Z" transform="translate(-14.09 -14.21)"/><path class="cls-38" d="M54.13,99.29a.09.09,0,0,0,.09-.08.09.09,0,1,0-.18,0A.09.09,0,0,0,54.13,99.29Z" transform="translate(-14.09 -14.21)"/><path class="cls-38" d="M53.8,101.51a.09.09,0,1,0-.09-.09A.09.09,0,0,0,53.8,101.51Z" transform="translate(-14.09 -14.21)"/><path class="cls-38" d="M55.18,100a.09.09,0,1,0-.09-.09A.09.09,0,0,0,55.18,100Z" transform="translate(-14.09 -14.21)"/><path class="cls-38" d="M53.22,99a.09.09,0,1,0-.09-.09A.09.09,0,0,0,53.22,99Z" transform="translate(-14.09 -14.21)"/><path class="cls-38" d="M57.35,97.14a.09.09,0,1,0-.09-.09A.09.09,0,0,0,57.35,97.14Z" transform="translate(-14.09 -14.21)"/><path class="cls-38" d="M50.4,101.51a.09.09,0,1,0-.09-.09A.09.09,0,0,0,50.4,101.51Z" transform="translate(-14.09 -14.21)"/><path class="cls-38" d="M58,98.32a.09.09,0,1,0-.09-.09A.09.09,0,0,0,58,98.32Z" transform="translate(-14.09 -14.21)"/><path class="cls-38" d="M55.7,98.33a.09.09,0,0,0,.09-.09.09.09,0,0,0-.18,0A.09.09,0,0,0,55.7,98.33Z" transform="translate(-14.09 -14.21)"/><path class="cls-38" d="M55.79,99.53a.09.09,0,1,0-.09-.09A.09.09,0,0,0,55.79,99.53Z" transform="translate(-14.09 -14.21)"/><path class="cls-38" d="M52.85,94.89a.09.09,0,1,0,0-.18.09.09,0,0,0,0,.18Z" transform="translate(-14.09 -14.21)"/><path class="cls-38" d="M50.13,100.31a.09.09,0,0,0,.09-.08.09.09,0,0,0-.18,0A.09.09,0,0,0,50.13,100.31Z" transform="translate(-14.09 -14.21)"/><path class="cls-38" d="M51,93.31a.09.09,0,1,0-.09-.09A.09.09,0,0,0,51,93.31Z" transform="translate(-14.09 -14.21)"/><path class="cls-38" d="M50.88,96.19a.09.09,0,1,0-.09-.09A.09.09,0,0,0,50.88,96.19Z" transform="translate(-14.09 -14.21)"/><path class="cls-38" d="M134.71,89.43a.09.09,0,0,0,.09-.09.09.09,0,0,0-.18,0A.09.09,0,0,0,134.71,89.43Z" transform="translate(-14.09 -14.21)"/><path class="cls-38" d="M135.27,88.8a.09.09,0,0,0,0-.18.09.09,0,0,0,0,.18Z" transform="translate(-14.09 -14.21)"/><path class="cls-38" d="M135.81,87.31a.09.09,0,1,0-.09-.09A.09.09,0,0,0,135.81,87.31Z" transform="translate(-14.09 -14.21)"/><path class="cls-38" d="M137.61,86.19a.09.09,0,1,0-.09-.09A.09.09,0,0,0,137.61,86.19Z" transform="translate(-14.09 -14.21)"/><path class="cls-38" d="M141.32,88.23a.09.09,0,1,0-.09-.09A.09.09,0,0,0,141.32,88.23Z" transform="translate(-14.09 -14.21)"/><path class="cls-38" d="M135.12,86.33a.09.09,0,1,0-.09-.09A.09.09,0,0,0,135.12,86.33Z" transform="translate(-14.09 -14.21)"/><path class="cls-38" d="M135.63,89.35a.09.09,0,1,0-.09-.09A.09.09,0,0,0,135.63,89.35Z" transform="translate(-14.09 -14.21)"/><path class="cls-38" d="M137.8,87.22a.09.09,0,1,0,0-.18.09.09,0,0,0,0,.18Z" transform="translate(-14.09 -14.21)"/><path class="cls-38" d="M136.5,86.66a.09.09,0,0,0,.09-.09.09.09,0,0,0-.18,0A.09.09,0,0,0,136.5,86.66Z" transform="translate(-14.09 -14.21)"/><path class="cls-38" d="M141.71,89.11a.09.09,0,1,0-.09-.09A.09.09,0,0,0,141.71,89.11Z" transform="translate(-14.09 -14.21)"/><path class="cls-38" d="M138.72,89.43a.09.09,0,0,0,.09-.09.09.09,0,0,0-.18,0A.09.09,0,0,0,138.72,89.43Z" transform="translate(-14.09 -14.21)"/><path class="cls-38" d="M140.62,89.26a.09.09,0,1,0-.09-.09A.09.09,0,0,0,140.62,89.26Z" transform="translate(-14.09 -14.21)"/><path class="cls-38" d="M140.17,87.36a.09.09,0,1,0-.09-.09A.09.09,0,0,0,140.17,87.36Z" transform="translate(-14.09 -14.21)"/><path class="cls-38" d="M141.53,88.44a.09.09,0,1,0-.09-.09A.09.09,0,0,0,141.53,88.44Z" transform="translate(-14.09 -14.21)"/><path class="cls-38" d="M138.63,87a.09.09,0,1,0-.09-.09A.09.09,0,0,0,138.63,87Z" transform="translate(-14.09 -14.21)"/><path class="cls-38" d="M140.43,88.53a.09.09,0,0,0,0-.18.09.09,0,0,0,0,.18Z" transform="translate(-14.09 -14.21)"/><path class="cls-38" d="M141.14,89.26a.09.09,0,1,0-.09-.09A.09.09,0,0,0,141.14,89.26Z" transform="translate(-14.09 -14.21)"/><path class="cls-38" d="M137.16,88.71a.09.09,0,1,0,0-.18.09.09,0,0,0,0,.18Z" transform="translate(-14.09 -14.21)"/><path class="cls-38" d="M139.63,87.11a.09.09,0,1,0-.09-.09A.09.09,0,0,0,139.63,87.11Z" transform="translate(-14.09 -14.21)"/><path class="cls-38" d="M139.26,88.14a.09.09,0,0,0,.09-.08.09.09,0,0,0-.18,0A.09.09,0,0,0,139.26,88.14Z" transform="translate(-14.09 -14.21)"/><path class="cls-38" d="M139.77,89.11a.09.09,0,1,0-.09-.09A.09.09,0,0,0,139.77,89.11Z" transform="translate(-14.09 -14.21)"/><path class="cls-38" d="M140.43,88.11a.09.09,0,0,0,0-.18.09.09,0,0,0,0,.18Z" transform="translate(-14.09 -14.21)"/><path class="cls-38" d="M139.22,87.23a.09.09,0,1,0-.09-.09A.09.09,0,0,0,139.22,87.23Z" transform="translate(-14.09 -14.21)"/><path class="cls-38" d="M138.49,88a.09.09,0,0,0,0-.18.09.09,0,0,0,0,.18Z" transform="translate(-14.09 -14.21)"/><path class="cls-38" d="M141.23,87.54a.09.09,0,1,0-.09-.09A.09.09,0,0,0,141.23,87.54Z" transform="translate(-14.09 -14.21)"/><path class="cls-38" d="M139.85,86.57a.09.09,0,0,0,.09-.09.09.09,0,0,0-.09-.08.09.09,0,0,0-.08.08A.09.09,0,0,0,139.85,86.57Z" transform="translate(-14.09 -14.21)"/><path class="cls-38" d="M138.31,86.26a.09.09,0,1,0-.09-.09A.09.09,0,0,0,138.31,86.26Z" transform="translate(-14.09 -14.21)"/><path class="cls-38" d="M139.31,86.33a.09.09,0,1,0-.09-.09A.09.09,0,0,0,139.31,86.33Z" transform="translate(-14.09 -14.21)"/><path class="cls-38" d="M140.31,86.33a.09.09,0,1,0-.09-.09A.09.09,0,0,0,140.31,86.33Z" transform="translate(-14.09 -14.21)"/><path class="cls-38" d="M141.85,87.54a.09.09,0,1,0-.09-.09A.09.09,0,0,0,141.85,87.54Z" transform="translate(-14.09 -14.21)"/><path class="cls-38" d="M141.52,86.86a.09.09,0,1,0-.09-.09A.09.09,0,0,0,141.52,86.86Z" transform="translate(-14.09 -14.21)"/><path class="cls-38" d="M141.71,86.28a.09.09,0,1,0-.09-.09A.09.09,0,0,0,141.71,86.28Z" transform="translate(-14.09 -14.21)"/><path class="cls-38" d="M140.82,87.11a.09.09,0,0,0,0-.18.09.09,0,0,0,0,.18Z" transform="translate(-14.09 -14.21)"/><path class="cls-38" d="M139.77,89.82a.09.09,0,1,0-.09-.09A.09.09,0,0,0,139.77,89.82Z" transform="translate(-14.09 -14.21)"/><path class="cls-38" d="M141.41,89.71a.09.09,0,1,0-.09-.09A.09.09,0,0,0,141.41,89.71Z" transform="translate(-14.09 -14.21)"/><path class="cls-38" d="M137.89,88a.09.09,0,1,0-.09-.09A.09.09,0,0,0,137.89,88Z" transform="translate(-14.09 -14.21)"/><path class="cls-38" d="M140.65,89.86a.09.09,0,1,0-.09-.09A.09.09,0,0,0,140.65,89.86Z" transform="translate(-14.09 -14.21)"/><path class="cls-38" d="M141.4,90a.09.09,0,1,0-.09-.09A.09.09,0,0,0,141.4,90Z" transform="translate(-14.09 -14.21)"/><path class="cls-38" d="M138,89.11a.09.09,0,1,0-.09-.09A.09.09,0,0,0,138,89.11Z" transform="translate(-14.09 -14.21)"/><path class="cls-38" d="M137.35,89.43a.08.08,0,0,0,.08-.09.08.08,0,0,0-.08-.08.09.09,0,0,0-.09.08A.09.09,0,0,0,137.35,89.43Z" transform="translate(-14.09 -14.21)"/><path class="cls-38" d="M138.89,88.8a.09.09,0,1,0-.09-.09A.09.09,0,0,0,138.89,88.8Z" transform="translate(-14.09 -14.21)"/><path class="cls-38" d="M134.76,87a.09.09,0,1,0-.09-.09A.09.09,0,0,0,134.76,87Z" transform="translate(-14.09 -14.21)"/><path class="cls-38" d="M134.76,88a.09.09,0,1,0-.09-.09A.09.09,0,0,0,134.76,88Z" transform="translate(-14.09 -14.21)"/><path class="cls-38" d="M136.41,88.14a.09.09,0,0,0,.09-.08.09.09,0,1,0-.18,0A.09.09,0,0,0,136.41,88.14Z" transform="translate(-14.09 -14.21)"/><path class="cls-38" d="M136.32,89.35a.09.09,0,1,0-.09-.09A.09.09,0,0,0,136.32,89.35Z" transform="translate(-14.09 -14.21)"/><path class="cls-38" d="M141.71,90.31a.09.09,0,1,0-.09-.09A.09.09,0,0,0,141.71,90.31Z" transform="translate(-14.09 -14.21)"/><path class="cls-38" d="M140.94,86.28a.09.09,0,1,0-.09-.09A.09.09,0,0,0,140.94,86.28Z" transform="translate(-14.09 -14.21)"/><path class="cls-18" d="M64.17,72.57a3,3,0,1,0-3-3A3,3,0,0,0,64.17,72.57Z" transform="translate(-14.09 -14.21)"/><path class="cls-18" d="M151.82,57.52a4.6,4.6,0,1,0-4.6-4.59A4.6,4.6,0,0,0,151.82,57.52Z" transform="translate(-14.09 -14.21)"/><path class="cls-29" d="M75.81,109.18a.09.09,0,0,1,.11-.07l4.41,1a.1.1,0,0,1,.07.12.09.09,0,0,1-.11.07l-4.41-1A.09.09,0,0,1,75.81,109.18Z" transform="translate(-14.09 -14.21)"/><path class="cls-29" d="M75.58,110.7a.1.1,0,0,1,.12-.07l3.72.86a.09.09,0,1,1,0,.18l-3.73-.86A.09.09,0,0,1,75.58,110.7Z" transform="translate(-14.09 -14.21)"/><path class="cls-29" d="M76.12,112.31a.09.09,0,0,1,.11-.07l2.42.56a.09.09,0,0,1,.07.11.09.09,0,0,1-.11.07l-2.42-.56A.09.09,0,0,1,76.12,112.31Z" transform="translate(-14.09 -14.21)"/><path class="cls-29" d="M112.67,116a.09.09,0,0,1-.08.1l-4.34.63a.09.09,0,0,1-.11-.08.1.1,0,0,1,.08-.1l4.34-.63A.09.09,0,0,1,112.67,116Z" transform="translate(-14.09 -14.21)"/><path class="cls-29" d="M112.66,117.24a.09.09,0,0,1-.08.11l-3.73.6a.09.09,0,0,1-.1-.08.09.09,0,0,1,.07-.11l3.74-.59A.08.08,0,0,1,112.66,117.24Z" transform="translate(-14.09 -14.21)"/><path class="cls-29" d="M112.88,118.49a.1.1,0,0,1-.08.11l-2.56.52a.09.09,0,1,1,0-.18l2.56-.52A.09.09,0,0,1,112.88,118.49Z" transform="translate(-14.09 -14.21)"/><path class="cls-36" d="M78,121.48a.09.09,0,0,1-.06.12l-11,3.46a.11.11,0,0,1-.12-.06c0-.06,0-.11.06-.12l11-3.46A.09.09,0,0,1,78,121.48Z" transform="translate(-14.09 -14.21)"/><path class="cls-36" d="M78.36,122.6a.09.09,0,0,1-.07.11l-10.91,3.43a.09.09,0,0,1-.11-.06.09.09,0,0,1,.06-.12l10.91-3.42A.09.09,0,0,1,78.36,122.6Z" transform="translate(-14.09 -14.21)"/><path class="cls-36" d="M115.06,121.33a.09.09,0,0,1,.12-.06.32.32,0,0,1,.21.27,1.42,1.42,0,0,1,0,.36h0a1.49,1.49,0,0,0,0,.33c0,.09,0,.13.08.14s.08,0,.15-.06a2.11,2.11,0,0,0,.22-.26h0a1.31,1.31,0,0,1,.24-.28.33.33,0,0,1,.32-.1.35.35,0,0,1,.22.27c0,.11,0,.24,0,.36h0a1.48,1.48,0,0,0,0,.33c0,.1,0,.13.09.14s.08,0,.15-.06a1.56,1.56,0,0,0,.22-.26h0a1.61,1.61,0,0,1,.24-.28.35.35,0,0,1,.33-.1.34.34,0,0,1,.21.27,2.21,2.21,0,0,1,0,.37h0a2.86,2.86,0,0,0,0,.34c0,.09.06.12.09.13s.08,0,.15-.06a1.94,1.94,0,0,0,.22-.25h0c.08-.09.16-.2.24-.28a.33.33,0,0,1,.33-.09.31.31,0,0,1,.21.26,1.5,1.5,0,0,1,0,.37h0a1.57,1.57,0,0,0,0,.33c0,.09,0,.12.09.14s.07,0,.14-.07a1.4,1.4,0,0,0,.22-.25h0a1.55,1.55,0,0,1,.24-.27.33.33,0,0,1,.33-.1.34.34,0,0,1,.21.27,2.09,2.09,0,0,1,0,.36h0a1.55,1.55,0,0,0,0,.33c0,.09.06.13.09.14s.08,0,.15-.06a2.11,2.11,0,0,0,.22-.26h0a2.32,2.32,0,0,1,.24-.28.34.34,0,0,1,.33-.1.32.32,0,0,1,.21.27,1.42,1.42,0,0,1,0,.36h0a1.49,1.49,0,0,0,0,.33c0,.1,0,.13.08.14s.08,0,.15-.06a1.56,1.56,0,0,0,.22-.26h0a1.61,1.61,0,0,1,.24-.28.35.35,0,0,1,.33-.1.34.34,0,0,1,.21.27,2.21,2.21,0,0,1,0,.37h0a1.65,1.65,0,0,0,0,.34c0,.09.06.12.09.13s.08,0,.15-.06a1.94,1.94,0,0,0,.22-.25h0a3.27,3.27,0,0,1,.24-.27.34.34,0,0,1,.33-.1.32.32,0,0,1,.21.27,1.42,1.42,0,0,1,0,.36h0a1.57,1.57,0,0,0,0,.33c0,.09,0,.13.08.14s.08,0,.15-.06a3.28,3.28,0,0,0,.22-.26h0a1.31,1.31,0,0,1,.24-.28.33.33,0,0,1,.33-.1.34.34,0,0,1,.21.27,2.09,2.09,0,0,1,0,.36h0a1.55,1.55,0,0,0,0,.33c0,.09.06.13.09.14s.08,0,.15-.06a1.56,1.56,0,0,0,.22-.26h0a3.48,3.48,0,0,1,.24-.28.36.36,0,0,1,.33-.1.09.09,0,0,1,.06.12.08.08,0,0,1-.11.06s-.08,0-.15.06a1.56,1.56,0,0,0-.22.26h0a2.26,2.26,0,0,1-.25.28.33.33,0,0,1-.32.1.35.35,0,0,1-.22-.27,2.21,2.21,0,0,1,0-.37h0a1.65,1.65,0,0,0,0-.34c0-.09-.06-.12-.09-.13s-.08,0-.15.06a1.94,1.94,0,0,0-.22.25h0c-.08.09-.16.2-.24.28a.36.36,0,0,1-.33.09.34.34,0,0,1-.22-.26,2.22,2.22,0,0,1,0-.37h0a2.71,2.71,0,0,0,0-.33c0-.09,0-.12-.09-.14s-.07,0-.15.07a1.38,1.38,0,0,0-.21.25h0a1.55,1.55,0,0,1-.24.27.33.33,0,0,1-.33.1.34.34,0,0,1-.21-.27,2.09,2.09,0,0,1,0-.36h0a1.55,1.55,0,0,0,0-.33c0-.09-.06-.13-.09-.14s-.08,0-.15.06a2.11,2.11,0,0,0-.22.26h0a2.32,2.32,0,0,1-.24.28.36.36,0,0,1-.33.1.32.32,0,0,1-.21-.27,1.45,1.45,0,0,1,0-.37h0a1.59,1.59,0,0,0,0-.34c0-.09,0-.12-.09-.13s-.07,0-.15.06a1.56,1.56,0,0,0-.21.26h0a1.61,1.61,0,0,1-.24.28.35.35,0,0,1-.33.1.34.34,0,0,1-.21-.27,2.21,2.21,0,0,1,0-.37h0a1.65,1.65,0,0,0,0-.34c0-.09-.06-.12-.09-.13l0-.09,0,.09s-.08,0-.15.06a1.94,1.94,0,0,0-.22.25h0a3.27,3.27,0,0,1-.24.27.34.34,0,0,1-.33.1.32.32,0,0,1-.21-.27,1.42,1.42,0,0,1,0-.36h0a1.57,1.57,0,0,0,0-.33c0-.09-.05-.13-.08-.14l0-.09,0,.09s-.08,0-.15.06a3.28,3.28,0,0,0-.22.26h0a1.31,1.31,0,0,1-.24.28.31.31,0,0,1-.32.1.35.35,0,0,1-.22-.27,2.09,2.09,0,0,1,0-.36h0a1.55,1.55,0,0,0,0-.33c0-.09,0-.13-.09-.14Zm0,0a.11.11,0,0,0,.06.12Zm.06.12s.07,0,.09.13Zm.09.13a1.59,1.59,0,0,1,0,.34Zm0,.34Zm0,0a2.22,2.22,0,0,0,0,.37Zm0,.37a.37.37,0,0,0,.22.27Zm.22.27a.36.36,0,0,0,.33-.1Zm.33-.1a3.48,3.48,0,0,0,.24-.28Zm.24-.28h0Zm0,0a1.94,1.94,0,0,1,.22-.25Zm.22-.25c.07-.06.11-.07.15-.06Z" transform="translate(-14.09 -14.21)"/><path class="cls-39" d="M133,68.85a.19.19,0,0,1,0,.37s-.05,0-.1.08a1.32,1.32,0,0,0-.14.31h0a3,3,0,0,1-.18.36.45.45,0,0,1-.8,0,2.16,2.16,0,0,1-.2-.36h0a2.86,2.86,0,0,0-.16-.31c0-.06-.08-.07-.1-.07s-.05,0-.1.08a1.32,1.32,0,0,0-.14.31h0a2,2,0,0,1-.18.36.45.45,0,0,1-.8,0,3.24,3.24,0,0,1-.2-.36h0a2.86,2.86,0,0,0-.16-.31c0-.06-.08-.07-.1-.07s0,0-.09.08a1.32,1.32,0,0,0-.14.31h0a2,2,0,0,1-.17.36.52.52,0,0,1-.4.25.53.53,0,0,1-.41-.23,2.09,2.09,0,0,1-.19-.36h0a2,2,0,0,0-.16-.3c-.06-.07-.09-.08-.1-.08s-.05,0-.1.08a1.32,1.32,0,0,0-.14.31h0a2,2,0,0,1-.18.36.45.45,0,0,1-.8,0,3.24,3.24,0,0,1-.2-.36h0a2,2,0,0,0-.16-.3c0-.07-.08-.08-.1-.08s0,0-.09.08a1.32,1.32,0,0,0-.14.31h0a2,2,0,0,1-.17.36.52.52,0,0,1-.4.25.53.53,0,0,1-.41-.23,2.09,2.09,0,0,1-.19-.36h0a1.38,1.38,0,0,0-.15-.3c-.06-.07-.09-.08-.1-.08s0,0-.1.08a1.32,1.32,0,0,0-.14.31h0a2,2,0,0,1-.18.36.45.45,0,0,1-.8,0,3.24,3.24,0,0,1-.2-.36h0a2,2,0,0,0-.16-.3c0-.07-.08-.08-.1-.08s0,0-.09.08a1.32,1.32,0,0,0-.14.31h0a2,2,0,0,1-.17.36.52.52,0,0,1-.4.25.5.5,0,0,1-.4-.23,2.16,2.16,0,0,1-.2-.36h0a2,2,0,0,0-.16-.3c0-.07-.08-.08-.1-.08s0,0-.09.08a1.28,1.28,0,0,0-.15.31h0a2,2,0,0,1-.18.36.48.48,0,0,1-.39.25.53.53,0,0,1-.41-.23,2.09,2.09,0,0,1-.19-.36h0a1.35,1.35,0,0,0-.16-.3c-.05-.07-.08-.08-.1-.08s0,0-.09.08a1.32,1.32,0,0,0-.14.31h0a2,2,0,0,1-.17.36.45.45,0,0,1-.8,0,2.16,2.16,0,0,1-.2-.36h0a2,2,0,0,0-.16-.3c0-.07-.08-.08-.1-.08a.19.19,0,0,1-.19-.18.18.18,0,0,1,.18-.19.5.5,0,0,1,.41.22,1.85,1.85,0,0,1,.19.37h0a1.63,1.63,0,0,0,.16.3c0,.07.08.07.1.07s0,0,.09-.07a1.86,1.86,0,0,0,.14-.31h0a1.76,1.76,0,0,1,.17-.37.48.48,0,0,1,.4-.24.47.47,0,0,1,.4.22,1.9,1.9,0,0,1,.2.37h0a2.59,2.59,0,0,0,.16.3c0,.07.08.07.1.07s0,0,.09-.07a3.06,3.06,0,0,0,.15-.31h0a1.81,1.81,0,0,1,.18-.37.45.45,0,0,1,.39-.24v0a.5.5,0,0,1,.41.22,1.85,1.85,0,0,1,.19.37h0a1.19,1.19,0,0,0,.16.3c.05.07.08.07.09.07s0,0,.1-.07a1.86,1.86,0,0,0,.14-.31h0a1.81,1.81,0,0,1,.18-.37.47.47,0,0,1,.4-.24v0a.47.47,0,0,1,.4.22,2.64,2.64,0,0,1,.2.37h0a2.59,2.59,0,0,0,.16.3c0,.07.08.07.1.07s0,0,.09-.07a1.86,1.86,0,0,0,.14-.31h0a1.76,1.76,0,0,1,.17-.37.48.48,0,0,1,.4-.24.5.5,0,0,1,.41.22,1.85,1.85,0,0,1,.19.37h0a2.59,2.59,0,0,0,.16.3c.06.07.09.07.1.07s0,0,.1-.07a1.86,1.86,0,0,0,.14-.31h0a1.81,1.81,0,0,1,.18-.37.47.47,0,0,1,.39-.24.47.47,0,0,1,.41.22,1.85,1.85,0,0,1,.19.37h0a1.63,1.63,0,0,0,.16.3c0,.07.08.07.1.07s0,0,.09-.07a1.86,1.86,0,0,0,.14-.31h0a1.76,1.76,0,0,1,.17-.37.48.48,0,0,1,.4-.24.5.5,0,0,1,.41.22,1.85,1.85,0,0,1,.19.37h0a2.59,2.59,0,0,0,.16.3c.06.07.09.07.1.07s.05,0,.1-.07a1.86,1.86,0,0,0,.14-.31h0a1.81,1.81,0,0,1,.18-.37.47.47,0,0,1,.39-.24.47.47,0,0,1,.41.22,2.64,2.64,0,0,1,.2.37h0a2.15,2.15,0,0,0,.16.31c0,.07.08.07.1.07s0,0,.09-.07a3.06,3.06,0,0,0,.15-.31h0a1.81,1.81,0,0,1,.18-.37.45.45,0,0,1,.39-.24v0a.5.5,0,0,1,.41.22,1.85,1.85,0,0,1,.19.37h0a1.11,1.11,0,0,0,.16.31c.05.07.08.07.1.07s0,0,.09-.07a1.86,1.86,0,0,0,.14-.31h0a1.76,1.76,0,0,1,.17-.37.48.48,0,0,1,.4-.24Z" transform="translate(-14.09 -14.21)"/><path class="cls-8" d="M107,52a.18.18,0,0,1,.26,0l2.26,1.69a.19.19,0,0,1,0,.26.18.18,0,0,1-.26,0L107,52.23A.19.19,0,0,1,107,52Z" transform="translate(-14.09 -14.21)"/><path class="cls-8" d="M109.2,51.65a.18.18,0,0,1,0,.26l-1.69,2.25a.18.18,0,0,1-.26,0,.19.19,0,0,1,0-.26l1.7-2.25A.18.18,0,0,1,109.2,51.65Z" transform="translate(-14.09 -14.21)"/><path class="cls-8" d="M39.05,69.8a.11.11,0,0,1,.14,0l2.25,1.69a.1.1,0,0,1,0,.13.09.09,0,0,1-.13,0l-2.26-1.69A.09.09,0,0,1,39.05,69.8Z" transform="translate(-14.09 -14.21)"/><path class="cls-8" d="M41.16,69.5a.09.09,0,0,1,0,.13l-1.7,2.25a.09.09,0,0,1-.13,0,.09.09,0,0,1,0-.13L41,69.52A.09.09,0,0,1,41.16,69.5Z" transform="translate(-14.09 -14.21)"/><g class="cls-40"><path class="cls-41" d="M44,151.13H149a2.5,2.5,0,0,1,2.5,2.5h0a2.49,2.49,0,0,1-2.5,2.5H44a2.49,2.49,0,0,1-2.5-2.5h0A2.5,2.5,0,0,1,44,151.13Z" transform="translate(-14.09 -14.21)"/><path class="cls-41" d="M68,168.13h57a2.5,2.5,0,0,1,2.5,2.5h0a2.49,2.49,0,0,1-2.5,2.5H68a2.49,2.49,0,0,1-2.5-2.5h0A2.5,2.5,0,0,1,68,168.13Z" transform="translate(-14.09 -14.21)"/><path class="cls-42" d="M46.54,185.13h100a1.5,1.5,0,0,1,1.5,1.5h0a1.5,1.5,0,0,1-1.5,1.5h-100a1.5,1.5,0,0,1-1.5-1.5h0A1.5,1.5,0,0,1,46.54,185.13Z" transform="translate(-14.09 -14.21)"/><g class="cls-43"><path class="cls-44" d="M82.16,200.13h0a11,11,0,0,1,11,11h0a11,11,0,0,1-11,10.95h0a11,11,0,0,1-11-10.95h0A11,11,0,0,1,82.16,200.13Z" transform="translate(-14.09 -14.21)"/><path class="cls-44" d="M110.91,200.13h0a11,11,0,0,1,11,11h0a11,11,0,0,1-11,10.95h0a11,11,0,0,1-11-10.95h0A11,11,0,0,1,110.91,200.13Z" transform="translate(-14.09 -14.21)"/></g></g><g class="cls-45"><g class="cls-46"><path class="cls-47" d="M153.75,49.81a11,11,0,1,0-10.95-11A11,11,0,0,0,153.75,49.81Z" transform="translate(-14.09 -14.21)"/></g></g><g class="cls-48"><circle class="cls-4" cx="188.95" cy="39.82" r="10.95"/><path class="cls-21" d="M203.31,58.83h1.2V49.18h-1.2L200.75,51v1.27l2.45-1.78h.11Z" transform="translate(-14.09 -14.21)"/><g class="cls-49"><g class="cls-50"><rect class="cls-4" x="338.2" y="28.87" width="32.86" height="13.69" rx="3.42"/><path class="cls-21" d="M358.61,53.45h1V47.18h-1L357,48.36v1l1.58-1.12h.07Zm5,.16c1.45,0,2.32-1.27,2.32-3.29h0c0-2-.87-3.28-2.32-3.28s-2.31,1.26-2.31,3.28h0C361.26,52.34,362.13,53.61,363.57,53.61Zm0-.81c-.84,0-1.33-.94-1.33-2.48h0c0-1.53.49-2.47,1.33-2.47s1.34.94,1.34,2.47h0C364.91,51.86,364.41,52.8,363.57,52.8Zm4.27-3.49a.64.64,0,1,0-.64-.64A.63.63,0,0,0,367.84,49.31Zm0,3.28a.63.63,0,1,0-.64-.63A.63.63,0,0,0,367.84,52.59Zm4.27,1c1.44,0,2.32-1.27,2.32-3.29h0c0-2-.88-3.28-2.32-3.28s-2.32,1.26-2.32,3.28h0C369.79,52.34,370.66,53.61,372.11,53.61Zm0-.81c-.84,0-1.34-.94-1.34-2.48h0c0-1.53.5-2.47,1.34-2.47s1.33.94,1.33,2.47h0C373.44,51.86,373,52.8,372.11,52.8Zm5.82.77c1.39,0,2.38-.75,2.38-1.81h0a1.66,1.66,0,0,0-1.4-1.6v0a1.47,1.47,0,0,0,1.17-1.39h0c0-1-.9-1.66-2.15-1.66s-2.15.7-2.15,1.66h0A1.47,1.47,0,0,0,377,50.13v0a1.65,1.65,0,0,0-1.39,1.6h0c0,1.06,1,1.81,2.37,1.81Zm0-3.77c-.7,0-1.18-.4-1.18-1h0c0-.57.48-1,1.18-1s1.18.4,1.18,1h0C379.11,49.4,378.63,49.8,377.93,49.8Zm0,3c-.8,0-1.37-.46-1.37-1.09h0c0-.64.56-1.11,1.37-1.11s1.37.47,1.37,1.11h0C379.3,52.33,378.73,52.79,377.93,52.79Z" transform="translate(-14.09 -14.21)"/></g><g class="cls-51"><path class="cls-4" d="M229.4,73.21h113a1.71,1.71,0,0,1,1.71,1.71h0a1.72,1.72,0,0,1-1.71,1.71h-113a1.72,1.72,0,0,1-1.71-1.71h0A1.71,1.71,0,0,1,229.4,73.21Z" transform="translate(-14.09 -14.21)"/><path class="cls-52" d="M229.4,73.89h13a1,1,0,0,1,1,1h0a1,1,0,0,1-1,1h-13a1,1,0,0,1-1-1h0A1,1,0,0,1,229.4,73.89Z" transform="translate(-14.09 -14.21)"/></g><path class="cls-42" d="M229.08,82.11h93.18a1.39,1.39,0,0,1,1.39,1.39h0a1.39,1.39,0,0,1-1.39,1.39H229.08a1.39,1.39,0,0,1-1.39-1.39h0A1.39,1.39,0,0,1,229.08,82.11Z" transform="translate(-14.09 -14.21)"/><path class="cls-42" d="M229.08,90.37h63.18a1.39,1.39,0,0,1,1.39,1.39h0a1.39,1.39,0,0,1-1.39,1.39H229.08a1.39,1.39,0,0,1-1.39-1.39h0A1.39,1.39,0,0,1,229.08,90.37Z" transform="translate(-14.09 -14.21)"/></g></g><g class="cls-53"><circle class="cls-4" cx="188.95" cy="119.89" r="10.95"/><path class="cls-21" d="M200.34,138.89h6.24V137.8H202v-.1l2.19-2.27c1.74-1.8,2.22-2.6,2.22-3.7v0a2.79,2.79,0,0,0-3-2.7,3,3,0,0,0-3.17,2.94h1.16v0a1.8,1.8,0,0,1,1.92-1.89,1.71,1.71,0,0,1,1.83,1.78h0c0,.85-.36,1.35-1.59,2.68l-3.27,3.53Z" transform="translate(-14.09 -14.21)"/><g class="cls-54"><g class="cls-55"><rect class="cls-4" x="342.31" y="108.93" width="28.75" height="13.69" rx="3.42"/><path class="cls-21" d="M363.44,133.63c1.39,0,2.37-.74,2.37-1.81h0a1.65,1.65,0,0,0-1.39-1.6v0a1.45,1.45,0,0,0,1.16-1.39h0c0-1-.89-1.66-2.14-1.66s-2.15.7-2.15,1.66h0a1.46,1.46,0,0,0,1.17,1.39v0a1.66,1.66,0,0,0-1.4,1.6h0c0,1.07,1,1.81,2.38,1.81Zm0-3.76a1,1,0,0,1-1.18-1h0c0-.58.48-1,1.18-1s1.18.4,1.18,1h0A1,1,0,0,1,363.44,129.87Zm0,3c-.8,0-1.37-.45-1.37-1.09h0c0-.64.56-1.11,1.37-1.11s1.37.47,1.37,1.11h0C364.81,132.4,364.24,132.85,363.44,132.85Zm4.34-3.48a.64.64,0,0,0,0-1.27.64.64,0,1,0,0,1.27Zm0,3.29a.63.63,0,0,0,.63-.64.62.62,0,0,0-.63-.63.63.63,0,0,0-.64.63A.64.64,0,0,0,367.78,132.66Zm4.27,1c1.44,0,2.31-1.27,2.31-3.29h0c0-2-.87-3.28-2.31-3.28s-2.32,1.26-2.32,3.28h0C369.73,132.4,370.6,133.67,372.05,133.67Zm0-.81c-.85,0-1.34-.94-1.34-2.48h0c0-1.53.49-2.46,1.34-2.46s1.33.93,1.33,2.46h0C373.38,131.92,372.88,132.86,372.05,132.86Zm3.56.66h4.23v-.83h-2.9v-.09l1.33-1.33c1.14-1.13,1.47-1.67,1.47-2.39h0a1.86,1.86,0,0,0-2-1.78,2,2,0,0,0-2.15,2h.92a1.1,1.1,0,0,1,1.18-1.15,1,1,0,0,1,1.1,1.06v0c0,.5-.24.83-1.07,1.69l-2.08,2.19Z" transform="translate(-14.09 -14.21)"/></g><g class="cls-56"><path class="cls-4" d="M229.4,142.32H349.21a1.7,1.7,0,0,1,1.71,1.71h0a1.71,1.71,0,0,1-1.71,1.71H229.4a1.72,1.72,0,0,1-1.71-1.71h0A1.71,1.71,0,0,1,229.4,142.32Z" transform="translate(-14.09 -14.21)"/><path class="cls-52" d="M229.4,143h6.17a1,1,0,0,1,1,1h0a1,1,0,0,1-1,1H229.4a1,1,0,0,1-1-1h0A1,1,0,0,1,229.4,143Z" transform="translate(-14.09 -14.21)"/></g><path class="cls-42" d="M229.19,151.22h72a1.5,1.5,0,0,1,1.5,1.5h0a1.5,1.5,0,0,1-1.5,1.5h-72a1.5,1.5,0,0,1-1.5-1.5h0A1.5,1.5,0,0,1,229.19,151.22Z" transform="translate(-14.09 -14.21)"/><path class="cls-42" d="M229.19,159.69h102a1.5,1.5,0,0,1,1.5,1.5h0a1.5,1.5,0,0,1-1.5,1.5h-102a1.5,1.5,0,0,1-1.5-1.5h0A1.5,1.5,0,0,1,229.19,159.69Z" transform="translate(-14.09 -14.21)"/></g></g><g class="cls-57"><circle class="cls-4" cx="188.95" cy="189.43" r="10.95"/><path class="cls-21" d="M203.46,208.59c1.93,0,3.35-1.19,3.35-2.8h0a2.34,2.34,0,0,0-2.36-2.37v0a2.31,2.31,0,0,0,2-2.26h0c0-1.46-1.21-2.49-3.05-2.49a3,3,0,0,0-3.2,2.62v.07h1.15v-.07a1.84,1.84,0,0,1,2-1.57c1.18,0,1.84.58,1.84,1.59h0a1.76,1.76,0,0,1-1.95,1.67h-1.16v1h1.21c1.35,0,2.2.66,2.2,1.85h0c0,1-.86,1.73-2.12,1.73s-2.16-.66-2.26-1.6v-.07H200V206c.13,1.52,1.42,2.63,3.41,2.63Z" transform="translate(-14.09 -14.21)"/><g class="cls-58"><g class="cls-59"><rect class="cls-4" x="341.62" y="178.48" width="29.44" height="13.69" rx="3.42"/><path class="cls-21" d="M362,203.06h1v-6.27h-1L360.38,198v.95L362,197.8H362Zm4.28,0h1v-6.27h-1L364.67,198v.95l1.58-1.12h.07Zm3.48-4.14a.64.64,0,1,0-.64-.64A.63.63,0,0,0,369.8,198.92Zm0,3.28a.64.64,0,0,0,0-1.27.64.64,0,1,0,0,1.27Zm3.61.86h1v-6.27h-1L371.76,198v.95l1.58-1.12h.07Zm2.75,0h4.23v-.83h-2.9v-.08l1.33-1.33c1.14-1.13,1.47-1.68,1.47-2.39h0a1.85,1.85,0,0,0-2-1.78,2,2,0,0,0-2.15,2H377a1.1,1.1,0,0,1,1.17-1.15,1,1,0,0,1,1.11,1.07h0c0,.51-.24.83-1.07,1.7l-2.08,2.18Z" transform="translate(-14.09 -14.21)"/></g><path class="cls-4" d="M229.4,211.86H349.21a1.71,1.71,0,0,1,1.71,1.71h0a1.71,1.71,0,0,1-1.71,1.72H229.4a1.72,1.72,0,0,1-1.71-1.72h0A1.72,1.72,0,0,1,229.4,211.86Z" transform="translate(-14.09 -14.21)"/><path class="cls-52" d="M229.4,212.55h47.24a1,1,0,0,1,1,1h0a1,1,0,0,1-1,1H229.4a1,1,0,0,1-1-1h0A1,1,0,0,1,229.4,212.55Z" transform="translate(-14.09 -14.21)"/><path class="cls-42" d="M229.08,220.76h93.18a1.39,1.39,0,0,1,1.39,1.39h0a1.39,1.39,0,0,1-1.39,1.39H229.08a1.39,1.39,0,0,1-1.39-1.39h0A1.4,1.4,0,0,1,229.08,220.76Z" transform="translate(-14.09 -14.21)"/><path class="cls-42" d="M229.08,229h43.18a1.39,1.39,0,0,1,1.39,1.39h0a1.39,1.39,0,0,1-1.39,1.39H229.08a1.39,1.39,0,0,1-1.39-1.39h0A1.39,1.39,0,0,1,229.08,229Z" transform="translate(-14.09 -14.21)"/></g></g></g></g><path class="cls-60" d="M150.64,39.79h-1.75a.65.65,0,0,0-.63.63v3.26a.63.63,0,0,0,.63.62h1.3a.65.65,0,0,0,.44-.18.62.62,0,0,0,.18-.44V40a.17.17,0,0,0-.17-.17Zm-.93,3.42a.18.18,0,0,1-.17.17.17.17,0,0,1-.17-.17v-.33a.17.17,0,0,1,.17-.17.18.18,0,0,1,.17.17Z" transform="translate(-14.09 -14.21)"/><path class="cls-60" d="M156.93,32.64h1.83a.18.18,0,0,1,.17.17v6.34a.16.16,0,0,1-.17.17h-1.83a.18.18,0,0,1-.17-.17V32.81A.18.18,0,0,1,156.93,32.64Z" transform="translate(-14.09 -14.21)"/><path class="cls-60" d="M153,33l3.58-1.45-.08.24a.17.17,0,0,0,.1.21.17.17,0,0,0,.22-.1l.21-.61h0a.15.15,0,0,0,0-.13.16.16,0,0,0-.1-.08l-.6-.22a.18.18,0,0,0-.22.11.16.16,0,0,0,.1.21l.2.08-3.53,1.42a.19.19,0,0,0-.1.1.28.28,0,0,0,0,.13A.18.18,0,0,0,153,33Z" transform="translate(-14.09 -14.21)"/><path class="cls-60" d="M153,34.78a.17.17,0,0,0-.17-.17H151a.17.17,0,0,0-.17.17v4.37a.17.17,0,0,0,.12.16l2.05-.74Z" transform="translate(-14.09 -14.21)"/><path class="cls-60" d="M154,33.89a.18.18,0,0,0-.17.17v4.23l1-.36a1.22,1.22,0,0,1,1.15.17v-4a.17.17,0,0,0-.17-.17Z" transform="translate(-14.09 -14.21)"/><path class="cls-60" d="M159.86,40.27a.83.83,0,0,0-.43-.47.81.81,0,0,0-.63,0l-3.69,1.17h0a.25.25,0,0,1-.23-.44l.91-.7a.91.91,0,0,0,.34-.73.88.88,0,0,0-1.18-.81l-3.8,1.36h0V43l3,.51h0l.34,0a2,2,0,0,0,.86-.19l4.06-2a.81.81,0,0,0,.46-.45.84.84,0,0,0,0-.64Z" transform="translate(-14.09 -14.21)"/><text class="cls-61" transform="translate(213.52 35.9)">Performa Invoice <tspan x="0" y="12">Updated</tspan></text><text class="cls-61" transform="translate(213.52 119.27)">Receipt Generated</text><text class="cls-61" transform="translate(214.21 188.76)">Invoice Revised</text></svg>