<svg id="Layer_1" data-name="Layer 1" xmlns="http://www.w3.org/2000/svg" xmlns:xlink="http://www.w3.org/1999/xlink" viewBox="0 0 163.32 93.2"><defs><style>.cls-1,.cls-4{fill:none;}.cls-2{clip-path:url(#clip-path);}.cls-3{fill-rule:evenodd;fill:url(#linear-gradient);}.cls-4{stroke:#000;stroke-opacity:0.3;stroke-width:0.27px;}.cls-5{clip-path:url(#clip-path-2);}.cls-6{clip-path:url(#clip-path-3);}.cls-10,.cls-12,.cls-7,.cls-9{fill:#fff;}.cls-7{fill-opacity:0.2;}.cls-8{clip-path:url(#clip-path-4);}.cls-9{fill-opacity:0.4;}.cls-10{font-size:10px;font-family:Poppins-Bold, Poppins;font-weight:700;}.cls-11{opacity:0.7;}.cls-12{font-size:7px;font-family:Poppins-SemiBold, Poppins;font-weight:600;}.cls-13{fill:#3913b8;}</style><clipPath id="clip-path" transform="translate(-590.84 -316.8)"><polygon class="cls-1" points="730.7 316.18 754.69 317.75 753.3 341.73 729.31 340.16 730.7 316.18"/></clipPath><linearGradient id="linear-gradient" x1="203.69" y1="2085.37" x2="202.12" y2="2061.4" gradientTransform="matrix(1, 0, 0, -1, 539.04, 2402.34)" gradientUnits="userSpaceOnUse"><stop offset="0" stop-color="#2fb8ff"/><stop offset="1" stop-color="#9eecd9"/></linearGradient><clipPath id="clip-path-2" transform="translate(-590.84 -316.8)"><polygon class="cls-1" points="591.76 318 651 318 650.24 411 591 411 591.76 318"/></clipPath><clipPath id="clip-path-3" transform="translate(-590.84 -316.8)"><polygon class="cls-1" points="591.32 371 650 371 649.68 410 591 410 591.32 371"/></clipPath><clipPath id="clip-path-4" transform="translate(-590.84 -316.8)"><polygon class="cls-1" points="591.16 391 636 391 635.84 411 591 411 591.16 391"/></clipPath></defs><g id="purchase"><g class="cls-2"><path class="cls-3" d="M741.25,341a11.91,11.91,0,0,0,12.68-11.21A12.11,12.11,0,0,0,742.63,317,11.89,11.89,0,0,0,730,328.17,12.13,12.13,0,0,0,741.25,341Z" transform="translate(-590.84 -316.8)"/><path class="cls-4" d="M741.31,341A11.92,11.92,0,0,0,754,329.74,12.12,12.12,0,0,0,742.7,317,11.9,11.9,0,0,0,730,328.17,12.13,12.13,0,0,0,741.31,341Z" transform="translate(-590.84 -316.8)"/></g><g class="cls-5"><g class="cls-6"><path class="cls-7" d="M592.23,371H649a1,1,0,0,1,1.08,1h0a1.07,1.07,0,0,1-1.1,1h-56.8a1,1,0,0,1-1.08-1h0A1.07,1.07,0,0,1,592.23,371Z" transform="translate(-590.84 -316.8)"/><path class="cls-7" d="M593.42,378h27a1,1,0,0,1,1,1h0a1,1,0,0,1-1,1h-27a1,1,0,0,1-1-1h0A1,1,0,0,1,593.42,378Z" transform="translate(-590.84 -316.8)"/><path class="cls-7" d="M592.13,384h40.41a1,1,0,0,1,1.08,1h0a1.07,1.07,0,0,1-1.1,1H592.11a1,1,0,0,1-1.09-1h0A1.07,1.07,0,0,1,592.13,384Z" transform="translate(-590.84 -316.8)"/><g class="cls-8"><path class="cls-7" d="M593.31,391h27a1,1,0,0,1,1,1h0a1,1,0,0,1-1,1h-27a1,1,0,0,1-1-1h0A1,1,0,0,1,593.31,391Z" transform="translate(-590.84 -316.8)"/><path class="cls-9" d="M593,406h41a2.08,2.08,0,0,1,2.17,2h0a2.12,2.12,0,0,1-2.2,2H593a2.08,2.08,0,0,1-2.16-2h0A2.12,2.12,0,0,1,593,406Z" transform="translate(-590.84 -316.8)"/></g></g></g><text class="cls-10" transform="translate(1.02 10.77)">Purchase</text><g class="cls-11"><text class="cls-12" transform="translate(1.02 18.77)">orders</text></g><path class="cls-13" d="M741.75,334.25a.76.76,0,1,1-.76-.76A.76.76,0,0,1,741.75,334.25Z" transform="translate(-590.84 -316.8)"/><path class="cls-13" d="M745.67,334.25a.76.76,0,1,1-.75-.76A.76.76,0,0,1,745.67,334.25Z" transform="translate(-590.84 -316.8)"/><path class="cls-13" d="M746.37,327H739.8l-.55-2.77a.31.31,0,0,0-.3-.24h-1.43a.31.31,0,0,0-.31.24.3.3,0,0,0,.29.35h1.2l1.14,5.7a.62.62,0,0,0,.41.46s0,0,0,0a1.16,1.16,0,0,0-1.06,1.09,1.14,1.14,0,0,0,1.14,1.16h5.34a.3.3,0,0,0,.31-.29.3.3,0,0,0-.3-.3h-5.33a.56.56,0,0,1-.55-.42.55.55,0,0,1,.53-.66h5a.6.6,0,0,0,.6-.6l.7-3.4a.31.31,0,0,0-.3-.36Zm-1.86,2-1.5,1.52a.08.08,0,0,1-.11,0L741.39,329a.08.08,0,0,1,.06-.13h.63V328h1.75v.94h.63a.07.07,0,0,1,0,.13Z" transform="translate(-590.84 -316.8)"/></g></svg>