<?xml version="1.0" encoding="utf-8"?>
<!-- Generator: Adobe Illustrator 25.0.0, SVG Export Plug-In . SVG Version: 6.00 Build 0)  -->
<svg version="1.1" id="Layer_1" xmlns="http://www.w3.org/2000/svg" xmlns:xlink="http://www.w3.org/1999/xlink" x="0px" y="0px"
	 viewBox="0 0 701 428.6" style="enable-background:new 0 0 701 428.6;" xml:space="preserve">
<style type="text/css">
	.st0{fill:#1A164A;}
	.st1{fill-opacity:0.1;}
	.st2{clip-path:url(#SVGID_2_);}
	.st3{fill-opacity:0.2;}
	.st4{fill:#FFFFFF;}
	.st5{fill:#FFFFFF;fill-opacity:0.3;}
	.st6{fill:#FFFFFF;fill-opacity:0.1;}
	.st7{clip-path:url(#SVGID_4_);}
	
		.st8{fill:none;stroke:#FFFFFF;stroke-width:0.8215;stroke-linecap:round;stroke-linejoin:round;stroke-miterlimit:10;stroke-opacity:0.6;}
	.st9{fill:none;stroke:#FFFFFF;stroke-width:0.8215;stroke-miterlimit:10;stroke-opacity:0.6;}
	.st10{clip-path:url(#SVGID_6_);}
	.st11{fill-rule:evenodd;clip-rule:evenodd;fill:#FFFFFF;fill-opacity:0.6;}
	.st12{clip-path:url(#SVGID_8_);}
	.st13{clip-path:url(#SVGID_10_);}
	.st14{clip-path:url(#SVGID_12_);}
	.st15{fill:none;stroke:#FFFFFF;stroke-width:0.6846;stroke-opacity:0.2;}
	.st16{clip-path:url(#SVGID_14_);}
	.st17{clip-path:url(#SVGID_18_);}
	.st18{clip-path:url(#SVGID_20_);}
	.st19{clip-path:url(#SVGID_22_);}
	.st20{clip-path:url(#SVGID_24_);}
	.st21{clip-path:url(#SVGID_26_);}
	.st22{clip-path:url(#SVGID_30_);}
	.st23{clip-path:url(#SVGID_32_);}
	.st24{fill:#EB6A5D;}
	.st25{fill:#F3BE4F;}
	.st26{fill:#64C354;}
	.st27{fill:#1A164A;fill-opacity:0.63;}
	.st28{fill:#1A164A;filter:url(#Adobe_OpacityMaskFilter);}
	.st29{mask:url(#M_2_);}
	.st30{fill-rule:evenodd;clip-rule:evenodd;fill:url(#SVGID_33_);}
	.st31{fill-rule:evenodd;clip-rule:evenodd;fill:#14BEFD;}
	.st32{fill-rule:evenodd;clip-rule:evenodd;fill:url(#SVGID_34_);}
	.st33{opacity:0.5;}
	.st34{fill:none;stroke:url(#SVGID_35_);stroke-width:6.7812;stroke-linecap:round;stroke-dasharray:67.81,33.91;}
	.st35{opacity:0.2;}
	.st36{fill:none;stroke:url(#SVGID_36_);stroke-width:3.3906;stroke-linecap:round;stroke-dasharray:33.91,16.95;}
	.st37{fill:none;stroke:url(#SVGID_37_);stroke-width:10.1718;stroke-linecap:round;stroke-dasharray:67.81,33.91;}
	.st38{fill-rule:evenodd;clip-rule:evenodd;fill:#FFFFFF;fill-opacity:0.1;stroke:#FFFFFF;stroke-width:0.8215;stroke-opacity:0.3;}
	.st39{fill:#00CFFD;stroke:#000000;stroke-width:0.8215;stroke-linecap:round;stroke-linejoin:round;stroke-miterlimit:10;}
	.st40{fill:#FFFFFF;stroke:#000000;stroke-width:0.8215;stroke-linecap:round;stroke-miterlimit:10;}
	.st41{fill:none;stroke:#000000;stroke-width:0.8215;stroke-linecap:round;stroke-linejoin:round;stroke-miterlimit:10;}
	.st42{stroke:#000000;stroke-width:0.8215;stroke-linecap:round;stroke-linejoin:round;stroke-miterlimit:10;}
	.st43{fill:none;stroke:#00CFFD;stroke-width:0.8215;stroke-miterlimit:10;}
	.st44{fill:#FFFFFF;fill-opacity:0.6;}
	.st45{clip-path:url(#SVGID_41_);}
	.st46{fill:#5B0000;fill-opacity:0.22;}
	.st47{clip-path:url(#SVGID_43_);}
	.st48{clip-path:url(#SVGID_45_);}
	.st49{fill:#00CFFD;stroke:#000000;stroke-width:0.2471;stroke-opacity:5.000000e-02;}
	.st50{fill:#FFFFFF;fill-opacity:0.2;}
	.st51{fill:#FFFFFF;fill-opacity:5.000000e-02;}
	.st52{opacity:0.8;fill:#FFFFFF;}
	.st53{font-family:'Poppins-SemiBold';}
	.st54{font-size:8px;}
</style>
<path class="st0" d="M137,0.7h557.2c3.8,0,6.8,3.1,6.8,6.8v414.3c0,3.8-3.1,6.8-6.8,6.8H137L137,0.7z"/>
<path class="st1" d="M0,373.7h137v55H6.8c-3.8,0-6.8-3.1-6.8-6.8L0,373.7z"/>
<g>
	<defs>
		<rect id="SVGID_1_" x="0" y="40.7" width="137" height="310"/>
	</defs>
	<clipPath id="SVGID_2_">
		<use xlink:href="#SVGID_1_"  style="overflow:visible;"/>
	</clipPath>
	<g class="st2">
		<path class="st3" d="M10.4,40.7h116.2c1.9,0,3.4,1.5,3.4,3.4v12.2c0,1.9-1.5,3.4-3.4,3.4H10.4c-1.9,0-3.4-1.5-3.4-3.4V44.1
			C7,42.2,8.5,40.7,10.4,40.7z"/>
		<g>
			<path class="st4" d="M16.6,53.5c0.7,0,1.3-0.2,1.9-0.6l1.9,1.9c0.1,0.1,0.3,0.2,0.5,0.2c0.4,0,0.6-0.3,0.6-0.6
				c0-0.2-0.1-0.3-0.2-0.4L19.4,52c0.4-0.6,0.6-1.2,0.6-2c0-1.9-1.5-3.4-3.4-3.4c-1.9,0-3.4,1.5-3.4,3.4S14.7,53.5,16.6,53.5z
				 M16.6,52.6c-1.4,0-2.5-1.1-2.5-2.5c0-1.4,1.1-2.5,2.5-2.5s2.5,1.1,2.5,2.5C19.1,51.4,18,52.6,16.6,52.6z"/>
			<path class="st5" d="M9.1,68.7h27c0.6,0,1,0.4,1,1l0,0c0,0.6-0.4,1-1,1h-27c-0.6,0-1-0.4-1-1l0,0C8.1,69.1,8.5,68.7,9.1,68.7z"/>
			<path class="st6" d="M10.4,75.7h116.2c1.9,0,3.4,1.5,3.4,3.4v12.2c0,1.9-1.5,3.4-3.4,3.4H10.4c-1.9,0-3.4-1.5-3.4-3.4V79.1
				C7,77.2,8.5,75.7,10.4,75.7z"/>
		</g>
		<g>
			<defs>
				<rect id="SVGID_3_" x="14" y="77.7" width="55" height="16"/>
			</defs>
			<clipPath id="SVGID_4_">
				<use xlink:href="#SVGID_3_"  style="overflow:visible;"/>
			</clipPath>
			<g class="st7">
				<g>
					<path class="st8" d="M21.5,91.2h-6.3c-0.4,0-0.7-0.3-0.7-0.7V79.9c0-0.4,0.3-0.7,0.7-0.7h6.3V91.2z"/>
					<path class="st8" d="M27.8,91.2h-6.3v-12h6.3c0.4,0,0.7,0.3,0.7,0.7v10.6C28.5,90.9,28.2,91.2,27.8,91.2z"/>
					<path class="st9" d="M16,85.2h4"/>
					<path class="st9" d="M16,83.2h4"/>
					<path class="st9" d="M16,88.2h4"/>
					<path class="st9" d="M23,85.2h4"/>
					<path class="st9" d="M23,83.2h4"/>
				</g>
				<path class="st5" d="M39.2,84.7h27c0.6,0,1,0.4,1,1l0,0c0,0.6-0.4,1-1,1h-27c-0.6,0-1-0.4-1-1l0,0
					C38.2,85.1,38.6,84.7,39.2,84.7z"/>
			</g>
		</g>
		<g>
			<defs>
				<rect id="SVGID_5_" x="14" y="101.7" width="69" height="16"/>
			</defs>
			<clipPath id="SVGID_6_">
				<use xlink:href="#SVGID_5_"  style="overflow:visible;"/>
			</clipPath>
			<g class="st10">
				<path class="st8" d="M21.1,103.3c-1.6,0-3.6,1.2-3.6,4.2l-2.5,3.3c-0.1,0.1,0,0.2,0.2,0.2l1.7,0.8c0.1,0.6,0.4,2.5,0.6,3.4
					c0.1,0.3,2.9,0.1,2.9,0.1l0.8,1.7"/>
				<g>
					<path class="st11" d="M24.4,103.5c0.1-0.2,0-0.4-0.2-0.5c-0.2-0.1-0.4,0-0.5,0.2l-0.7,2c-0.1,0.2,0,0.4,0.2,0.5
						c0.2,0.1,0.4,0,0.5-0.2L24.4,103.5z M28.6,105.5c0.2-0.1,0.2-0.4,0.1-0.6c-0.1-0.2-0.4-0.2-0.6-0.1l-2.3,1.8
						c-0.2,0.1-0.2,0.4-0.1,0.6c0.1,0.2,0.4,0.2,0.6,0.1L28.6,105.5z M26,110.1c0-0.2,0.2-0.4,0.4-0.4l2.2,0.2
						c0.2,0,0.4,0.2,0.4,0.4s-0.2,0.4-0.4,0.4l-2.2-0.2C26.1,110.5,25.9,110.3,26,110.1z M21.6,113.7c-0.2,0.1-0.4,0.3-0.4,0.5
						c0,0.2,0.2,0.4,0.4,0.5h1.8c0.2-0.1,0.4-0.2,0.4-0.5c0-0.2-0.2-0.4-0.4-0.5H21.6z M21.2,112.5c0-0.2,0.2-0.4,0.4-0.8h0.1
						c-0.9-0.4-2.1-2.1-1.1-3.4c1-1.3,2.9-1.3,3.8,0c1,1.3-0.2,3-1.1,3.4h0.1c0.2,0.4,0.4,0.5,0.4,0.8s-0.2,0.4-0.4,0.2h-1.8
						C21.3,112.9,21.2,112.7,21.2,112.5z M23,111.7v-1.4c0.1-0.1,0.2-0.4,0.2-0.6c0-0.4-0.3-0.8-0.8-0.8s-0.8,0.3-0.8,0.8
						c0,0.3,0.1,0.5,0.3,0.7v1.4H23z M22.4,109.7C22.4,109.7,22.4,109.7,22.4,109.7L22.4,109.7C22.4,109.7,22.4,109.7,22.4,109.7z"
						/>
					<path class="st5" d="M38.2,108.7h43.1c0.8,0,1.4,0.7,1.4,1.5v0c0,0.8-0.6,1.5-1.4,1.5H38.2c-0.8,0-1.4-0.7-1.4-1.5v0
						C36.8,109.4,37.4,108.7,38.2,108.7z"/>
				</g>
			</g>
		</g>
		<g>
			<defs>
				<rect id="SVGID_7_" x="14" y="126.7" width="69" height="16"/>
			</defs>
			<clipPath id="SVGID_8_">
				<use xlink:href="#SVGID_7_"  style="overflow:visible;"/>
			</clipPath>
			<g class="st12">
				<path class="st8" d="M21.8,128l-6.8,6.8l6.8,6.8l6.8-6.8L21.8,128z"/>
				<g>
					<path class="st11" d="M20.1,135.2c-0.2-0.2-0.4-0.2-0.6,0c-0.2,0.2-0.2,0.4,0,0.6l2.1,2.1c0.1,0.1,0.2,0.1,0.3,0.1
						c0.1,0,0.2,0,0.3-0.1l2.1-2.1c0.2-0.2,0.2-0.4,0-0.6c-0.2-0.2-0.4-0.2-0.6,0l-1.6,1.4v-4.9c0.3-0.2,0.1-0.4-0.2-0.4
						s-0.4,0.2-0.8,0.4v4.9L20.1,135.2z"/>
					<path class="st5" d="M38.2,133.7h43.1c0.8,0,1.4,0.7,1.4,1.5l0,0c0,0.8-0.6,1.5-1.4,1.5H38.2c-0.8,0-1.4-0.7-1.4-1.5l0,0
						C36.8,134.4,37.4,133.7,38.2,133.7z"/>
				</g>
			</g>
		</g>
		<g>
			<defs>
				<rect id="SVGID_9_" x="14" y="175.7" width="55" height="16"/>
			</defs>
			<clipPath id="SVGID_10_">
				<use xlink:href="#SVGID_9_"  style="overflow:visible;"/>
			</clipPath>
			<g class="st13">
				<g>
					<defs>
						<rect id="SVGID_11_" x="14" y="175.7" width="16" height="16"/>
					</defs>
					<clipPath id="SVGID_12_">
						<use xlink:href="#SVGID_11_"  style="overflow:visible;"/>
					</clipPath>
					<g class="st14">
						<path class="st15" d="M29.6,184.1c0,4.3-3.5,7.9-7.9,7.9c-4.3,0-7.9-3.5-7.9-7.9s3.5-7.9,7.9-7.9
							C26.1,176.3,29.6,179.8,29.6,184.1z"/>
					</g>
				</g>
				<path class="st5" d="M39.2,182.7h27c0.6,0,1,0.4,1,1v0c0,0.6-0.4,1-1,1h-27c-0.6,0-1-0.4-1-1v0
					C38.2,183.1,38.6,182.7,39.2,182.7z"/>
			</g>
		</g>
		<g>
			<defs>
				<rect id="SVGID_13_" x="13" y="199.7" width="61" height="16"/>
			</defs>
			<clipPath id="SVGID_14_">
				<use xlink:href="#SVGID_13_"  style="overflow:visible;"/>
			</clipPath>
			<g class="st16">
				<path class="st15" d="M29.6,207.4c0,4.3-3.5,7.9-7.9,7.9c-4.3,0-7.9-3.5-7.9-7.9s3.5-7.9,7.9-7.9
					C26.1,199.5,29.6,203.1,29.6,207.4z"/>
				<g>
					<g>
						<defs>
							<rect id="SVGID_15_" x="17" y="202.7" width="9" height="9"/>
						</defs>
						<clipPath id="SVGID_16_">
							<use xlink:href="#SVGID_15_"  style="overflow:visible;"/>
						</clipPath>
					</g>
					<path class="st5" d="M36.9,205.7h37.5c0.8,0,1.5,0.7,1.5,1.5l0,0c0,0.8-0.7,1.5-1.5,1.5H36.9c-0.8,0-1.5-0.7-1.5-1.5l0,0
						C35.4,206.4,36,205.7,36.9,205.7z"/>
				</g>
			</g>
		</g>
		<g>
			<defs>
				<rect id="SVGID_17_" x="14" y="222.7" width="65" height="16"/>
			</defs>
			<clipPath id="SVGID_18_">
				<use xlink:href="#SVGID_17_"  style="overflow:visible;"/>
			</clipPath>
			<g class="st17">
				<g>
					<defs>
						<rect id="SVGID_19_" x="14" y="222.7" width="16" height="16"/>
					</defs>
					<clipPath id="SVGID_20_">
						<use xlink:href="#SVGID_19_"  style="overflow:visible;"/>
					</clipPath>
					<g class="st18">
						<path class="st15" d="M29.6,230.7c0,4.3-3.5,7.9-7.9,7.9c-4.3,0-7.9-3.5-7.9-7.9s3.5-7.9,7.9-7.9
							C26.1,222.8,29.6,226.3,29.6,230.7z"/>
					</g>
				</g>
				<path class="st5" d="M38.2,228.7h38.9c0.8,0,1.4,0.7,1.4,1.5l0,0c0,0.8-0.6,1.5-1.4,1.5H38.2c-0.8,0-1.4-0.7-1.4-1.5l0,0
					C36.8,229.4,37.4,228.7,38.2,228.7z"/>
			</g>
		</g>
		<g>
			<defs>
				<rect id="SVGID_21_" x="14" y="275.7" width="47" height="16"/>
			</defs>
			<clipPath id="SVGID_22_">
				<use xlink:href="#SVGID_21_"  style="overflow:visible;"/>
			</clipPath>
			<g class="st19">
				<g>
					<defs>
						<rect id="SVGID_23_" x="14" y="275.7" width="16" height="16"/>
					</defs>
					<clipPath id="SVGID_24_">
						<use xlink:href="#SVGID_23_"  style="overflow:visible;"/>
					</clipPath>
					<g class="st20">
						<path class="st15" d="M29.6,284.1c0,4.3-3.5,7.9-7.9,7.9c-4.3,0-7.9-3.5-7.9-7.9s3.5-7.9,7.9-7.9
							C26.1,276.2,29.6,279.7,29.6,284.1z"/>
					</g>
				</g>
				<path class="st5" d="M37.4,282.7h22.5c0.8,0,1.5,0.7,1.5,1.5l0,0c0,0.8-0.7,1.5-1.5,1.5H37.4c-0.8,0-1.5-0.7-1.5-1.5l0,0
					C35.9,283.4,36.6,282.7,37.4,282.7z"/>
			</g>
		</g>
		<g>
			<defs>
				<rect id="SVGID_25_" x="14" y="299.7" width="55" height="16"/>
			</defs>
			<clipPath id="SVGID_26_">
				<use xlink:href="#SVGID_25_"  style="overflow:visible;"/>
			</clipPath>
			<g class="st21">
				<path class="st15" d="M29.6,307.4c0,4.3-3.5,7.9-7.9,7.9c-4.3,0-7.9-3.5-7.9-7.9s3.5-7.9,7.9-7.9
					C26.1,299.5,29.6,303,29.6,307.4z"/>
				<g>
					<g>
						<defs>
							<rect id="SVGID_27_" x="17" y="302.7" width="9" height="9"/>
						</defs>
						<clipPath id="SVGID_28_">
							<use xlink:href="#SVGID_27_"  style="overflow:visible;"/>
						</clipPath>
					</g>
					<path class="st5" d="M39.2,306.7h27c0.6,0,1,0.4,1,1l0,0c0,0.6-0.4,1-1,1h-27c-0.6,0-1-0.4-1-1l0,0
						C38.2,307.1,38.6,306.7,39.2,306.7z"/>
				</g>
			</g>
		</g>
		<g>
			<defs>
				<rect id="SVGID_29_" x="13" y="322.7" width="75" height="16"/>
			</defs>
			<clipPath id="SVGID_30_">
				<use xlink:href="#SVGID_29_"  style="overflow:visible;"/>
			</clipPath>
			<g class="st22">
				<path class="st15" d="M29.6,330.6c0,4.3-3.5,7.9-7.9,7.9c-4.3,0-7.9-3.5-7.9-7.9s3.5-7.9,7.9-7.9
					C26.1,322.8,29.6,326.3,29.6,330.6z"/>
				<g>
					<path class="st5" d="M38.2,328.7h48.7c0.8,0,1.4,0.7,1.4,1.5l0,0c0,0.8-0.6,1.5-1.4,1.5H38.2c-0.8,0-1.4-0.7-1.4-1.5l0,0
						C36.8,329.4,37.4,328.7,38.2,328.7z"/>
				</g>
			</g>
		</g>
	</g>
</g>
<g>
	<defs>
		<rect id="SVGID_31_" x="14" y="14.7" width="37" height="8"/>
	</defs>
	<clipPath id="SVGID_32_">
		<use xlink:href="#SVGID_31_"  style="overflow:visible;"/>
	</clipPath>
	<g class="st23">
		<path class="st24" d="M17.7,14.6L17.7,14.6c2.3,0,4.1,1.8,4.1,4.1v0c0,2.3-1.8,4.1-4.1,4.1h0c-2.3,0-4.1-1.8-4.1-4.1v0
			C13.6,16.5,15.4,14.6,17.7,14.6z"/>
		<path class="st25" d="M32,14.6L32,14.6c2.3,0,4.1,1.8,4.1,4.1v0c0,2.3-1.8,4.1-4.1,4.1h0c-2.3,0-4.1-1.8-4.1-4.1v0
			C27.9,16.5,29.8,14.6,32,14.6z"/>
		<path class="st26" d="M46.4,14.6L46.4,14.6c2.3,0,4.1,1.8,4.1,4.1v0c0,2.3-1.8,4.1-4.1,4.1h0c-2.3,0-4.1-1.8-4.1-4.1v0
			C42.3,16.5,44.1,14.6,46.4,14.6z"/>
	</g>
</g>
<path class="st27" d="M137,0.7h557.2c3.8,0,6.8,3.1,6.8,6.8v414.3c0,3.8-3.1,6.8-6.8,6.8H137L137,0.7z"/>
<defs>
	<filter id="Adobe_OpacityMaskFilter" filterUnits="userSpaceOnUse" x="234.9" y="-199.7" width="501.6" height="436.1">
		<feColorMatrix  type="matrix" values="1 0 0 0 0  0 1 0 0 0  0 0 1 0 0  0 0 0 1 0"/>
	</filter>
</defs>
<mask maskUnits="userSpaceOnUse" x="234.9" y="-199.7" width="501.6" height="436.1" id="M_2_">
	<path class="st28" d="M136.8,0.9h557.3c3.8,0,6.8,3.1,6.8,6.8V422c0,3.8-3.1,6.8-6.8,6.8H136.8L136.8,0.9z"/>
</mask>
<g class="st29">
	
		<linearGradient id="SVGID_33_" gradientUnits="userSpaceOnUse" x1="-270.2318" y1="1602.2457" x2="97.3415" y2="1369.0006" gradientTransform="matrix(1 0 0 -1 539.04 1550.6257)">
		<stop  offset="0" style="stop-color:#E1467C"/>
		<stop  offset="1" style="stop-color:#FF9CE3"/>
	</linearGradient>
	<path class="st30" d="M650.4,157.5C676.6,93.3,720-17,607.8-81.2c-112.2-64.2-164.3-23.1-213.3-4.2c-49,18.9-170.3,31.3-152,107.8
		c18.2,76.5,22.3,210.3,109.4,210.3c87.1,0,75.4-36.3,131.4-42.7C539.2,183.6,624.2,221.6,650.4,157.5L650.4,157.5z"/>
	<path class="st31" d="M650.4,157.5C676.6,93.3,720-17,607.8-81.2c-112.2-64.2-164.3-23.1-213.3-4.2c-49,18.9-170.3,31.3-152,107.8
		c18.2,76.5,22.3,210.3,109.4,210.3c87.1,0,75.4-36.3,131.4-42.7C539.2,183.6,624.2,221.6,650.4,157.5L650.4,157.5z"/>
	<g>
		
			<linearGradient id="SVGID_34_" gradientUnits="userSpaceOnUse" x1="154.5724" y1="1399.8844" x2="-264.0265" y2="1631.9176" gradientTransform="matrix(1 0 0 -1 539.04 1550.6257)">
			<stop  offset="0" style="stop-color:#E0695B"/>
			<stop  offset="1" style="stop-color:#3913B8"/>
		</linearGradient>
		<path class="st32" d="M261.2-53.9c-24.6,72.1-65,196,62.3,259.1c127.3,63.1,181.9,14.6,234.4-9.3c52.6-24,184.8-45.4,159.8-128.2
			c-25-82.8-38.2-229.3-133.8-223.7c-95.6,5.7-80.4,44.7-141.4,55.4C381.5-89.8,285.8-126,261.2-53.9L261.2-53.9z"/>
	</g>
	<g class="st33">
		
			<linearGradient id="SVGID_35_" gradientUnits="userSpaceOnUse" x1="154.9333" y1="1415.8203" x2="-254.9498" y2="1643.0225" gradientTransform="matrix(1 0 0 -1 539.04 1550.6257)">
			<stop  offset="0" style="stop-color:#FF5A3D"/>
			<stop  offset="1" style="stop-color:#2FB8FF"/>
		</linearGradient>
		<path class="st34" d="M270.6-65.6c-24.1,70.6-63.7,191.9,61,253.7s178.1,14.3,229.5-9.1c51.5-23.5,181-44.4,156.5-125.5
			c-24.5-81.1-37.4-224.6-131-219c-93.6,5.6-78.8,43.8-138.5,54.2C388.4-100.8,294.7-136.1,270.6-65.6L270.6-65.6z"/>
	</g>
	<g class="st35">
		
			<linearGradient id="SVGID_36_" gradientUnits="userSpaceOnUse" x1="142.6371" y1="1422.593" x2="-227.2389" y2="1627.6184" gradientTransform="matrix(1 0 0 -1 539.04 1550.6257)">
			<stop  offset="0" style="stop-color:#FF5A3D"/>
			<stop  offset="1" style="stop-color:#2FB8FF"/>
		</linearGradient>
		<path class="st36" d="M299.9-53.2c-21.1,62.5-55.7,170,56.7,225.9c112.4,55.9,160,14.1,206.1-6.4c46-20.5,162.2-38.1,139.6-110.3
			C679.6-16.2,667-143.8,582.9-139.6c-84,4.2-70.4,38.3-124,47.1C405.4-83.6,321-115.8,299.9-53.2z"/>
	</g>
	<g>
		
			<linearGradient id="SVGID_37_" gradientUnits="userSpaceOnUse" x1="164.8301" y1="1434.848" x2="-258.6699" y2="1669.598" gradientTransform="matrix(1 0 0 -1 539.04 1550.6257)">
			<stop  offset="0" style="stop-color:#FF6C6C"/>
			<stop  offset="1" style="stop-color:#2FB8FF"/>
		</linearGradient>
		<path class="st37" d="M266.4-91.2c-24.9,72.9-65.8,198.3,63,262.2c128.8,63.9,184,14.8,237.2-9.4s187-45.9,161.7-129.7
			c-25.3-83.7-38.6-232-135.3-226.3c-96.7,5.7-81.4,45.2-143.1,56C388.1-127.6,291.3-164.2,266.4-91.2L266.4-91.2z"/>
	</g>
</g>
<path class="st38" d="M572.9,27.6c5.3,0,9.6-4.3,9.6-9.6s-4.3-9.6-9.6-9.6s-9.6,4.3-9.6,9.6S567.6,27.6,572.9,27.6z"/>
<path class="st39" d="M579.7,18c0,0.7-0.1,1.4-0.3,2c-0.5-1.2-1.7-2-3.1-2c-1.9,0-3.4,1.5-3.4,3.4c0,1.4,0.8,2.6,2,3.1
	c-0.6,0.2-1.3,0.3-2,0.3c-3.8,0-6.8-3.1-6.8-6.8c0-3.8,3.1-6.8,6.8-6.8S579.7,14.3,579.7,18z"/>
<path class="st40" d="M574.9,24.6c-1.2-0.5-2-1.7-2-3.1c0-0.8,0.2-1.4,0.7-2c-0.2,0-0.4,0-0.7,0c-2.2,0-4.2,1.3-5,3.3
	c1.3,1.3,3,2.2,5,2.2C573.6,24.9,574.2,24.8,574.9,24.6z"/>
<path class="st4" d="M574,19.7h-0.3c0.4-0.5,0.9-0.8,1.5-1c0.3-0.5,0.5-1,0.5-1.6c0-1.5-1.2-2.7-2.7-2.7s-2.7,1.2-2.7,2.7
	c0,1.5,1.2,2.7,2.7,2.7c0.3,0,0.5,0,0.8-0.1"/>
<path class="st41" d="M573.5,19.2h0.2c0.4-0.5,0.9-0.8,1.5-1c0.3-0.5,0.5-1,0.5-1.6c0-1.5-1.2-2.7-2.7-2.7s-2.7,1.2-2.7,2.7
	c0,1.5,1.2,2.7,2.7,2.7c0.3,0,0.5,0,0.8-0.1"/>
<path class="st42" d="M576.3,24.9c1.9,0,3.4-1.5,3.4-3.4s-1.5-3.4-3.4-3.4c-1.9,0-3.4,1.5-3.4,3.4S574.4,24.9,576.3,24.9z"/>
<path class="st43" d="M574.7,21l1.2,1.2l2.1-2.1"/>
<path class="st39" d="M594.2,93c0,1-0.1,1.9-0.4,2.7c-0.7-1.6-2.4-2.7-4.3-2.7c-2.6,0-4.7,2.1-4.7,4.7c0,1.9,1.1,3.5,2.7,4.3
	c-0.9,0.3-1.8,0.4-2.7,0.4c-5.2,0-9.3-4.2-9.3-9.3c0-5.2,4.2-9.3,9.3-9.3C590,83.7,594.2,87.9,594.2,93z"/>
<path class="st40" d="M587.6,102c-1.6-0.7-2.7-2.4-2.7-4.3c0-1,0.3-2,0.9-2.7c-0.3,0-0.6-0.1-0.9-0.1c-3.1,0-5.7,1.8-6.8,4.5
	c1.7,1.8,4.1,3,6.8,3C585.8,102.4,586.7,102.2,587.6,102z"/>
<path class="st4" d="M586.4,95.3h-0.5c0.5-0.6,1.2-1.1,2-1.4c0.4-0.6,0.7-1.4,0.7-2.2c0-2.1-1.7-3.7-3.7-3.7c-2.1,0-3.7,1.7-3.7,3.7
	c0,2.1,1.7,3.7,3.7,3.7c0.4,0,0.7-0.1,1.1-0.1"/>
<path class="st41" d="M585.7,94.6h0.2c0.5-0.6,1.2-1.1,2-1.4c0.4-0.6,0.7-1.4,0.7-2.2c0-2.1-1.7-3.7-3.7-3.7c-2.1,0-3.7,1.7-3.7,3.7
	c0,2.1,1.7,3.7,3.7,3.7c0.4,0,0.7-0.1,1.1-0.1"/>
<path class="st42" d="M589.6,102.4c2.6,0,4.7-2.1,4.7-4.7s-2.1-4.7-4.7-4.7c-2.6,0-4.7,2.1-4.7,4.7
	C584.9,100.3,587,102.4,589.6,102.4z"/>
<path class="st43" d="M587.3,97.1l1.7,1.7l2.8-2.8"/>
<g>
	<defs>
		<rect id="SVGID_38_" x="590" y="11.7" width="42" height="12"/>
	</defs>
	<clipPath id="SVGID_39_">
		<use xlink:href="#SVGID_38_"  style="overflow:visible;"/>
	</clipPath>
</g>
<g>
	<path class="st4" d="M649.9,20.8c0.2,0,0.3-0.1,0.4-0.2l3.3-3.4c0.1-0.1,0.1-0.2,0.1-0.4c0-0.3-0.2-0.5-0.5-0.5
		c-0.1,0-0.3,0.1-0.4,0.2l-3,3l-3-3c-0.1-0.1-0.2-0.2-0.4-0.2c-0.3,0-0.5,0.2-0.5,0.5c0,0.1,0.1,0.3,0.1,0.4l3.3,3.4
		C649.6,20.8,649.7,20.8,649.9,20.8L649.9,20.8z"/>
	<path class="st44" d="M159.2,63.7h133.6c1.2,0,2.2,1,2.2,2.2v3.6c0,1.2-1,2.2-2.2,2.2H159.2c-1.2,0-2.2-1-2.2-2.2v-3.6
		C157,64.7,158,63.7,159.2,63.7z"/>
	<path class="st44" d="M159.2,82.7h59.6c1.2,0,2.2,1,2.2,2.2v3.6c0,1.2-1,2.2-2.2,2.2h-59.6c-1.2,0-2.2-1-2.2-2.2v-3.6
		C157,83.7,158,82.7,159.2,82.7z"/>
	<path class="st5" d="M158.7,101.7h126.6c0.8,0,1.4,0.7,1.4,1.5v0c0,0.8-0.6,1.5-1.4,1.5H158.7c-0.8,0-1.4-0.7-1.4-1.5v0
		C157.3,102.4,157.9,101.7,158.7,101.7z"/>
	<path class="st5" d="M158.7,115.7h93.2c0.8,0,1.4,0.7,1.4,1.5v0c0,0.8-0.6,1.5-1.4,1.5h-93.2c-0.8,0-1.4-0.7-1.4-1.5v0
		C157.3,116.4,157.9,115.7,158.7,115.7z"/>
	<path class="st5" d="M158.7,129.7h109.9c0.8,0,1.4,0.7,1.4,1.5l0,0c0,0.8-0.6,1.5-1.4,1.5H158.7c-0.8,0-1.4-0.7-1.4-1.5l0,0
		C157.3,130.4,157.9,129.7,158.7,129.7z"/>
</g>
<g>
	<defs>
		<rect id="SVGID_40_" x="563" y="49.7" width="124" height="68"/>
	</defs>
	<clipPath id="SVGID_41_">
		<use xlink:href="#SVGID_40_"  style="overflow:visible;"/>
	</clipPath>
	<g class="st45">
		<path class="st44" d="M565.3,49.7h41.4c1.1,0,2,0.9,2,2v0c0,1.1-0.9,2-2,2h-41.4c-1.1,0-2-0.9-2-2v0
			C563.3,50.6,564.2,49.7,565.3,49.7z"/>
		<path class="st5" d="M564.7,59.7h93.2c0.8,0,1.4,0.7,1.4,1.5v0c0,0.8-0.6,1.5-1.4,1.5h-93.2c-0.8,0-1.4-0.7-1.4-1.5v0
			C563.3,60.4,563.9,59.7,564.7,59.7z"/>
		<g>
			<path class="st46" d="M569.8,67.7h110.3c3.8,0,6.8,3.1,6.8,6.8v35.3c0,3.8-3.1,6.8-6.8,6.8H569.8c-3.8,0-6.8-3.1-6.8-6.8V74.5
				C563,70.8,566.1,67.7,569.8,67.7z"/>
			<path class="st38" d="M585.2,106.2c7.6,0,13.7-6.1,13.7-13.7s-6.1-13.7-13.7-13.7s-13.7,6.1-13.7,13.7S577.6,106.2,585.2,106.2z"
				/>
			<g>
				<defs>
					<rect id="SVGID_42_" x="606" y="80.7" width="73" height="24"/>
				</defs>
				<clipPath id="SVGID_43_">
					<use xlink:href="#SVGID_42_"  style="overflow:visible;"/>
				</clipPath>
				<g class="st47">
					<path class="st5" d="M607.1,95.7h43.1c0.8,0,1.4,0.7,1.4,1.5v0c0,0.8-0.6,1.5-1.4,1.5h-43.1c-0.8,0-1.4-0.7-1.4-1.5v0
						C605.7,96.4,606.4,95.7,607.1,95.7z"/>
					<g>
						<defs>
							<path id="SVGID_44_" d="M607.5,101.7h65c0.9-0.7,1.7,0.1,1.7,1.1l0,0c0,0.9-0.8,1.7-1.7,1.9h-65c-0.9-0.2-1.7-1-1.7-1.9l0,0
								C605.7,101.8,606.5,101,607.5,101.7z"/>
						</defs>
						<clipPath id="SVGID_45_">
							<use xlink:href="#SVGID_44_"  style="overflow:visible;"/>
						</clipPath>
						<g class="st48">
							<path class="st3" d="M607.5,101.7h65c0.9-0.7,1.7,0.1,1.7,1.1l0,0c0,0.9-0.8,1.7-1.7,1.9h-65c-0.9-0.2-1.7-1-1.7-1.9l0,0
								C605.7,101.8,606.5,101,607.5,101.7z"/>
							<path class="st49" d="M608,101.7h38c0.6,0,1,0.4,1,1l0,0c0,0.6-0.4,1-1,1h-38c-0.6,0-1-0.4-1-1l0,0
								C607,102.1,607.4,101.7,608,101.7z"/>
						</g>
					</g>
				</g>
			</g>
		</g>
	</g>
</g>
<path class="st50" d="M137,35.7h564l0,0H137L137,35.7z"/>
<path class="st51" d="M0,372.7h137v1H0V372.7z"/>
<path class="st3" d="M147.7,8.7h19.5c1.5,0,2.7,1.2,2.7,2.7V25c0,1.5-1.2,2.7-2.7,2.7h-19.5c-1.5,0-2.7-1.2-2.7-2.7V11.4
	C145,9.9,146.2,8.7,147.7,8.7z"/>
<path class="st4" d="M154.4,22.7h7.2c0.9,0,1.4-0.5,1.4-1.4v-5.2c0-0.9-0.5-1.4-1.4-1.4h-7.2c-0.9,0-1.4,0.5-1.4,1.4v5.2
	C153,22.2,153.5,22.7,154.4,22.7z M154,21.7c-0.4-0.1-0.6-0.3-1-0.7v-5.1c0.4-0.4,0.6-0.6,1-0.2h2v6H154z M161.4,15.7
	c0.4,0,0.6,0.2,0.6,0.6v4.8c0,0.4-0.2,0.6-0.6,0.6H157v-6H161.4z M155.1,16.7c0.2,0.1,0.3,0,0.3-0.2c0-0.1-0.1-0.3-0.3-0.8h-0.9
	c-0.2,0.6-0.3,0.7-0.3,0.8c0,0.1,0.1,0.3,0.3,0.2H155.1z M155.1,18.7c0.2-0.7,0.3-0.8,0.3-1c0-0.1-0.1-0.3-0.3,0h-0.9
	c-0.2-0.3-0.3-0.1-0.3,0c0,0.2,0.1,0.3,0.3,1H155.1z M155.1,19.7c0.2-0.5,0.3-0.7,0.3-0.8c0-0.1-0.1-0.3-0.3-0.2h-0.9
	c-0.2-0.1-0.3,0-0.3,0.2c0,0.2,0.1,0.3,0.3,0.8H155.1z"/>
<path class="st3" d="M672.7,8.7h17.5c1.5,0,2.7,1.2,2.7,2.7V25c0,1.5-1.2,2.7-2.7,2.7h-17.5c-1.5,0-2.7-1.2-2.7-2.7V11.4
	C670,9.9,671.2,8.7,672.7,8.7z"/>
<path class="st4" d="M681,22.9c2.5,0,4.5-2,4.5-4.5c0-2.5-2-4.5-4.5-4.5c-2.5,0-4.5,2-4.5,4.5C676.5,20.9,678.6,22.9,681,22.9
	L681,22.9z M681,22c-2,0-3.6-1.6-3.6-3.6c0-2,1.6-3.6,3.6-3.6c2,0,3.6,1.6,3.6,3.6C684.6,20.4,683,22,681,22L681,22z M681.4,19.3
	c0.2,0,0.4-0.1,0.4-0.3c0,0,0,0,0-0.1c0-0.2,0.2-0.4,0.4-0.6c0.4-0.3,0.7-0.5,0.7-1c0-0.7-0.7-1.1-1.4-1.1c-0.7,0-1.3,0.3-1.4,0.7
	c0,0.1,0,0.2,0,0.2c0,0.2,0.2,0.3,0.4,0.3c0.3,0,0.3-0.1,0.4-0.3c0.1-0.2,0.3-0.3,0.6-0.3c0.3,0,0.6,0.2,0.6,0.5
	c0,0.3-0.2,0.4-0.6,0.7c-0.3,0.2-0.5,0.4-0.5,0.8v0C681,19.2,681.2,19.3,681.4,19.3z M680.9,20.6c0.3,0,0.5-0.2,0.5-0.5
	c0-0.3-0.2-0.5-0.5-0.5c-0.3,0-0.5,0.2-0.5,0.5C680.4,20.4,680.7,20.6,680.9,20.6z"/>
<text transform="matrix(1 0 0 1 25.4287 54.4133)" class="st52 st53 st54">Search</text>
<text transform="matrix(1 0 0 1 587.4287 20.4133)" class="st52 st53 st54">Rabina</text>
<g class="st33">
	<g>
		<g>
			<path class="st4" d="M21.4,188.1c0,0.3-0.3,0.6-0.6,0.6s-0.6-0.3-0.6-0.6s0.3-0.6,0.6-0.6S21.4,187.8,21.4,188.1z"/>
			<path class="st4" d="M24.6,188.1c0,0.3-0.3,0.6-0.6,0.6s-0.6-0.3-0.6-0.6s0.3-0.6,0.6-0.6S24.6,187.8,24.6,188.1z"/>
			<path class="st4" d="M25.1,182.2h-5.3l-0.4-2.2c0-0.1-0.1-0.2-0.2-0.2H18c-0.1,0-0.2,0.1-0.2,0.2c0,0.2,0.1,0.3,0.2,0.3h1
				l0.9,4.6c0,0.2,0.2,0.3,0.3,0.4c0,0,0,0,0,0c-0.5,0.1-0.8,0.5-0.9,0.9c0,0.5,0.4,0.9,0.9,0.9h4.3c0.1,0,0.2-0.1,0.2-0.2
				c0-0.1-0.1-0.2-0.2-0.2h-4.3c-0.2,0-0.4-0.1-0.4-0.3c-0.1-0.3,0.2-0.5,0.4-0.5h4.1c0.3,0,0.5-0.2,0.5-0.5l0.6-2.7
				C25.4,182.4,25.3,182.2,25.1,182.2L25.1,182.2z M23.6,183.9l-1.2,1.2c0,0-0.1,0-0.1,0l-1.2-1.2c0,0,0-0.1,0-0.1h0.5V183h1.4v0.8
				h0.5C23.6,183.8,23.7,183.8,23.6,183.9L23.6,183.9z"/>
		</g>
	</g>
</g>
<g class="st33">
	<path class="st4" d="M21.6,280.9c0,0-0.1,0-0.1,0l-3.4,2.3c-0.1,0-0.1,0.1-0.1,0.2c0,0.1,0,0.1,0.1,0.2c0,0,0.1,0.1,0.2,0.1h6.7
		c0.1,0,0.1,0,0.2-0.1c0,0,0.1-0.1,0.1-0.2c0-0.1,0-0.1-0.1-0.2l-3.4-2.3C21.6,280.9,21.6,280.9,21.6,280.9L21.6,280.9z M18.5,284.1
		v3.7c0,0.1,0,0.1,0.1,0.2c0,0,0.1,0.1,0.2,0.1h1.2v-2.7c0-0.1,0.1-0.2,0.2-0.2H23c0.1,0,0.2,0.1,0.2,0.2v2.7h1.2
		c0.1,0,0.1,0,0.2-0.1c0,0,0.1-0.1,0.1-0.2v-3.7H18.5z M20.6,284.4C20.6,284.4,20.6,284.4,20.6,284.4h1.8c0.1,0,0.2,0,0.2,0.1
		s0,0.2,0,0.2s-0.1,0.1-0.2,0.1h-1.8c-0.1,0-0.2,0-0.2-0.1c0-0.1,0-0.2,0-0.2C20.5,284.4,20.5,284.4,20.6,284.4L20.6,284.4z
		 M20.3,285.6v2.4h2.5v-2.4H20.3z M20.8,286L20.8,286C20.9,286,20.9,286,20.8,286l1.4,0c0.1,0,0.2,0,0.2,0.1c0,0.1,0,0.2,0,0.2
		c0,0.1-0.1,0.1-0.2,0.1h-1.4c-0.1,0-0.2,0-0.2-0.1c0-0.1,0-0.2,0-0.2C20.7,286,20.8,286,20.8,286L20.8,286z M20.8,286.8L20.8,286.8
		C20.9,286.8,20.9,286.8,20.8,286.8l1.4,0c0.1,0,0.1,0,0.2,0.1c0,0,0.1,0.1,0.1,0.2s0,0.1-0.1,0.2s-0.1,0.1-0.2,0.1h-1.4
		c-0.1,0-0.2,0-0.2-0.1c0-0.1,0-0.2,0-0.2C20.7,286.8,20.8,286.8,20.8,286.8L20.8,286.8z"/>
</g>
<g class="st33">
	<g>
		<path class="st4" d="M20.1,309.3h0.3v-0.9c-0.1,0-0.2,0-0.3,0V309.3z"/>
		<path class="st4" d="M21.3,309.3h0.3v-1.1c-0.1,0-0.2,0.1-0.3,0.1V309.3z"/>
		<path class="st4" d="M21,307.3c0.3,0,0.5-0.1,0.7-0.3c0.2-0.2,0.3-0.5,0.3-0.7c0-0.3-0.1-0.5-0.3-0.7c-0.2-0.2-0.5-0.3-0.7-0.3
			c-0.3,0-0.5,0.1-0.7,0.3c-0.2,0.2-0.3,0.5-0.3,0.7c0,0.3,0.1,0.5,0.3,0.7C20.4,307.2,20.7,307.3,21,307.3L21,307.3z M21,306.5
			h-0.1c-0.1,0-0.2,0-0.3-0.1c-0.1-0.1-0.1-0.2-0.1-0.3c0-0.1,0-0.2,0.1-0.2c0.1-0.1,0.1-0.1,0.2-0.1v-0.2h0.3v0.2
			c0.1,0,0.1,0.1,0.2,0.1c0,0.1,0.1,0.1,0.1,0.2h-0.3c0,0,0-0.1-0.1-0.1h-0.1c0,0,0,0-0.1,0c0,0,0,0,0,0.1s0,0,0,0.1c0,0,0,0,0.1,0
			H21c0.1,0,0.2,0,0.3,0.1c0.1,0.1,0.1,0.2,0.1,0.3c0,0.1,0,0.2-0.1,0.2s-0.1,0.1-0.2,0.1v0.2h-0.3v-0.2c-0.1,0-0.1-0.1-0.2-0.1
			c0-0.1-0.1-0.1-0.1-0.2h0.3c0,0,0,0.1,0.1,0.1H21c0,0,0,0,0.1,0C21.1,306.6,21.1,306.5,21,306.5C21.1,306.5,21.1,306.5,21,306.5
			C21.1,306.5,21,306.5,21,306.5L21,306.5z"/>
		<path class="st4" d="M22.5,309.3h0.3v-1.7c-0.1,0.1-0.2,0.1-0.3,0.2V309.3z"/>
		<path class="st4" d="M23.2,306.3h0.4l-0.2-0.4L23.2,306.3z"/>
		<path class="st4" d="M24.4,305.2l0.6-0.9l-0.5-0.5l-0.9,0.6c-0.4-0.3-0.9-0.5-1.5-0.6l-0.2-1h-0.7l-0.2,1c-0.5,0.1-1,0.3-1.5,0.6
			l-0.9-0.6l-0.5,0.5l0.6,0.9c-0.3,0.4-0.5,0.9-0.6,1.5l-1.1,0.2v0.7l1.1,0.2c0.1,0.5,0.3,1,0.6,1.5l-0.6,0.9l0.5,0.5l0.9-0.6
			c0.4,0.3,0.9,0.5,1.5,0.6l0.2,1.1h0.7l0.2-1h0c0.5-0.1,1-0.3,1.5-0.6l0.9,0.6l0.5-0.5l-0.6-0.9c0.3-0.4,0.5-0.9,0.6-1.5l1-0.2
			v-0.7l-1-0.2v0C24.9,306.1,24.7,305.6,24.4,305.2L24.4,305.2z M21,304.9c0.4,0,0.7,0.1,1,0.4c0.3,0.3,0.4,0.6,0.4,1
			s-0.1,0.7-0.4,1c-0.3,0.3-0.6,0.4-1,0.4s-0.7-0.1-1-0.4c-0.3-0.3-0.4-0.6-0.4-1c0-0.4,0.1-0.7,0.4-1
			C20.3,305.1,20.6,304.9,21,304.9L21,304.9z M23.9,306.5c0,0-0.1,0.1-0.1,0.1h-0.3c-0.1,0.3-0.2,0.6-0.4,0.8v2c0,0,0,0,0,0
			c0,0.1-0.1,0.1-0.1,0.1h-0.6c-0.1,0-0.1-0.1-0.1-0.1V308c-0.1,0-0.2,0.1-0.3,0.1v1.4c0,0,0,0,0,0c0,0.1-0.1,0.1-0.1,0.1h-0.6
			c-0.1,0-0.1-0.1-0.1-0.1v-1.1c-0.1,0-0.2,0-0.3,0v1.1c0,0,0,0,0,0c0,0.1-0.1,0.1-0.1,0.1h-0.6c-0.1,0-0.1-0.1-0.1-0.1v-1.3
			c0,0,3.3-0.7,3.4-1.5h-0.3c-0.1,0-0.1,0-0.1-0.1c0,0,0-0.1,0-0.1l0.5-0.9c0,0,0.1-0.1,0.1-0.1s0.1,0,0.1,0.1l0.5,0.9
			C24,306.4,24,306.5,23.9,306.5L23.9,306.5z"/>
	</g>
</g>
<g class="st33">
	<g>
		<path class="st4" d="M18.6,232.8c-0.1,0-0.2,0-0.2,0.1c-0.1,0.1-0.1,0.1-0.1,0.2v1.3c0,0.1,0,0.2,0.1,0.2c0.1,0.1,0.3,0.1,0.4,0
			c0.1-0.1,0.1-0.1,0.1-0.2v-1.3c0-0.1,0-0.2-0.1-0.2C18.7,232.9,18.6,232.8,18.6,232.8L18.6,232.8z"/>
		<path class="st4" d="M19.8,231.8c-0.1,0-0.2,0.1-0.3,0.2c0,0,0,0.1,0,0.1v2.3c0,0.1,0,0.1,0.1,0.2c0.1,0.2,0.4,0.2,0.5,0
			c0-0.1,0.1-0.1,0.1-0.2v-2.3c0,0,0-0.1,0-0.1C20,231.9,19.9,231.8,19.8,231.8z"/>
		<path class="st4" d="M21,230.8c-0.1,0-0.2,0.1-0.3,0.2c0,0,0,0.1,0,0.1l0,3.3c0,0.1,0,0.1,0.1,0.2c0.1,0.2,0.4,0.2,0.5,0
			c0-0.1,0.1-0.1,0.1-0.2v-3.3c0,0,0-0.1,0-0.1C21.2,230.9,21.1,230.8,21,230.8L21,230.8z"/>
		<path class="st4" d="M23.3,230.3c-0.1,0-0.2,0.1-0.3,0.2c0,0,0,0.1,0,0.1v3.8c0,0.1,0,0.1,0.1,0.2c0.1,0.2,0.4,0.2,0.5,0
			c0-0.1,0.1-0.1,0.1-0.2v-3.8c0,0,0-0.1,0-0.1C23.6,230.4,23.5,230.3,23.3,230.3z"/>
		<path class="st4" d="M22.1,231.3c-0.1,0-0.2,0.1-0.3,0.2c0,0,0,0.1,0,0.1v2.8c0,0.1,0,0.1,0.1,0.2c0.1,0.2,0.4,0.2,0.5,0
			c0-0.1,0.1-0.1,0.1-0.2v-2.8c0,0,0-0.1,0-0.1C22.4,231.4,22.3,231.3,22.1,231.3z"/>
		<path class="st4" d="M24.5,229.3c-0.1,0-0.2,0.1-0.3,0.2c0,0,0,0.1,0,0.1v4.8c0,0.1,0,0.1,0.1,0.2c0.1,0.2,0.4,0.2,0.5,0
			c0-0.1,0.1-0.1,0.1-0.2v-4.8c0,0,0-0.1,0-0.1C24.8,229.4,24.7,229.3,24.5,229.3z"/>
		<path class="st4" d="M25.4,226.9c0-0.1,0-0.1-0.1-0.2c-0.1-0.1-0.1-0.1-0.2-0.1h-1.5c-0.1,0-0.2,0-0.2,0.1
			c-0.1,0.1-0.1,0.1-0.1,0.2c0,0.1,0,0.2,0.1,0.2l0.5,0.5l-1.9,1.9l-1-0.5c-0.1,0-0.1,0-0.2,0c-0.1,0-0.1,0-0.2,0.1l-3,3
			c-0.1,0.1-0.1,0.2-0.1,0.3c0,0.1,0.1,0.2,0.2,0.2c0.1,0,0.2,0,0.3-0.1l2.8-2.8l1,0.5h0c0.1,0,0.1,0,0.2,0c0.1,0,0.1,0,0.2-0.1l2-2
			l0.5,0.5c0.1,0.1,0.1,0.1,0.2,0.1c0.1,0,0.2,0,0.2-0.1c0.1-0.1,0.1-0.1,0.1-0.2C25.4,228.4,25.4,226.9,25.4,226.9L25.4,226.9z"/>
	</g>
</g>
<g class="st33">
	<g>
		<path class="st4" d="M19.3,208.7h-1.1c-0.1,0-0.2,0-0.3,0.1c-0.1,0.1-0.1,0.2-0.1,0.3v2.1c0,0.1,0,0.2,0.1,0.3
			c0.1,0.1,0.2,0.1,0.3,0.1h0.8h0c0.1,0,0.2,0,0.3-0.1c0.1-0.1,0.1-0.2,0.1-0.3v-2.4C19.5,208.7,19.4,208.7,19.3,208.7L19.3,208.7z
			 M18.7,210.9c0,0.1,0,0.1-0.1,0.1c-0.1,0-0.1-0.1-0.1-0.1v-0.2c0-0.1,0-0.1,0.1-0.1c0.1,0,0.1,0,0.1,0.1V210.9z"/>
		<path class="st4" d="M23.3,204.2c0-0.1,0-0.1,0.1-0.1h1.2c0.1,0,0.1,0.1,0.1,0.1v4.1c0,0.1,0,0.1-0.1,0.1h-1.2
			c-0.1,0-0.1-0.1-0.1-0.1V204.2z"/>
		<path class="st4" d="M20.9,204.3l2.3-0.9l-0.1,0.2c0,0.1,0,0.1,0.1,0.1c0.1,0,0.1,0,0.1-0.1l0.1-0.4v0c0,0,0-0.1,0-0.1
			c0,0,0,0-0.1-0.1l-0.4-0.1c-0.1,0-0.1,0-0.1,0.1c0,0.1,0,0.1,0.1,0.1l0.1,0l-2.3,0.9c0,0,0,0-0.1,0.1c0,0,0,0.1,0,0.1
			C20.7,204.3,20.8,204.3,20.9,204.3L20.9,204.3z"/>
		<path class="st4" d="M20.9,205.5c0-0.1,0-0.1-0.1-0.1h-1.2c-0.1,0-0.1,0-0.1,0.1v2.8c0,0,0,0.1,0.1,0.1c0.3-0.1,0.8-0.3,1.3-0.5
			L20.9,205.5z"/>
		<path class="st4" d="M21.4,205v2.7l0.7-0.2c0.2-0.1,0.5,0,0.7,0.1V205c0-0.1,0-0.1-0.1-0.1l-1.2,0C21.4,204.9,21.4,205,21.4,205z"
			/>
		<path class="st4" d="M25.3,209c-0.1-0.1-0.1-0.2-0.3-0.3c-0.1-0.1-0.3-0.1-0.4,0l-2.4,0.8h0c-0.1,0-0.1,0-0.1-0.1
			c0-0.1,0-0.1,0-0.2l0.6-0.4c0.1-0.1,0.2-0.3,0.2-0.5c0-0.2-0.1-0.4-0.2-0.5c-0.2-0.1-0.3-0.1-0.5-0.1c-0.7,0.2-1.9,0.7-2.4,0.9
			c0,0,0,0,0,0l0,2.2l1.9,0.3h0c0.1,0,0.1,0,0.2,0c0.2,0,0.4,0,0.6-0.1l2.6-1.3c0.1-0.1,0.2-0.2,0.3-0.3
			C25.3,209.3,25.3,209.1,25.3,209L25.3,209z"/>
	</g>
</g>
<g class="st33">
	<g>
		<path class="st4" d="M24.1,330.1v3h-5v-3c-0.2,0-0.4,0-0.5-0.1v4.3c0,0.2,0.2,0.3,0.3,0.3h5.4c0.2,0,0.3-0.2,0.3-0.3l0-4.3
			C24.4,330.1,24.3,330.1,24.1,330.1L24.1,330.1z"/>
		<path class="st4" d="M25,328.4l-0.3-0.7c-0.1-0.2-0.2-0.5-0.2-0.7c0-0.2-0.2-0.4-0.5-0.4h-5c-0.2,0-0.4,0.2-0.5,0.4
			c0,0.2-0.1,0.5-0.2,0.7l-0.3,0.7c-0.1,0.2-0.1,0.4,0,0.6c0.1,0.4,0.5,0.6,0.8,0.6c0.3,0,0.5-0.1,0.7-0.3c0.2,0.2,0.4,0.3,0.7,0.3
			h0.1c0.2,0,0.5-0.1,0.6-0.3c0.2,0.2,0.4,0.3,0.6,0.3h0.1c0.2,0,0.5-0.1,0.6-0.3c0.2,0.2,0.4,0.3,0.6,0.3h0.1
			c0.3,0,0.5-0.1,0.7-0.3c0.2,0.2,0.4,0.3,0.7,0.3c0.4,0,0.7-0.2,0.8-0.6C25.1,328.9,25.1,328.6,25,328.4L25,328.4z"/>
		<path class="st4" d="M21.6,331.4c0.4,0,0.7-0.3,0.7-0.7c0-0.4-0.3-0.7-0.7-0.7c-0.4,0-0.7,0.3-0.7,0.7
			C20.9,331.1,21.2,331.4,21.6,331.4z"/>
		<path class="st4" d="M20.4,332.3v0.3h2.2v-0.3c0-0.3-0.2-0.6-0.5-0.7c-0.2,0.1-0.4,0.2-0.6,0.2c-0.2,0-0.4-0.1-0.6-0.2
			C20.7,331.7,20.4,332,20.4,332.3z"/>
	</g>
</g>
<path class="st5" d="M9.1,167.7h27c0.6,0,1,0.4,1,1l0,0c0,0.6-0.4,1-1,1h-27c-0.6,0-1-0.4-1-1l0,0C8.1,168.1,8.5,167.7,9.1,167.7z"
	/>
<path class="st5" d="M9.1,267.7h27c0.6,0,1,0.4,1,1l0,0c0,0.6-0.4,1-1,1h-27c-0.6,0-1-0.4-1-1l0,0C8.1,268.1,8.5,267.7,9.1,267.7z"
	/>
</svg>
